%TF.GenerationSoftware,KiCad,Pcbnew,(2017-08-30 revision 50164e996)-master*%
%TF.CreationDate,2017-09-20T12:12:51+02:00*%
%TF.ProjectId,antispark,616E7469737061726B2E6B696361645F,rev?*%
%TF.SameCoordinates,Original*%
%TF.FileFunction,Soldermask,Top*%
%TF.FilePolarity,Negative*%
%FSLAX46Y46*%
G04 Gerber Fmt 4.6, Leading zero omitted, Abs format (unit mm)*
G04 Created by KiCad (PCBNEW (2017-08-30 revision 50164e996)-master) date Wed Sep 20 12:12:51 2017*
%MOMM*%
%LPD*%
G01*
G04 APERTURE LIST*
%ADD10C,0.100000*%
%ADD11C,1.998980*%
%ADD12R,1.400000X0.300000*%
%ADD13R,10.800080X8.150860*%
%ADD14R,0.899160X3.200400*%
%ADD15R,0.750000X0.800000*%
%ADD16R,0.900000X0.500000*%
%ADD17R,0.500000X0.900000*%
%ADD18R,1.250000X1.000000*%
%ADD19R,1.700000X0.900000*%
%ADD20R,0.900000X1.700000*%
%ADD21R,8.300000X11.000000*%
%ADD22R,6.000000X5.000000*%
%ADD23C,2.000000*%
%ADD24R,0.800000X0.800000*%
%ADD25R,2.500000X0.640000*%
%ADD26C,1.440000*%
G04 APERTURE END LIST*
D10*
%TO.C,REF\002A\002A*%
G36*
X152440729Y-90442916D02*
X152489240Y-90450112D01*
X152536813Y-90462029D01*
X152582989Y-90478551D01*
X152627323Y-90499519D01*
X152669388Y-90524732D01*
X152708780Y-90553947D01*
X152745118Y-90586882D01*
X152778053Y-90623220D01*
X152807268Y-90662612D01*
X152832481Y-90704677D01*
X152853449Y-90749011D01*
X152869971Y-90795187D01*
X152881888Y-90842760D01*
X152889084Y-90891271D01*
X152891490Y-90940255D01*
X152891490Y-91939745D01*
X152889084Y-91988729D01*
X152881888Y-92037240D01*
X152869971Y-92084813D01*
X152853449Y-92130989D01*
X152832481Y-92175323D01*
X152807268Y-92217388D01*
X152778053Y-92256780D01*
X152745118Y-92293118D01*
X152708780Y-92326053D01*
X152669388Y-92355268D01*
X152627323Y-92380481D01*
X152582989Y-92401449D01*
X152536813Y-92417971D01*
X152489240Y-92429888D01*
X152440729Y-92437084D01*
X152391745Y-92439490D01*
X151392255Y-92439490D01*
X151343271Y-92437084D01*
X151294760Y-92429888D01*
X151247187Y-92417971D01*
X151201011Y-92401449D01*
X151156677Y-92380481D01*
X151114612Y-92355268D01*
X151075220Y-92326053D01*
X151038882Y-92293118D01*
X151005947Y-92256780D01*
X150976732Y-92217388D01*
X150951519Y-92175323D01*
X150930551Y-92130989D01*
X150914029Y-92084813D01*
X150902112Y-92037240D01*
X150894916Y-91988729D01*
X150892510Y-91939745D01*
X150892510Y-90940255D01*
X150894916Y-90891271D01*
X150902112Y-90842760D01*
X150914029Y-90795187D01*
X150930551Y-90749011D01*
X150951519Y-90704677D01*
X150976732Y-90662612D01*
X151005947Y-90623220D01*
X151038882Y-90586882D01*
X151075220Y-90553947D01*
X151114612Y-90524732D01*
X151156677Y-90499519D01*
X151201011Y-90478551D01*
X151247187Y-90462029D01*
X151294760Y-90450112D01*
X151343271Y-90442916D01*
X151392255Y-90440510D01*
X152391745Y-90440510D01*
X152440729Y-90442916D01*
X152440729Y-90442916D01*
G37*
D11*
X151892000Y-91440000D03*
%TD*%
D12*
%TO.C,U1*%
X169377000Y-91964000D03*
X169377000Y-92464000D03*
X169377000Y-92964000D03*
X169377000Y-93464000D03*
X169377000Y-93964000D03*
X173777000Y-93964000D03*
X173777000Y-93464000D03*
X173777000Y-92964000D03*
X173777000Y-92464000D03*
X173777000Y-91964000D03*
%TD*%
D13*
%TO.C,U10*%
X173355000Y-74109580D03*
D14*
X169545000Y-84711540D03*
X170815000Y-84711540D03*
X172085000Y-84711540D03*
X174625000Y-84711540D03*
X175895000Y-84711540D03*
X177165000Y-84711540D03*
%TD*%
D15*
%TO.C,C1*%
X176657000Y-94119000D03*
X176657000Y-95619000D03*
%TD*%
D16*
%TO.C,R2*%
X160782000Y-94349000D03*
X160782000Y-92849000D03*
%TD*%
D17*
%TO.C,R7*%
X147332000Y-92964000D03*
X148832000Y-92964000D03*
%TD*%
D16*
%TO.C,R8*%
X157861000Y-91452000D03*
X157861000Y-92952000D03*
%TD*%
%TO.C,Ro1*%
X175514000Y-91682000D03*
X175514000Y-90182000D03*
%TD*%
%TO.C,Rsns1*%
X169037000Y-88404000D03*
X169037000Y-89904000D03*
%TD*%
D18*
%TO.C,C2*%
X166497000Y-91424000D03*
X166497000Y-89424000D03*
%TD*%
%TO.C,C3*%
X147574000Y-90408000D03*
X147574000Y-88408000D03*
%TD*%
D19*
%TO.C,R1*%
X160782000Y-91239000D03*
X160782000Y-88339000D03*
%TD*%
D20*
%TO.C,R3*%
X157787000Y-89281000D03*
X154887000Y-89281000D03*
%TD*%
%TO.C,R9*%
X178509000Y-95504000D03*
X181409000Y-95504000D03*
%TD*%
%TO.C,R10*%
X174551000Y-96774000D03*
X171651000Y-96774000D03*
%TD*%
%TO.C,R11*%
X181409000Y-92710000D03*
X178509000Y-92710000D03*
%TD*%
%TO.C,R12*%
X149680000Y-88392000D03*
X152580000Y-88392000D03*
%TD*%
D19*
%TO.C,Rin1*%
X163957000Y-91239000D03*
X163957000Y-88339000D03*
%TD*%
D21*
%TO.C,F1*%
X163449000Y-74295000D03*
X142621000Y-74295000D03*
%TD*%
D22*
%TO.C,P1VBAT1*%
X141605000Y-83820000D03*
%TD*%
%TO.C,P2VBAT1*%
X187198000Y-89662000D03*
%TD*%
D23*
%TO.C,RV1*%
X161290000Y-85090000D03*
X151290000Y-82290000D03*
%TD*%
D14*
%TO.C,U11*%
X188595000Y-84711540D03*
X187325000Y-84711540D03*
X186055000Y-84711540D03*
X183515000Y-84711540D03*
X182245000Y-84711540D03*
X180975000Y-84711540D03*
D13*
X184785000Y-74109580D03*
%TD*%
D24*
%TO.C,D2*%
X183096000Y-95504000D03*
X184696000Y-95504000D03*
%TD*%
%TO.C,D3*%
X184696000Y-97028000D03*
X183096000Y-97028000D03*
%TD*%
%TO.C,D4*%
X183096000Y-93980000D03*
X184696000Y-93980000D03*
%TD*%
D25*
%TO.C,JP1*%
X140081000Y-95250000D03*
X140081000Y-97790000D03*
%TD*%
D22*
%TO.C,P1GND1*%
X187452000Y-101854000D03*
%TD*%
%TO.C,P2GND1*%
X141605000Y-101854000D03*
%TD*%
D26*
%TO.C,RV2*%
X142367000Y-88265000D03*
X139827000Y-90805000D03*
X142367000Y-93345000D03*
%TD*%
M02*
