%TF.GenerationSoftware,KiCad,Pcbnew,(2017-08-30 revision 50164e996)-master*%
%TF.CreationDate,2017-09-20T12:12:51+02:00*%
%TF.ProjectId,antispark,616E7469737061726B2E6B696361645F,rev?*%
%TF.SameCoordinates,Original*%
%TF.FileFunction,Legend,Top*%
%TF.FilePolarity,Positive*%
%FSLAX46Y46*%
G04 Gerber Fmt 4.6, Leading zero omitted, Abs format (unit mm)*
G04 Created by KiCad (PCBNEW (2017-08-30 revision 50164e996)-master) date Wed Sep 20 12:12:51 2017*
%MOMM*%
%LPD*%
G01*
G04 APERTURE LIST*
%ADD10C,0.250000*%
%ADD11C,0.254000*%
%ADD12C,0.300000*%
%ADD13C,0.127000*%
%ADD14C,0.010000*%
%ADD15C,0.150000*%
%ADD16C,0.381000*%
%ADD17C,0.120000*%
G04 APERTURE END LIST*
D10*
X141652857Y-96924761D02*
X141557619Y-96972380D01*
X141367142Y-96972380D01*
X141271904Y-96924761D01*
X141224285Y-96829523D01*
X141224285Y-96448571D01*
X141271904Y-96353333D01*
X141367142Y-96305714D01*
X141557619Y-96305714D01*
X141652857Y-96353333D01*
X141700476Y-96448571D01*
X141700476Y-96543809D01*
X141224285Y-96639047D01*
X142129047Y-96305714D02*
X142129047Y-96972380D01*
X142129047Y-96400952D02*
X142176666Y-96353333D01*
X142271904Y-96305714D01*
X142414761Y-96305714D01*
X142510000Y-96353333D01*
X142557619Y-96448571D01*
X142557619Y-96972380D01*
X143462380Y-96972380D02*
X143462380Y-96448571D01*
X143414761Y-96353333D01*
X143319523Y-96305714D01*
X143129047Y-96305714D01*
X143033809Y-96353333D01*
X143462380Y-96924761D02*
X143367142Y-96972380D01*
X143129047Y-96972380D01*
X143033809Y-96924761D01*
X142986190Y-96829523D01*
X142986190Y-96734285D01*
X143033809Y-96639047D01*
X143129047Y-96591428D01*
X143367142Y-96591428D01*
X143462380Y-96543809D01*
X143938571Y-96972380D02*
X143938571Y-95972380D01*
X143938571Y-96353333D02*
X144033809Y-96305714D01*
X144224285Y-96305714D01*
X144319523Y-96353333D01*
X144367142Y-96400952D01*
X144414761Y-96496190D01*
X144414761Y-96781904D01*
X144367142Y-96877142D01*
X144319523Y-96924761D01*
X144224285Y-96972380D01*
X144033809Y-96972380D01*
X143938571Y-96924761D01*
X144986190Y-96972380D02*
X144890952Y-96924761D01*
X144843333Y-96829523D01*
X144843333Y-95972380D01*
X145748095Y-96924761D02*
X145652857Y-96972380D01*
X145462380Y-96972380D01*
X145367142Y-96924761D01*
X145319523Y-96829523D01*
X145319523Y-96448571D01*
X145367142Y-96353333D01*
X145462380Y-96305714D01*
X145652857Y-96305714D01*
X145748095Y-96353333D01*
X145795714Y-96448571D01*
X145795714Y-96543809D01*
X145319523Y-96639047D01*
D11*
X185586309Y-97487619D02*
X185586309Y-96471619D01*
X186070119Y-97487619D02*
X186070119Y-96471619D01*
X186650690Y-97487619D01*
X186650690Y-96471619D01*
X185958238Y-95431428D02*
X185619571Y-95431428D01*
X185619571Y-95963619D02*
X185619571Y-94947619D01*
X186103380Y-94947619D01*
X186442047Y-95673333D02*
X186925857Y-95673333D01*
X186345285Y-95963619D02*
X186683952Y-94947619D01*
X187022619Y-95963619D01*
X187361285Y-94947619D02*
X187361285Y-95770095D01*
X187409666Y-95866857D01*
X187458047Y-95915238D01*
X187554809Y-95963619D01*
X187748333Y-95963619D01*
X187845095Y-95915238D01*
X187893476Y-95866857D01*
X187941857Y-95770095D01*
X187941857Y-94947619D01*
X188909476Y-95963619D02*
X188425666Y-95963619D01*
X188425666Y-94947619D01*
X189103000Y-94947619D02*
X189683571Y-94947619D01*
X189393285Y-95963619D02*
X189393285Y-94947619D01*
X185801000Y-93423619D02*
X185994523Y-93423619D01*
X186091285Y-93472000D01*
X186188047Y-93568761D01*
X186236428Y-93762285D01*
X186236428Y-94100952D01*
X186188047Y-94294476D01*
X186091285Y-94391238D01*
X185994523Y-94439619D01*
X185801000Y-94439619D01*
X185704238Y-94391238D01*
X185607476Y-94294476D01*
X185559095Y-94100952D01*
X185559095Y-93762285D01*
X185607476Y-93568761D01*
X185704238Y-93472000D01*
X185801000Y-93423619D01*
X186671857Y-93423619D02*
X186671857Y-94246095D01*
X186720238Y-94342857D01*
X186768619Y-94391238D01*
X186865380Y-94439619D01*
X187058904Y-94439619D01*
X187155666Y-94391238D01*
X187204047Y-94342857D01*
X187252428Y-94246095D01*
X187252428Y-93423619D01*
X187591095Y-93423619D02*
X188171666Y-93423619D01*
X187881380Y-94439619D02*
X187881380Y-93423619D01*
D12*
X180594142Y-101104000D02*
X180451285Y-101032571D01*
X180237000Y-101032571D01*
X180022714Y-101104000D01*
X179879857Y-101246857D01*
X179808428Y-101389714D01*
X179737000Y-101675428D01*
X179737000Y-101889714D01*
X179808428Y-102175428D01*
X179879857Y-102318285D01*
X180022714Y-102461142D01*
X180237000Y-102532571D01*
X180379857Y-102532571D01*
X180594142Y-102461142D01*
X180665571Y-102389714D01*
X180665571Y-101889714D01*
X180379857Y-101889714D01*
X181308428Y-102532571D02*
X181308428Y-101032571D01*
X182165571Y-102532571D01*
X182165571Y-101032571D01*
X182879857Y-102532571D02*
X182879857Y-101032571D01*
X183237000Y-101032571D01*
X183451285Y-101104000D01*
X183594142Y-101246857D01*
X183665571Y-101389714D01*
X183737000Y-101675428D01*
X183737000Y-101889714D01*
X183665571Y-102175428D01*
X183594142Y-102318285D01*
X183451285Y-102461142D01*
X183237000Y-102532571D01*
X182879857Y-102532571D01*
X178864380Y-87442523D02*
X179287714Y-88712523D01*
X179711047Y-87442523D01*
X180376285Y-87442523D02*
X180618190Y-87442523D01*
X180739142Y-87503000D01*
X180860095Y-87623952D01*
X180920571Y-87865857D01*
X180920571Y-88289190D01*
X180860095Y-88531095D01*
X180739142Y-88652047D01*
X180618190Y-88712523D01*
X180376285Y-88712523D01*
X180255333Y-88652047D01*
X180134380Y-88531095D01*
X180073904Y-88289190D01*
X180073904Y-87865857D01*
X180134380Y-87623952D01*
X180255333Y-87503000D01*
X180376285Y-87442523D01*
X181464857Y-87442523D02*
X181464857Y-88470619D01*
X181525333Y-88591571D01*
X181585809Y-88652047D01*
X181706761Y-88712523D01*
X181948666Y-88712523D01*
X182069619Y-88652047D01*
X182130095Y-88591571D01*
X182190571Y-88470619D01*
X182190571Y-87442523D01*
X182613904Y-87442523D02*
X183339619Y-87442523D01*
X182976761Y-88712523D02*
X182976761Y-87442523D01*
X146558142Y-101104000D02*
X146415285Y-101032571D01*
X146201000Y-101032571D01*
X145986714Y-101104000D01*
X145843857Y-101246857D01*
X145772428Y-101389714D01*
X145701000Y-101675428D01*
X145701000Y-101889714D01*
X145772428Y-102175428D01*
X145843857Y-102318285D01*
X145986714Y-102461142D01*
X146201000Y-102532571D01*
X146343857Y-102532571D01*
X146558142Y-102461142D01*
X146629571Y-102389714D01*
X146629571Y-101889714D01*
X146343857Y-101889714D01*
X147272428Y-102532571D02*
X147272428Y-101032571D01*
X148129571Y-102532571D01*
X148129571Y-101032571D01*
X148843857Y-102532571D02*
X148843857Y-101032571D01*
X149201000Y-101032571D01*
X149415285Y-101104000D01*
X149558142Y-101246857D01*
X149629571Y-101389714D01*
X149701000Y-101675428D01*
X149701000Y-101889714D01*
X149629571Y-102175428D01*
X149558142Y-102318285D01*
X149415285Y-102461142D01*
X149201000Y-102532571D01*
X148843857Y-102532571D01*
D13*
X140770428Y-80239809D02*
X141024428Y-80747809D01*
X141278428Y-80239809D01*
X141532428Y-80747809D02*
X141532428Y-80239809D01*
X141895285Y-80747809D02*
X141895285Y-80239809D01*
X142330714Y-80747809D01*
X142330714Y-80239809D01*
D14*
%TO.C,REF\002A\002A\002A*%
G36*
X153411964Y-71585018D02*
X153468812Y-71886570D01*
X153888338Y-72059512D01*
X154139984Y-71888395D01*
X154210458Y-71840750D01*
X154274163Y-71798210D01*
X154328126Y-71762715D01*
X154369373Y-71736210D01*
X154394934Y-71720636D01*
X154401895Y-71717278D01*
X154414435Y-71725914D01*
X154441231Y-71749792D01*
X154479280Y-71785859D01*
X154525579Y-71831067D01*
X154577123Y-71882364D01*
X154630909Y-71936701D01*
X154683935Y-71991028D01*
X154733195Y-72042295D01*
X154775687Y-72087451D01*
X154808407Y-72123446D01*
X154828351Y-72147230D01*
X154833119Y-72155190D01*
X154826257Y-72169865D01*
X154807020Y-72202014D01*
X154777430Y-72248492D01*
X154739510Y-72306156D01*
X154695282Y-72371860D01*
X154669654Y-72409336D01*
X154622941Y-72477768D01*
X154581432Y-72539520D01*
X154547140Y-72591519D01*
X154522080Y-72630692D01*
X154508264Y-72653965D01*
X154506188Y-72658855D01*
X154510895Y-72672755D01*
X154523723Y-72705150D01*
X154542738Y-72751485D01*
X154566003Y-72807206D01*
X154591584Y-72867758D01*
X154617545Y-72928586D01*
X154641950Y-72985136D01*
X154662863Y-73032852D01*
X154678349Y-73067181D01*
X154686472Y-73083568D01*
X154686952Y-73084212D01*
X154699707Y-73087341D01*
X154733677Y-73094321D01*
X154785340Y-73104467D01*
X154851176Y-73117092D01*
X154927664Y-73131509D01*
X154972290Y-73139823D01*
X155054021Y-73155384D01*
X155127843Y-73170192D01*
X155190021Y-73183436D01*
X155236822Y-73194305D01*
X155264509Y-73201989D01*
X155270074Y-73204427D01*
X155275526Y-73220930D01*
X155279924Y-73258200D01*
X155283272Y-73311880D01*
X155285574Y-73377612D01*
X155286832Y-73451037D01*
X155287048Y-73527796D01*
X155286227Y-73603532D01*
X155284371Y-73673886D01*
X155281482Y-73734500D01*
X155277565Y-73781016D01*
X155272622Y-73809075D01*
X155269657Y-73814916D01*
X155251934Y-73821917D01*
X155214381Y-73831927D01*
X155161964Y-73843769D01*
X155099652Y-73856267D01*
X155077900Y-73860310D01*
X154973024Y-73879520D01*
X154890180Y-73894991D01*
X154826630Y-73907337D01*
X154779637Y-73917173D01*
X154746463Y-73925114D01*
X154724371Y-73931776D01*
X154710624Y-73937773D01*
X154702484Y-73943719D01*
X154701345Y-73944894D01*
X154689977Y-73963826D01*
X154672635Y-74000669D01*
X154651050Y-74050913D01*
X154626954Y-74110046D01*
X154602079Y-74173556D01*
X154578157Y-74236932D01*
X154556919Y-74295662D01*
X154540097Y-74345235D01*
X154529422Y-74381139D01*
X154526627Y-74398862D01*
X154526860Y-74399483D01*
X154536331Y-74413970D01*
X154557818Y-74445844D01*
X154589063Y-74491789D01*
X154627807Y-74548485D01*
X154671793Y-74612617D01*
X154684319Y-74630842D01*
X154728984Y-74696914D01*
X154768288Y-74757200D01*
X154800088Y-74808235D01*
X154822245Y-74846560D01*
X154832617Y-74868711D01*
X154833119Y-74871432D01*
X154824405Y-74885736D01*
X154800325Y-74914072D01*
X154763976Y-74953396D01*
X154718453Y-75000661D01*
X154666852Y-75052823D01*
X154612267Y-75106835D01*
X154557794Y-75159653D01*
X154506529Y-75208231D01*
X154461567Y-75249523D01*
X154426004Y-75280485D01*
X154402935Y-75298070D01*
X154396554Y-75300941D01*
X154381699Y-75294178D01*
X154351286Y-75275939D01*
X154310268Y-75249297D01*
X154278709Y-75227852D01*
X154221525Y-75188503D01*
X154153806Y-75142171D01*
X154085880Y-75095913D01*
X154049361Y-75071155D01*
X153925752Y-74987547D01*
X153821991Y-75043650D01*
X153774720Y-75068228D01*
X153734523Y-75087331D01*
X153707326Y-75098227D01*
X153700402Y-75099743D01*
X153692077Y-75088549D01*
X153675654Y-75056917D01*
X153652357Y-75007765D01*
X153623414Y-74944010D01*
X153590050Y-74868571D01*
X153553491Y-74784364D01*
X153514964Y-74694308D01*
X153475694Y-74601321D01*
X153436908Y-74508320D01*
X153399830Y-74418223D01*
X153365689Y-74333948D01*
X153335708Y-74258413D01*
X153311116Y-74194534D01*
X153293136Y-74145231D01*
X153282997Y-74113421D01*
X153281366Y-74102496D01*
X153294291Y-74088561D01*
X153322589Y-74065940D01*
X153360346Y-74039333D01*
X153363515Y-74037228D01*
X153461100Y-73959114D01*
X153539786Y-73867982D01*
X153598891Y-73766745D01*
X153637732Y-73658318D01*
X153655628Y-73545614D01*
X153651897Y-73431548D01*
X153625857Y-73319034D01*
X153576825Y-73210985D01*
X153562400Y-73187345D01*
X153487369Y-73091887D01*
X153398730Y-73015232D01*
X153299549Y-72957780D01*
X153192895Y-72919929D01*
X153081836Y-72902078D01*
X152969439Y-72904625D01*
X152858773Y-72927970D01*
X152752906Y-72972510D01*
X152654905Y-73038645D01*
X152624590Y-73065487D01*
X152547438Y-73149512D01*
X152491218Y-73237966D01*
X152452653Y-73337115D01*
X152431174Y-73435303D01*
X152425872Y-73545697D01*
X152443552Y-73656640D01*
X152482419Y-73764381D01*
X152540677Y-73865169D01*
X152616531Y-73955256D01*
X152708183Y-74030892D01*
X152720228Y-74038864D01*
X152758389Y-74064974D01*
X152787399Y-74087595D01*
X152801268Y-74102039D01*
X152801469Y-74102496D01*
X152798492Y-74118121D01*
X152786689Y-74153582D01*
X152767286Y-74205962D01*
X152741512Y-74272345D01*
X152710591Y-74349814D01*
X152675751Y-74435450D01*
X152638217Y-74526337D01*
X152599217Y-74619559D01*
X152559977Y-74712197D01*
X152521724Y-74801335D01*
X152485683Y-74884055D01*
X152453083Y-74957441D01*
X152425148Y-75018575D01*
X152403105Y-75064541D01*
X152388182Y-75092421D01*
X152382172Y-75099743D01*
X152363809Y-75094041D01*
X152329448Y-75078749D01*
X152285016Y-75056599D01*
X152260583Y-75043650D01*
X152156822Y-74987547D01*
X152033213Y-75071155D01*
X151970114Y-75113987D01*
X151901030Y-75161122D01*
X151836293Y-75205503D01*
X151803866Y-75227852D01*
X151758259Y-75258477D01*
X151719640Y-75282747D01*
X151693048Y-75297587D01*
X151684410Y-75300724D01*
X151671839Y-75292261D01*
X151644016Y-75268636D01*
X151603639Y-75232302D01*
X151553405Y-75185711D01*
X151496012Y-75131317D01*
X151459714Y-75096392D01*
X151396210Y-75033996D01*
X151341327Y-74978188D01*
X151297286Y-74931354D01*
X151266305Y-74895882D01*
X151250602Y-74874161D01*
X151249095Y-74869752D01*
X151256086Y-74852985D01*
X151275406Y-74819082D01*
X151304909Y-74771476D01*
X151342455Y-74713599D01*
X151385900Y-74648884D01*
X151398255Y-74630842D01*
X151443273Y-74565267D01*
X151483660Y-74506228D01*
X151517160Y-74457042D01*
X151541514Y-74421028D01*
X151554464Y-74401502D01*
X151555715Y-74399483D01*
X151553844Y-74383922D01*
X151543913Y-74349709D01*
X151527653Y-74301355D01*
X151506795Y-74243371D01*
X151483073Y-74180270D01*
X151458216Y-74116563D01*
X151433958Y-74056761D01*
X151412029Y-74005376D01*
X151394162Y-73966919D01*
X151382087Y-73945902D01*
X151381229Y-73944894D01*
X151373846Y-73938888D01*
X151361375Y-73932948D01*
X151341080Y-73926460D01*
X151310222Y-73918809D01*
X151266066Y-73909380D01*
X151205874Y-73897559D01*
X151126907Y-73882729D01*
X151026430Y-73864277D01*
X151004675Y-73860310D01*
X150940198Y-73847853D01*
X150883989Y-73835666D01*
X150841013Y-73824926D01*
X150816240Y-73816809D01*
X150812918Y-73814916D01*
X150807444Y-73798138D01*
X150802994Y-73760645D01*
X150799572Y-73706794D01*
X150797181Y-73640944D01*
X150795823Y-73567453D01*
X150795501Y-73490680D01*
X150796219Y-73414983D01*
X150797979Y-73344720D01*
X150800784Y-73284250D01*
X150804638Y-73237930D01*
X150809543Y-73210119D01*
X150812500Y-73204427D01*
X150828963Y-73198686D01*
X150866449Y-73189345D01*
X150921225Y-73177215D01*
X150989555Y-73163107D01*
X151067706Y-73147830D01*
X151110284Y-73139823D01*
X151191071Y-73124721D01*
X151263113Y-73111040D01*
X151322889Y-73099467D01*
X151366879Y-73090687D01*
X151391561Y-73085387D01*
X151395623Y-73084212D01*
X151402489Y-73070965D01*
X151417002Y-73039057D01*
X151437229Y-72993047D01*
X151461234Y-72937492D01*
X151487082Y-72876953D01*
X151512840Y-72815986D01*
X151536573Y-72759151D01*
X151556346Y-72711006D01*
X151570224Y-72676110D01*
X151576274Y-72659021D01*
X151576386Y-72658274D01*
X151569528Y-72644793D01*
X151550302Y-72613770D01*
X151520728Y-72568289D01*
X151482827Y-72511432D01*
X151438620Y-72446283D01*
X151412921Y-72408862D01*
X151366093Y-72340247D01*
X151324501Y-72277952D01*
X151290175Y-72225129D01*
X151265143Y-72184927D01*
X151251435Y-72160500D01*
X151249456Y-72155024D01*
X151257966Y-72142278D01*
X151281493Y-72115063D01*
X151317032Y-72076428D01*
X151361577Y-72029423D01*
X151412123Y-71977095D01*
X151465664Y-71922495D01*
X151519195Y-71868670D01*
X151569711Y-71818670D01*
X151614206Y-71775543D01*
X151649675Y-71742339D01*
X151673113Y-71722106D01*
X151680954Y-71717278D01*
X151693720Y-71724067D01*
X151724256Y-71743142D01*
X151769590Y-71772561D01*
X151826756Y-71810381D01*
X151892784Y-71854661D01*
X151942590Y-71888395D01*
X152194236Y-72059512D01*
X152403999Y-71973041D01*
X152613763Y-71886570D01*
X152670611Y-71585018D01*
X152727460Y-71283466D01*
X153355115Y-71283466D01*
X153411964Y-71585018D01*
X153411964Y-71585018D01*
G37*
X153411964Y-71585018D02*
X153468812Y-71886570D01*
X153888338Y-72059512D01*
X154139984Y-71888395D01*
X154210458Y-71840750D01*
X154274163Y-71798210D01*
X154328126Y-71762715D01*
X154369373Y-71736210D01*
X154394934Y-71720636D01*
X154401895Y-71717278D01*
X154414435Y-71725914D01*
X154441231Y-71749792D01*
X154479280Y-71785859D01*
X154525579Y-71831067D01*
X154577123Y-71882364D01*
X154630909Y-71936701D01*
X154683935Y-71991028D01*
X154733195Y-72042295D01*
X154775687Y-72087451D01*
X154808407Y-72123446D01*
X154828351Y-72147230D01*
X154833119Y-72155190D01*
X154826257Y-72169865D01*
X154807020Y-72202014D01*
X154777430Y-72248492D01*
X154739510Y-72306156D01*
X154695282Y-72371860D01*
X154669654Y-72409336D01*
X154622941Y-72477768D01*
X154581432Y-72539520D01*
X154547140Y-72591519D01*
X154522080Y-72630692D01*
X154508264Y-72653965D01*
X154506188Y-72658855D01*
X154510895Y-72672755D01*
X154523723Y-72705150D01*
X154542738Y-72751485D01*
X154566003Y-72807206D01*
X154591584Y-72867758D01*
X154617545Y-72928586D01*
X154641950Y-72985136D01*
X154662863Y-73032852D01*
X154678349Y-73067181D01*
X154686472Y-73083568D01*
X154686952Y-73084212D01*
X154699707Y-73087341D01*
X154733677Y-73094321D01*
X154785340Y-73104467D01*
X154851176Y-73117092D01*
X154927664Y-73131509D01*
X154972290Y-73139823D01*
X155054021Y-73155384D01*
X155127843Y-73170192D01*
X155190021Y-73183436D01*
X155236822Y-73194305D01*
X155264509Y-73201989D01*
X155270074Y-73204427D01*
X155275526Y-73220930D01*
X155279924Y-73258200D01*
X155283272Y-73311880D01*
X155285574Y-73377612D01*
X155286832Y-73451037D01*
X155287048Y-73527796D01*
X155286227Y-73603532D01*
X155284371Y-73673886D01*
X155281482Y-73734500D01*
X155277565Y-73781016D01*
X155272622Y-73809075D01*
X155269657Y-73814916D01*
X155251934Y-73821917D01*
X155214381Y-73831927D01*
X155161964Y-73843769D01*
X155099652Y-73856267D01*
X155077900Y-73860310D01*
X154973024Y-73879520D01*
X154890180Y-73894991D01*
X154826630Y-73907337D01*
X154779637Y-73917173D01*
X154746463Y-73925114D01*
X154724371Y-73931776D01*
X154710624Y-73937773D01*
X154702484Y-73943719D01*
X154701345Y-73944894D01*
X154689977Y-73963826D01*
X154672635Y-74000669D01*
X154651050Y-74050913D01*
X154626954Y-74110046D01*
X154602079Y-74173556D01*
X154578157Y-74236932D01*
X154556919Y-74295662D01*
X154540097Y-74345235D01*
X154529422Y-74381139D01*
X154526627Y-74398862D01*
X154526860Y-74399483D01*
X154536331Y-74413970D01*
X154557818Y-74445844D01*
X154589063Y-74491789D01*
X154627807Y-74548485D01*
X154671793Y-74612617D01*
X154684319Y-74630842D01*
X154728984Y-74696914D01*
X154768288Y-74757200D01*
X154800088Y-74808235D01*
X154822245Y-74846560D01*
X154832617Y-74868711D01*
X154833119Y-74871432D01*
X154824405Y-74885736D01*
X154800325Y-74914072D01*
X154763976Y-74953396D01*
X154718453Y-75000661D01*
X154666852Y-75052823D01*
X154612267Y-75106835D01*
X154557794Y-75159653D01*
X154506529Y-75208231D01*
X154461567Y-75249523D01*
X154426004Y-75280485D01*
X154402935Y-75298070D01*
X154396554Y-75300941D01*
X154381699Y-75294178D01*
X154351286Y-75275939D01*
X154310268Y-75249297D01*
X154278709Y-75227852D01*
X154221525Y-75188503D01*
X154153806Y-75142171D01*
X154085880Y-75095913D01*
X154049361Y-75071155D01*
X153925752Y-74987547D01*
X153821991Y-75043650D01*
X153774720Y-75068228D01*
X153734523Y-75087331D01*
X153707326Y-75098227D01*
X153700402Y-75099743D01*
X153692077Y-75088549D01*
X153675654Y-75056917D01*
X153652357Y-75007765D01*
X153623414Y-74944010D01*
X153590050Y-74868571D01*
X153553491Y-74784364D01*
X153514964Y-74694308D01*
X153475694Y-74601321D01*
X153436908Y-74508320D01*
X153399830Y-74418223D01*
X153365689Y-74333948D01*
X153335708Y-74258413D01*
X153311116Y-74194534D01*
X153293136Y-74145231D01*
X153282997Y-74113421D01*
X153281366Y-74102496D01*
X153294291Y-74088561D01*
X153322589Y-74065940D01*
X153360346Y-74039333D01*
X153363515Y-74037228D01*
X153461100Y-73959114D01*
X153539786Y-73867982D01*
X153598891Y-73766745D01*
X153637732Y-73658318D01*
X153655628Y-73545614D01*
X153651897Y-73431548D01*
X153625857Y-73319034D01*
X153576825Y-73210985D01*
X153562400Y-73187345D01*
X153487369Y-73091887D01*
X153398730Y-73015232D01*
X153299549Y-72957780D01*
X153192895Y-72919929D01*
X153081836Y-72902078D01*
X152969439Y-72904625D01*
X152858773Y-72927970D01*
X152752906Y-72972510D01*
X152654905Y-73038645D01*
X152624590Y-73065487D01*
X152547438Y-73149512D01*
X152491218Y-73237966D01*
X152452653Y-73337115D01*
X152431174Y-73435303D01*
X152425872Y-73545697D01*
X152443552Y-73656640D01*
X152482419Y-73764381D01*
X152540677Y-73865169D01*
X152616531Y-73955256D01*
X152708183Y-74030892D01*
X152720228Y-74038864D01*
X152758389Y-74064974D01*
X152787399Y-74087595D01*
X152801268Y-74102039D01*
X152801469Y-74102496D01*
X152798492Y-74118121D01*
X152786689Y-74153582D01*
X152767286Y-74205962D01*
X152741512Y-74272345D01*
X152710591Y-74349814D01*
X152675751Y-74435450D01*
X152638217Y-74526337D01*
X152599217Y-74619559D01*
X152559977Y-74712197D01*
X152521724Y-74801335D01*
X152485683Y-74884055D01*
X152453083Y-74957441D01*
X152425148Y-75018575D01*
X152403105Y-75064541D01*
X152388182Y-75092421D01*
X152382172Y-75099743D01*
X152363809Y-75094041D01*
X152329448Y-75078749D01*
X152285016Y-75056599D01*
X152260583Y-75043650D01*
X152156822Y-74987547D01*
X152033213Y-75071155D01*
X151970114Y-75113987D01*
X151901030Y-75161122D01*
X151836293Y-75205503D01*
X151803866Y-75227852D01*
X151758259Y-75258477D01*
X151719640Y-75282747D01*
X151693048Y-75297587D01*
X151684410Y-75300724D01*
X151671839Y-75292261D01*
X151644016Y-75268636D01*
X151603639Y-75232302D01*
X151553405Y-75185711D01*
X151496012Y-75131317D01*
X151459714Y-75096392D01*
X151396210Y-75033996D01*
X151341327Y-74978188D01*
X151297286Y-74931354D01*
X151266305Y-74895882D01*
X151250602Y-74874161D01*
X151249095Y-74869752D01*
X151256086Y-74852985D01*
X151275406Y-74819082D01*
X151304909Y-74771476D01*
X151342455Y-74713599D01*
X151385900Y-74648884D01*
X151398255Y-74630842D01*
X151443273Y-74565267D01*
X151483660Y-74506228D01*
X151517160Y-74457042D01*
X151541514Y-74421028D01*
X151554464Y-74401502D01*
X151555715Y-74399483D01*
X151553844Y-74383922D01*
X151543913Y-74349709D01*
X151527653Y-74301355D01*
X151506795Y-74243371D01*
X151483073Y-74180270D01*
X151458216Y-74116563D01*
X151433958Y-74056761D01*
X151412029Y-74005376D01*
X151394162Y-73966919D01*
X151382087Y-73945902D01*
X151381229Y-73944894D01*
X151373846Y-73938888D01*
X151361375Y-73932948D01*
X151341080Y-73926460D01*
X151310222Y-73918809D01*
X151266066Y-73909380D01*
X151205874Y-73897559D01*
X151126907Y-73882729D01*
X151026430Y-73864277D01*
X151004675Y-73860310D01*
X150940198Y-73847853D01*
X150883989Y-73835666D01*
X150841013Y-73824926D01*
X150816240Y-73816809D01*
X150812918Y-73814916D01*
X150807444Y-73798138D01*
X150802994Y-73760645D01*
X150799572Y-73706794D01*
X150797181Y-73640944D01*
X150795823Y-73567453D01*
X150795501Y-73490680D01*
X150796219Y-73414983D01*
X150797979Y-73344720D01*
X150800784Y-73284250D01*
X150804638Y-73237930D01*
X150809543Y-73210119D01*
X150812500Y-73204427D01*
X150828963Y-73198686D01*
X150866449Y-73189345D01*
X150921225Y-73177215D01*
X150989555Y-73163107D01*
X151067706Y-73147830D01*
X151110284Y-73139823D01*
X151191071Y-73124721D01*
X151263113Y-73111040D01*
X151322889Y-73099467D01*
X151366879Y-73090687D01*
X151391561Y-73085387D01*
X151395623Y-73084212D01*
X151402489Y-73070965D01*
X151417002Y-73039057D01*
X151437229Y-72993047D01*
X151461234Y-72937492D01*
X151487082Y-72876953D01*
X151512840Y-72815986D01*
X151536573Y-72759151D01*
X151556346Y-72711006D01*
X151570224Y-72676110D01*
X151576274Y-72659021D01*
X151576386Y-72658274D01*
X151569528Y-72644793D01*
X151550302Y-72613770D01*
X151520728Y-72568289D01*
X151482827Y-72511432D01*
X151438620Y-72446283D01*
X151412921Y-72408862D01*
X151366093Y-72340247D01*
X151324501Y-72277952D01*
X151290175Y-72225129D01*
X151265143Y-72184927D01*
X151251435Y-72160500D01*
X151249456Y-72155024D01*
X151257966Y-72142278D01*
X151281493Y-72115063D01*
X151317032Y-72076428D01*
X151361577Y-72029423D01*
X151412123Y-71977095D01*
X151465664Y-71922495D01*
X151519195Y-71868670D01*
X151569711Y-71818670D01*
X151614206Y-71775543D01*
X151649675Y-71742339D01*
X151673113Y-71722106D01*
X151680954Y-71717278D01*
X151693720Y-71724067D01*
X151724256Y-71743142D01*
X151769590Y-71772561D01*
X151826756Y-71810381D01*
X151892784Y-71854661D01*
X151942590Y-71888395D01*
X152194236Y-72059512D01*
X152403999Y-71973041D01*
X152613763Y-71886570D01*
X152670611Y-71585018D01*
X152727460Y-71283466D01*
X153355115Y-71283466D01*
X153411964Y-71585018D01*
G36*
X154834460Y-75753030D02*
X154877711Y-75766245D01*
X154905558Y-75782941D01*
X154914629Y-75796145D01*
X154912132Y-75811797D01*
X154895931Y-75836385D01*
X154882232Y-75853800D01*
X154853992Y-75885283D01*
X154832775Y-75898529D01*
X154814688Y-75897664D01*
X154761035Y-75884010D01*
X154721630Y-75884630D01*
X154689632Y-75900104D01*
X154678890Y-75909161D01*
X154644505Y-75941027D01*
X154644505Y-76357179D01*
X154506188Y-76357179D01*
X154506188Y-75753614D01*
X154575347Y-75753614D01*
X154616869Y-75755256D01*
X154638291Y-75761087D01*
X154644502Y-75772461D01*
X154644505Y-75772798D01*
X154647439Y-75784713D01*
X154660704Y-75783159D01*
X154679084Y-75774563D01*
X154717046Y-75758568D01*
X154747872Y-75748945D01*
X154787536Y-75746478D01*
X154834460Y-75753030D01*
X154834460Y-75753030D01*
G37*
X154834460Y-75753030D02*
X154877711Y-75766245D01*
X154905558Y-75782941D01*
X154914629Y-75796145D01*
X154912132Y-75811797D01*
X154895931Y-75836385D01*
X154882232Y-75853800D01*
X154853992Y-75885283D01*
X154832775Y-75898529D01*
X154814688Y-75897664D01*
X154761035Y-75884010D01*
X154721630Y-75884630D01*
X154689632Y-75900104D01*
X154678890Y-75909161D01*
X154644505Y-75941027D01*
X154644505Y-76357179D01*
X154506188Y-76357179D01*
X154506188Y-75753614D01*
X154575347Y-75753614D01*
X154616869Y-75755256D01*
X154638291Y-75761087D01*
X154644502Y-75772461D01*
X154644505Y-75772798D01*
X154647439Y-75784713D01*
X154660704Y-75783159D01*
X154679084Y-75774563D01*
X154717046Y-75758568D01*
X154747872Y-75748945D01*
X154787536Y-75746478D01*
X154834460Y-75753030D01*
G36*
X152280988Y-75764002D02*
X152312283Y-75778950D01*
X152342591Y-75800541D01*
X152365682Y-75825391D01*
X152382500Y-75857087D01*
X152393994Y-75899214D01*
X152401109Y-75955358D01*
X152404793Y-76029106D01*
X152405992Y-76124044D01*
X152406011Y-76133985D01*
X152406287Y-76357179D01*
X152267970Y-76357179D01*
X152267970Y-76151418D01*
X152267872Y-76075189D01*
X152267191Y-76019939D01*
X152265349Y-75981501D01*
X152261767Y-75955706D01*
X152255868Y-75938384D01*
X152247073Y-75925368D01*
X152234820Y-75912507D01*
X152191953Y-75884873D01*
X152145157Y-75879745D01*
X152100576Y-75897217D01*
X152085072Y-75910221D01*
X152073690Y-75922447D01*
X152065519Y-75935540D01*
X152060026Y-75953615D01*
X152056680Y-75980787D01*
X152054949Y-76021170D01*
X152054303Y-76078879D01*
X152054208Y-76149132D01*
X152054208Y-76357179D01*
X151915891Y-76357179D01*
X151915891Y-75753614D01*
X151985050Y-75753614D01*
X152026572Y-75755256D01*
X152047994Y-75761087D01*
X152054205Y-75772461D01*
X152054208Y-75772798D01*
X152057090Y-75783938D01*
X152069801Y-75782674D01*
X152095074Y-75770434D01*
X152152395Y-75752424D01*
X152217963Y-75750421D01*
X152280988Y-75764002D01*
X152280988Y-75764002D01*
G37*
X152280988Y-75764002D02*
X152312283Y-75778950D01*
X152342591Y-75800541D01*
X152365682Y-75825391D01*
X152382500Y-75857087D01*
X152393994Y-75899214D01*
X152401109Y-75955358D01*
X152404793Y-76029106D01*
X152405992Y-76124044D01*
X152406011Y-76133985D01*
X152406287Y-76357179D01*
X152267970Y-76357179D01*
X152267970Y-76151418D01*
X152267872Y-76075189D01*
X152267191Y-76019939D01*
X152265349Y-75981501D01*
X152261767Y-75955706D01*
X152255868Y-75938384D01*
X152247073Y-75925368D01*
X152234820Y-75912507D01*
X152191953Y-75884873D01*
X152145157Y-75879745D01*
X152100576Y-75897217D01*
X152085072Y-75910221D01*
X152073690Y-75922447D01*
X152065519Y-75935540D01*
X152060026Y-75953615D01*
X152056680Y-75980787D01*
X152054949Y-76021170D01*
X152054303Y-76078879D01*
X152054208Y-76149132D01*
X152054208Y-76357179D01*
X151915891Y-76357179D01*
X151915891Y-75753614D01*
X151985050Y-75753614D01*
X152026572Y-75755256D01*
X152047994Y-75761087D01*
X152054205Y-75772461D01*
X152054208Y-75772798D01*
X152057090Y-75783938D01*
X152069801Y-75782674D01*
X152095074Y-75770434D01*
X152152395Y-75752424D01*
X152217963Y-75750421D01*
X152280988Y-75764002D01*
G36*
X155712898Y-75751457D02*
X155745096Y-75759279D01*
X155806825Y-75787921D01*
X155859610Y-75831667D01*
X155896141Y-75884117D01*
X155901160Y-75895893D01*
X155908045Y-75926740D01*
X155912864Y-75972371D01*
X155914505Y-76018492D01*
X155914505Y-76105693D01*
X155732178Y-76105693D01*
X155656979Y-76105978D01*
X155604003Y-76107704D01*
X155570325Y-76112181D01*
X155553020Y-76120720D01*
X155549163Y-76134630D01*
X155555829Y-76155222D01*
X155567770Y-76179315D01*
X155601080Y-76219525D01*
X155647368Y-76239558D01*
X155703944Y-76238905D01*
X155768031Y-76217101D01*
X155823417Y-76190193D01*
X155869375Y-76226532D01*
X155915333Y-76262872D01*
X155872096Y-76302819D01*
X155814374Y-76340563D01*
X155743386Y-76363320D01*
X155667029Y-76369688D01*
X155593199Y-76358268D01*
X155581287Y-76354393D01*
X155516399Y-76320506D01*
X155468130Y-76269986D01*
X155435465Y-76201325D01*
X155417385Y-76113014D01*
X155417175Y-76111121D01*
X155415556Y-76014878D01*
X155422100Y-75980542D01*
X155549852Y-75980542D01*
X155561584Y-75985822D01*
X155593438Y-75989867D01*
X155640397Y-75992176D01*
X155670154Y-75992525D01*
X155725648Y-75992306D01*
X155760346Y-75990916D01*
X155778601Y-75987251D01*
X155784766Y-75980210D01*
X155783195Y-75968690D01*
X155781878Y-75964233D01*
X155759382Y-75922355D01*
X155724003Y-75888604D01*
X155692780Y-75873773D01*
X155651301Y-75874668D01*
X155609269Y-75893164D01*
X155574012Y-75923786D01*
X155552854Y-75961062D01*
X155549852Y-75980542D01*
X155422100Y-75980542D01*
X155431690Y-75930229D01*
X155463698Y-75859191D01*
X155509701Y-75803779D01*
X155567821Y-75766009D01*
X155636180Y-75747896D01*
X155712898Y-75751457D01*
X155712898Y-75751457D01*
G37*
X155712898Y-75751457D02*
X155745096Y-75759279D01*
X155806825Y-75787921D01*
X155859610Y-75831667D01*
X155896141Y-75884117D01*
X155901160Y-75895893D01*
X155908045Y-75926740D01*
X155912864Y-75972371D01*
X155914505Y-76018492D01*
X155914505Y-76105693D01*
X155732178Y-76105693D01*
X155656979Y-76105978D01*
X155604003Y-76107704D01*
X155570325Y-76112181D01*
X155553020Y-76120720D01*
X155549163Y-76134630D01*
X155555829Y-76155222D01*
X155567770Y-76179315D01*
X155601080Y-76219525D01*
X155647368Y-76239558D01*
X155703944Y-76238905D01*
X155768031Y-76217101D01*
X155823417Y-76190193D01*
X155869375Y-76226532D01*
X155915333Y-76262872D01*
X155872096Y-76302819D01*
X155814374Y-76340563D01*
X155743386Y-76363320D01*
X155667029Y-76369688D01*
X155593199Y-76358268D01*
X155581287Y-76354393D01*
X155516399Y-76320506D01*
X155468130Y-76269986D01*
X155435465Y-76201325D01*
X155417385Y-76113014D01*
X155417175Y-76111121D01*
X155415556Y-76014878D01*
X155422100Y-75980542D01*
X155549852Y-75980542D01*
X155561584Y-75985822D01*
X155593438Y-75989867D01*
X155640397Y-75992176D01*
X155670154Y-75992525D01*
X155725648Y-75992306D01*
X155760346Y-75990916D01*
X155778601Y-75987251D01*
X155784766Y-75980210D01*
X155783195Y-75968690D01*
X155781878Y-75964233D01*
X155759382Y-75922355D01*
X155724003Y-75888604D01*
X155692780Y-75873773D01*
X155651301Y-75874668D01*
X155609269Y-75893164D01*
X155574012Y-75923786D01*
X155552854Y-75961062D01*
X155549852Y-75980542D01*
X155422100Y-75980542D01*
X155431690Y-75930229D01*
X155463698Y-75859191D01*
X155509701Y-75803779D01*
X155567821Y-75766009D01*
X155636180Y-75747896D01*
X155712898Y-75751457D01*
G36*
X155252226Y-75758880D02*
X155325080Y-75789830D01*
X155348027Y-75804895D01*
X155377354Y-75828048D01*
X155395764Y-75846253D01*
X155398961Y-75852183D01*
X155389935Y-75865340D01*
X155366837Y-75887667D01*
X155348344Y-75903250D01*
X155297728Y-75943926D01*
X155257760Y-75910295D01*
X155226874Y-75888584D01*
X155196759Y-75881090D01*
X155162292Y-75882920D01*
X155107561Y-75896528D01*
X155069886Y-75924772D01*
X155046991Y-75970433D01*
X155036597Y-76036289D01*
X155036595Y-76036331D01*
X155037494Y-76109939D01*
X155051463Y-76163946D01*
X155079328Y-76200716D01*
X155098325Y-76213168D01*
X155148776Y-76228673D01*
X155202663Y-76228683D01*
X155249546Y-76213638D01*
X155260644Y-76206287D01*
X155288476Y-76187511D01*
X155310236Y-76184434D01*
X155333704Y-76198409D01*
X155359649Y-76223510D01*
X155400716Y-76265880D01*
X155355121Y-76303464D01*
X155284674Y-76345882D01*
X155205233Y-76366785D01*
X155122215Y-76365272D01*
X155067694Y-76351411D01*
X155003970Y-76317135D01*
X154953005Y-76263212D01*
X154929851Y-76225149D01*
X154911099Y-76170536D01*
X154901715Y-76101369D01*
X154901643Y-76026407D01*
X154910824Y-75954409D01*
X154929199Y-75894137D01*
X154932093Y-75887958D01*
X154974952Y-75827351D01*
X155032979Y-75783224D01*
X155101591Y-75756493D01*
X155176201Y-75748073D01*
X155252226Y-75758880D01*
X155252226Y-75758880D01*
G37*
X155252226Y-75758880D02*
X155325080Y-75789830D01*
X155348027Y-75804895D01*
X155377354Y-75828048D01*
X155395764Y-75846253D01*
X155398961Y-75852183D01*
X155389935Y-75865340D01*
X155366837Y-75887667D01*
X155348344Y-75903250D01*
X155297728Y-75943926D01*
X155257760Y-75910295D01*
X155226874Y-75888584D01*
X155196759Y-75881090D01*
X155162292Y-75882920D01*
X155107561Y-75896528D01*
X155069886Y-75924772D01*
X155046991Y-75970433D01*
X155036597Y-76036289D01*
X155036595Y-76036331D01*
X155037494Y-76109939D01*
X155051463Y-76163946D01*
X155079328Y-76200716D01*
X155098325Y-76213168D01*
X155148776Y-76228673D01*
X155202663Y-76228683D01*
X155249546Y-76213638D01*
X155260644Y-76206287D01*
X155288476Y-76187511D01*
X155310236Y-76184434D01*
X155333704Y-76198409D01*
X155359649Y-76223510D01*
X155400716Y-76265880D01*
X155355121Y-76303464D01*
X155284674Y-76345882D01*
X155205233Y-76366785D01*
X155122215Y-76365272D01*
X155067694Y-76351411D01*
X155003970Y-76317135D01*
X154953005Y-76263212D01*
X154929851Y-76225149D01*
X154911099Y-76170536D01*
X154901715Y-76101369D01*
X154901643Y-76026407D01*
X154910824Y-75954409D01*
X154929199Y-75894137D01*
X154932093Y-75887958D01*
X154974952Y-75827351D01*
X155032979Y-75783224D01*
X155101591Y-75756493D01*
X155176201Y-75748073D01*
X155252226Y-75758880D01*
G36*
X154028367Y-75949342D02*
X154029555Y-76041563D01*
X154033897Y-76111610D01*
X154042558Y-76162381D01*
X154056704Y-76196772D01*
X154077500Y-76217679D01*
X154106110Y-76228000D01*
X154141535Y-76230636D01*
X154178636Y-76227682D01*
X154206818Y-76216889D01*
X154227243Y-76195360D01*
X154241079Y-76160199D01*
X154249491Y-76108510D01*
X154253643Y-76037394D01*
X154254703Y-75949342D01*
X154254703Y-75753614D01*
X154393020Y-75753614D01*
X154393020Y-76357179D01*
X154323862Y-76357179D01*
X154282170Y-76355489D01*
X154260701Y-76349556D01*
X154254703Y-76338293D01*
X154251091Y-76328261D01*
X154236714Y-76330383D01*
X154207736Y-76344580D01*
X154141319Y-76366480D01*
X154070875Y-76364928D01*
X154003377Y-76341147D01*
X153971233Y-76322362D01*
X153946715Y-76302022D01*
X153928804Y-76276573D01*
X153916479Y-76242458D01*
X153908723Y-76196121D01*
X153904516Y-76134007D01*
X153902840Y-76052561D01*
X153902624Y-75989578D01*
X153902624Y-75753614D01*
X154028367Y-75753614D01*
X154028367Y-75949342D01*
X154028367Y-75949342D01*
G37*
X154028367Y-75949342D02*
X154029555Y-76041563D01*
X154033897Y-76111610D01*
X154042558Y-76162381D01*
X154056704Y-76196772D01*
X154077500Y-76217679D01*
X154106110Y-76228000D01*
X154141535Y-76230636D01*
X154178636Y-76227682D01*
X154206818Y-76216889D01*
X154227243Y-76195360D01*
X154241079Y-76160199D01*
X154249491Y-76108510D01*
X154253643Y-76037394D01*
X154254703Y-75949342D01*
X154254703Y-75753614D01*
X154393020Y-75753614D01*
X154393020Y-76357179D01*
X154323862Y-76357179D01*
X154282170Y-76355489D01*
X154260701Y-76349556D01*
X154254703Y-76338293D01*
X154251091Y-76328261D01*
X154236714Y-76330383D01*
X154207736Y-76344580D01*
X154141319Y-76366480D01*
X154070875Y-76364928D01*
X154003377Y-76341147D01*
X153971233Y-76322362D01*
X153946715Y-76302022D01*
X153928804Y-76276573D01*
X153916479Y-76242458D01*
X153908723Y-76196121D01*
X153904516Y-76134007D01*
X153902840Y-76052561D01*
X153902624Y-75989578D01*
X153902624Y-75753614D01*
X154028367Y-75753614D01*
X154028367Y-75949342D01*
G36*
X153645762Y-75761055D02*
X153709363Y-75795692D01*
X153759123Y-75850372D01*
X153782568Y-75894842D01*
X153792634Y-75934121D01*
X153799156Y-75990116D01*
X153801951Y-76054621D01*
X153800836Y-76119429D01*
X153795626Y-76176334D01*
X153789541Y-76206727D01*
X153769014Y-76248306D01*
X153733463Y-76292468D01*
X153690619Y-76331087D01*
X153648211Y-76356034D01*
X153647177Y-76356430D01*
X153594553Y-76367331D01*
X153532188Y-76367601D01*
X153472924Y-76357676D01*
X153450040Y-76349722D01*
X153391102Y-76316300D01*
X153348890Y-76272511D01*
X153321156Y-76214538D01*
X153305651Y-76138565D01*
X153302143Y-76098771D01*
X153302590Y-76048766D01*
X153437376Y-76048766D01*
X153441917Y-76121732D01*
X153454986Y-76177334D01*
X153475756Y-76212861D01*
X153490552Y-76223020D01*
X153528464Y-76230104D01*
X153573527Y-76228007D01*
X153612487Y-76217812D01*
X153622704Y-76212204D01*
X153649659Y-76179538D01*
X153667451Y-76129545D01*
X153675024Y-76068705D01*
X153671325Y-76003497D01*
X153663057Y-75964253D01*
X153639320Y-75918805D01*
X153601849Y-75890396D01*
X153556720Y-75880573D01*
X153510011Y-75890887D01*
X153474132Y-75916112D01*
X153455277Y-75936925D01*
X153444272Y-75957439D01*
X153439026Y-75985203D01*
X153437449Y-76027762D01*
X153437376Y-76048766D01*
X153302590Y-76048766D01*
X153303094Y-75992580D01*
X153320388Y-75905501D01*
X153354029Y-75837530D01*
X153404018Y-75788664D01*
X153470356Y-75758899D01*
X153484601Y-75755448D01*
X153570210Y-75747345D01*
X153645762Y-75761055D01*
X153645762Y-75761055D01*
G37*
X153645762Y-75761055D02*
X153709363Y-75795692D01*
X153759123Y-75850372D01*
X153782568Y-75894842D01*
X153792634Y-75934121D01*
X153799156Y-75990116D01*
X153801951Y-76054621D01*
X153800836Y-76119429D01*
X153795626Y-76176334D01*
X153789541Y-76206727D01*
X153769014Y-76248306D01*
X153733463Y-76292468D01*
X153690619Y-76331087D01*
X153648211Y-76356034D01*
X153647177Y-76356430D01*
X153594553Y-76367331D01*
X153532188Y-76367601D01*
X153472924Y-76357676D01*
X153450040Y-76349722D01*
X153391102Y-76316300D01*
X153348890Y-76272511D01*
X153321156Y-76214538D01*
X153305651Y-76138565D01*
X153302143Y-76098771D01*
X153302590Y-76048766D01*
X153437376Y-76048766D01*
X153441917Y-76121732D01*
X153454986Y-76177334D01*
X153475756Y-76212861D01*
X153490552Y-76223020D01*
X153528464Y-76230104D01*
X153573527Y-76228007D01*
X153612487Y-76217812D01*
X153622704Y-76212204D01*
X153649659Y-76179538D01*
X153667451Y-76129545D01*
X153675024Y-76068705D01*
X153671325Y-76003497D01*
X153663057Y-75964253D01*
X153639320Y-75918805D01*
X153601849Y-75890396D01*
X153556720Y-75880573D01*
X153510011Y-75890887D01*
X153474132Y-75916112D01*
X153455277Y-75936925D01*
X153444272Y-75957439D01*
X153439026Y-75985203D01*
X153437449Y-76027762D01*
X153437376Y-76048766D01*
X153302590Y-76048766D01*
X153303094Y-75992580D01*
X153320388Y-75905501D01*
X153354029Y-75837530D01*
X153404018Y-75788664D01*
X153470356Y-75758899D01*
X153484601Y-75755448D01*
X153570210Y-75747345D01*
X153645762Y-75761055D01*
G36*
X153049017Y-75751452D02*
X153096634Y-75760482D01*
X153146034Y-75779370D01*
X153151312Y-75781777D01*
X153188774Y-75801476D01*
X153214717Y-75819781D01*
X153223103Y-75831508D01*
X153215117Y-75850632D01*
X153195720Y-75878850D01*
X153187110Y-75889384D01*
X153151628Y-75930847D01*
X153105885Y-75903858D01*
X153062350Y-75885878D01*
X153012050Y-75876267D01*
X152963812Y-75875660D01*
X152926467Y-75884691D01*
X152917505Y-75890327D01*
X152900437Y-75916171D01*
X152898363Y-75945941D01*
X152911134Y-75969197D01*
X152918688Y-75973708D01*
X152941325Y-75979309D01*
X152981115Y-75985892D01*
X153030166Y-75992183D01*
X153039215Y-75993170D01*
X153117996Y-76006798D01*
X153175136Y-76029946D01*
X153213030Y-76064752D01*
X153234079Y-76113354D01*
X153240635Y-76172718D01*
X153231577Y-76240198D01*
X153202164Y-76293188D01*
X153152278Y-76331783D01*
X153081800Y-76356081D01*
X153003565Y-76365667D01*
X152939766Y-76365552D01*
X152888016Y-76356845D01*
X152852673Y-76344825D01*
X152808017Y-76323880D01*
X152766747Y-76299574D01*
X152752079Y-76288876D01*
X152714357Y-76258084D01*
X152759852Y-76212049D01*
X152805347Y-76166013D01*
X152857072Y-76200243D01*
X152908952Y-76225952D01*
X152964351Y-76239399D01*
X153017605Y-76240818D01*
X153063049Y-76230443D01*
X153095016Y-76208507D01*
X153105338Y-76189998D01*
X153103789Y-76160314D01*
X153078140Y-76137615D01*
X153028460Y-76121940D01*
X152974031Y-76114695D01*
X152890264Y-76100873D01*
X152828033Y-76074796D01*
X152786507Y-76035699D01*
X152764853Y-75982820D01*
X152761853Y-75920126D01*
X152776671Y-75854642D01*
X152810454Y-75805144D01*
X152863505Y-75771408D01*
X152936126Y-75753207D01*
X152989928Y-75749639D01*
X153049017Y-75751452D01*
X153049017Y-75751452D01*
G37*
X153049017Y-75751452D02*
X153096634Y-75760482D01*
X153146034Y-75779370D01*
X153151312Y-75781777D01*
X153188774Y-75801476D01*
X153214717Y-75819781D01*
X153223103Y-75831508D01*
X153215117Y-75850632D01*
X153195720Y-75878850D01*
X153187110Y-75889384D01*
X153151628Y-75930847D01*
X153105885Y-75903858D01*
X153062350Y-75885878D01*
X153012050Y-75876267D01*
X152963812Y-75875660D01*
X152926467Y-75884691D01*
X152917505Y-75890327D01*
X152900437Y-75916171D01*
X152898363Y-75945941D01*
X152911134Y-75969197D01*
X152918688Y-75973708D01*
X152941325Y-75979309D01*
X152981115Y-75985892D01*
X153030166Y-75992183D01*
X153039215Y-75993170D01*
X153117996Y-76006798D01*
X153175136Y-76029946D01*
X153213030Y-76064752D01*
X153234079Y-76113354D01*
X153240635Y-76172718D01*
X153231577Y-76240198D01*
X153202164Y-76293188D01*
X153152278Y-76331783D01*
X153081800Y-76356081D01*
X153003565Y-76365667D01*
X152939766Y-76365552D01*
X152888016Y-76356845D01*
X152852673Y-76344825D01*
X152808017Y-76323880D01*
X152766747Y-76299574D01*
X152752079Y-76288876D01*
X152714357Y-76258084D01*
X152759852Y-76212049D01*
X152805347Y-76166013D01*
X152857072Y-76200243D01*
X152908952Y-76225952D01*
X152964351Y-76239399D01*
X153017605Y-76240818D01*
X153063049Y-76230443D01*
X153095016Y-76208507D01*
X153105338Y-76189998D01*
X153103789Y-76160314D01*
X153078140Y-76137615D01*
X153028460Y-76121940D01*
X152974031Y-76114695D01*
X152890264Y-76100873D01*
X152828033Y-76074796D01*
X152786507Y-76035699D01*
X152764853Y-75982820D01*
X152761853Y-75920126D01*
X152776671Y-75854642D01*
X152810454Y-75805144D01*
X152863505Y-75771408D01*
X152936126Y-75753207D01*
X152989928Y-75749639D01*
X153049017Y-75751452D01*
G36*
X151678301Y-75767614D02*
X151690832Y-75773514D01*
X151734201Y-75805283D01*
X151775210Y-75851646D01*
X151805832Y-75902696D01*
X151814541Y-75926166D01*
X151822488Y-75968091D01*
X151827226Y-76018757D01*
X151827801Y-76039679D01*
X151827871Y-76105693D01*
X151447917Y-76105693D01*
X151456017Y-76140273D01*
X151475896Y-76181170D01*
X151510653Y-76216514D01*
X151552002Y-76239282D01*
X151578351Y-76244010D01*
X151614084Y-76238273D01*
X151656718Y-76223882D01*
X151671201Y-76217262D01*
X151724760Y-76190513D01*
X151770467Y-76225376D01*
X151796842Y-76248955D01*
X151810876Y-76268417D01*
X151811586Y-76274129D01*
X151799049Y-76287973D01*
X151771572Y-76309012D01*
X151746634Y-76325425D01*
X151679336Y-76354930D01*
X151603890Y-76368284D01*
X151529112Y-76364812D01*
X151469505Y-76346663D01*
X151408059Y-76307784D01*
X151364392Y-76256595D01*
X151337074Y-76190367D01*
X151324678Y-76106371D01*
X151323579Y-76067936D01*
X151327978Y-75979861D01*
X151328518Y-75977299D01*
X151454418Y-75977299D01*
X151457885Y-75985558D01*
X151472137Y-75990113D01*
X151501530Y-75992065D01*
X151550425Y-75992517D01*
X151569252Y-75992525D01*
X151626533Y-75991843D01*
X151662859Y-75989364D01*
X151682396Y-75984443D01*
X151689310Y-75976434D01*
X151689555Y-75973862D01*
X151681664Y-75953423D01*
X151661915Y-75924789D01*
X151653425Y-75914763D01*
X151621906Y-75886408D01*
X151589051Y-75875259D01*
X151571349Y-75874327D01*
X151523461Y-75885981D01*
X151483301Y-75917285D01*
X151457827Y-75962752D01*
X151457375Y-75964233D01*
X151454418Y-75977299D01*
X151328518Y-75977299D01*
X151342608Y-75910510D01*
X151368962Y-75855025D01*
X151401193Y-75815639D01*
X151460783Y-75772931D01*
X151530832Y-75750109D01*
X151605339Y-75748046D01*
X151678301Y-75767614D01*
X151678301Y-75767614D01*
G37*
X151678301Y-75767614D02*
X151690832Y-75773514D01*
X151734201Y-75805283D01*
X151775210Y-75851646D01*
X151805832Y-75902696D01*
X151814541Y-75926166D01*
X151822488Y-75968091D01*
X151827226Y-76018757D01*
X151827801Y-76039679D01*
X151827871Y-76105693D01*
X151447917Y-76105693D01*
X151456017Y-76140273D01*
X151475896Y-76181170D01*
X151510653Y-76216514D01*
X151552002Y-76239282D01*
X151578351Y-76244010D01*
X151614084Y-76238273D01*
X151656718Y-76223882D01*
X151671201Y-76217262D01*
X151724760Y-76190513D01*
X151770467Y-76225376D01*
X151796842Y-76248955D01*
X151810876Y-76268417D01*
X151811586Y-76274129D01*
X151799049Y-76287973D01*
X151771572Y-76309012D01*
X151746634Y-76325425D01*
X151679336Y-76354930D01*
X151603890Y-76368284D01*
X151529112Y-76364812D01*
X151469505Y-76346663D01*
X151408059Y-76307784D01*
X151364392Y-76256595D01*
X151337074Y-76190367D01*
X151324678Y-76106371D01*
X151323579Y-76067936D01*
X151327978Y-75979861D01*
X151328518Y-75977299D01*
X151454418Y-75977299D01*
X151457885Y-75985558D01*
X151472137Y-75990113D01*
X151501530Y-75992065D01*
X151550425Y-75992517D01*
X151569252Y-75992525D01*
X151626533Y-75991843D01*
X151662859Y-75989364D01*
X151682396Y-75984443D01*
X151689310Y-75976434D01*
X151689555Y-75973862D01*
X151681664Y-75953423D01*
X151661915Y-75924789D01*
X151653425Y-75914763D01*
X151621906Y-75886408D01*
X151589051Y-75875259D01*
X151571349Y-75874327D01*
X151523461Y-75885981D01*
X151483301Y-75917285D01*
X151457827Y-75962752D01*
X151457375Y-75964233D01*
X151454418Y-75977299D01*
X151328518Y-75977299D01*
X151342608Y-75910510D01*
X151368962Y-75855025D01*
X151401193Y-75815639D01*
X151460783Y-75772931D01*
X151530832Y-75750109D01*
X151605339Y-75748046D01*
X151678301Y-75767614D01*
G36*
X150496739Y-75760148D02*
X150562521Y-75789231D01*
X150612460Y-75837793D01*
X150646626Y-75905908D01*
X150665093Y-75993651D01*
X150666417Y-76007351D01*
X150667454Y-76103939D01*
X150654007Y-76188602D01*
X150626892Y-76257221D01*
X150612373Y-76279294D01*
X150561799Y-76326011D01*
X150497391Y-76356268D01*
X150425334Y-76368824D01*
X150351815Y-76362439D01*
X150295928Y-76342772D01*
X150247868Y-76309629D01*
X150208588Y-76266175D01*
X150207908Y-76265158D01*
X150191956Y-76238338D01*
X150181590Y-76211368D01*
X150175312Y-76177332D01*
X150171627Y-76129310D01*
X150170003Y-76089931D01*
X150169328Y-76054219D01*
X150295045Y-76054219D01*
X150296274Y-76089770D01*
X150300734Y-76137094D01*
X150308603Y-76167465D01*
X150322793Y-76189072D01*
X150336083Y-76201694D01*
X150383198Y-76228122D01*
X150432495Y-76231653D01*
X150478407Y-76212639D01*
X150501362Y-76191331D01*
X150517904Y-76169859D01*
X150527579Y-76149313D01*
X150531826Y-76122574D01*
X150532080Y-76082523D01*
X150530772Y-76045638D01*
X150527957Y-75992947D01*
X150523495Y-75958772D01*
X150515452Y-75936480D01*
X150501897Y-75919442D01*
X150491155Y-75909703D01*
X150446223Y-75884123D01*
X150397751Y-75882847D01*
X150357106Y-75897999D01*
X150322433Y-75929642D01*
X150301776Y-75981620D01*
X150295045Y-76054219D01*
X150169328Y-76054219D01*
X150168521Y-76011621D01*
X150171052Y-75953056D01*
X150178638Y-75909007D01*
X150192319Y-75874248D01*
X150213135Y-75843551D01*
X150220853Y-75834436D01*
X150269111Y-75789021D01*
X150320872Y-75762493D01*
X150384172Y-75751379D01*
X150415039Y-75750471D01*
X150496739Y-75760148D01*
X150496739Y-75760148D01*
G37*
X150496739Y-75760148D02*
X150562521Y-75789231D01*
X150612460Y-75837793D01*
X150646626Y-75905908D01*
X150665093Y-75993651D01*
X150666417Y-76007351D01*
X150667454Y-76103939D01*
X150654007Y-76188602D01*
X150626892Y-76257221D01*
X150612373Y-76279294D01*
X150561799Y-76326011D01*
X150497391Y-76356268D01*
X150425334Y-76368824D01*
X150351815Y-76362439D01*
X150295928Y-76342772D01*
X150247868Y-76309629D01*
X150208588Y-76266175D01*
X150207908Y-76265158D01*
X150191956Y-76238338D01*
X150181590Y-76211368D01*
X150175312Y-76177332D01*
X150171627Y-76129310D01*
X150170003Y-76089931D01*
X150169328Y-76054219D01*
X150295045Y-76054219D01*
X150296274Y-76089770D01*
X150300734Y-76137094D01*
X150308603Y-76167465D01*
X150322793Y-76189072D01*
X150336083Y-76201694D01*
X150383198Y-76228122D01*
X150432495Y-76231653D01*
X150478407Y-76212639D01*
X150501362Y-76191331D01*
X150517904Y-76169859D01*
X150527579Y-76149313D01*
X150531826Y-76122574D01*
X150532080Y-76082523D01*
X150530772Y-76045638D01*
X150527957Y-75992947D01*
X150523495Y-75958772D01*
X150515452Y-75936480D01*
X150501897Y-75919442D01*
X150491155Y-75909703D01*
X150446223Y-75884123D01*
X150397751Y-75882847D01*
X150357106Y-75897999D01*
X150322433Y-75929642D01*
X150301776Y-75981620D01*
X150295045Y-76054219D01*
X150169328Y-76054219D01*
X150168521Y-76011621D01*
X150171052Y-75953056D01*
X150178638Y-75909007D01*
X150192319Y-75874248D01*
X150213135Y-75843551D01*
X150220853Y-75834436D01*
X150269111Y-75789021D01*
X150320872Y-75762493D01*
X150384172Y-75751379D01*
X150415039Y-75750471D01*
X150496739Y-75760148D01*
G36*
X155067581Y-76699970D02*
X155127685Y-76715597D01*
X155178021Y-76747848D01*
X155202393Y-76771940D01*
X155242345Y-76828895D01*
X155265242Y-76894965D01*
X155273108Y-76976182D01*
X155273148Y-76982748D01*
X155273218Y-77048763D01*
X154893264Y-77048763D01*
X154901363Y-77083342D01*
X154915987Y-77114659D01*
X154941581Y-77147291D01*
X154946935Y-77152500D01*
X154992943Y-77180694D01*
X155045410Y-77185475D01*
X155105803Y-77166926D01*
X155116040Y-77161931D01*
X155147439Y-77146745D01*
X155168470Y-77138094D01*
X155172139Y-77137293D01*
X155184948Y-77145063D01*
X155209378Y-77164072D01*
X155221779Y-77174460D01*
X155247476Y-77198321D01*
X155255915Y-77214077D01*
X155250058Y-77228571D01*
X155246928Y-77232534D01*
X155225725Y-77249879D01*
X155190738Y-77270959D01*
X155166337Y-77283265D01*
X155097072Y-77304946D01*
X155020388Y-77311971D01*
X154947765Y-77303647D01*
X154927426Y-77297686D01*
X154864476Y-77263952D01*
X154817815Y-77212045D01*
X154787173Y-77141459D01*
X154772282Y-77051692D01*
X154770647Y-77004753D01*
X154775421Y-76936413D01*
X154895990Y-76936413D01*
X154907652Y-76941465D01*
X154938998Y-76945429D01*
X154984571Y-76947768D01*
X155015446Y-76948169D01*
X155070981Y-76947783D01*
X155106033Y-76945975D01*
X155125262Y-76941773D01*
X155133330Y-76934203D01*
X155134901Y-76923218D01*
X155124121Y-76889381D01*
X155096980Y-76855940D01*
X155061277Y-76830272D01*
X155025560Y-76819772D01*
X154977048Y-76829086D01*
X154935053Y-76856013D01*
X154905936Y-76894827D01*
X154895990Y-76936413D01*
X154775421Y-76936413D01*
X154777599Y-76905236D01*
X154799055Y-76825949D01*
X154835470Y-76766263D01*
X154887297Y-76725549D01*
X154954990Y-76703179D01*
X154991662Y-76698871D01*
X155067581Y-76699970D01*
X155067581Y-76699970D01*
G37*
X155067581Y-76699970D02*
X155127685Y-76715597D01*
X155178021Y-76747848D01*
X155202393Y-76771940D01*
X155242345Y-76828895D01*
X155265242Y-76894965D01*
X155273108Y-76976182D01*
X155273148Y-76982748D01*
X155273218Y-77048763D01*
X154893264Y-77048763D01*
X154901363Y-77083342D01*
X154915987Y-77114659D01*
X154941581Y-77147291D01*
X154946935Y-77152500D01*
X154992943Y-77180694D01*
X155045410Y-77185475D01*
X155105803Y-77166926D01*
X155116040Y-77161931D01*
X155147439Y-77146745D01*
X155168470Y-77138094D01*
X155172139Y-77137293D01*
X155184948Y-77145063D01*
X155209378Y-77164072D01*
X155221779Y-77174460D01*
X155247476Y-77198321D01*
X155255915Y-77214077D01*
X155250058Y-77228571D01*
X155246928Y-77232534D01*
X155225725Y-77249879D01*
X155190738Y-77270959D01*
X155166337Y-77283265D01*
X155097072Y-77304946D01*
X155020388Y-77311971D01*
X154947765Y-77303647D01*
X154927426Y-77297686D01*
X154864476Y-77263952D01*
X154817815Y-77212045D01*
X154787173Y-77141459D01*
X154772282Y-77051692D01*
X154770647Y-77004753D01*
X154775421Y-76936413D01*
X154895990Y-76936413D01*
X154907652Y-76941465D01*
X154938998Y-76945429D01*
X154984571Y-76947768D01*
X155015446Y-76948169D01*
X155070981Y-76947783D01*
X155106033Y-76945975D01*
X155125262Y-76941773D01*
X155133330Y-76934203D01*
X155134901Y-76923218D01*
X155124121Y-76889381D01*
X155096980Y-76855940D01*
X155061277Y-76830272D01*
X155025560Y-76819772D01*
X154977048Y-76829086D01*
X154935053Y-76856013D01*
X154905936Y-76894827D01*
X154895990Y-76936413D01*
X154775421Y-76936413D01*
X154777599Y-76905236D01*
X154799055Y-76825949D01*
X154835470Y-76766263D01*
X154887297Y-76725549D01*
X154954990Y-76703179D01*
X154991662Y-76698871D01*
X155067581Y-76699970D01*
G36*
X154670255Y-76696486D02*
X154718595Y-76706015D01*
X154746114Y-76720125D01*
X154775064Y-76743568D01*
X154733876Y-76795571D01*
X154708482Y-76827064D01*
X154691238Y-76842428D01*
X154674102Y-76844776D01*
X154649027Y-76837217D01*
X154637257Y-76832941D01*
X154589270Y-76826631D01*
X154545324Y-76840156D01*
X154513060Y-76870710D01*
X154507819Y-76880452D01*
X154502112Y-76906258D01*
X154497706Y-76953817D01*
X154494811Y-77019758D01*
X154493631Y-77100710D01*
X154493614Y-77112226D01*
X154493614Y-77312822D01*
X154355297Y-77312822D01*
X154355297Y-76696683D01*
X154424456Y-76696683D01*
X154464333Y-76697725D01*
X154485107Y-76702358D01*
X154492789Y-76712849D01*
X154493614Y-76722745D01*
X154493614Y-76748806D01*
X154526745Y-76722745D01*
X154564735Y-76704965D01*
X154615770Y-76696174D01*
X154670255Y-76696486D01*
X154670255Y-76696486D01*
G37*
X154670255Y-76696486D02*
X154718595Y-76706015D01*
X154746114Y-76720125D01*
X154775064Y-76743568D01*
X154733876Y-76795571D01*
X154708482Y-76827064D01*
X154691238Y-76842428D01*
X154674102Y-76844776D01*
X154649027Y-76837217D01*
X154637257Y-76832941D01*
X154589270Y-76826631D01*
X154545324Y-76840156D01*
X154513060Y-76870710D01*
X154507819Y-76880452D01*
X154502112Y-76906258D01*
X154497706Y-76953817D01*
X154494811Y-77019758D01*
X154493631Y-77100710D01*
X154493614Y-77112226D01*
X154493614Y-77312822D01*
X154355297Y-77312822D01*
X154355297Y-76696683D01*
X154424456Y-76696683D01*
X154464333Y-76697725D01*
X154485107Y-76702358D01*
X154492789Y-76712849D01*
X154493614Y-76722745D01*
X154493614Y-76748806D01*
X154526745Y-76722745D01*
X154564735Y-76704965D01*
X154615770Y-76696174D01*
X154670255Y-76696486D01*
G36*
X154073411Y-76700417D02*
X154126411Y-76713290D01*
X154141731Y-76720110D01*
X154171428Y-76737974D01*
X154194220Y-76758093D01*
X154211083Y-76783962D01*
X154222998Y-76819073D01*
X154230942Y-76866920D01*
X154235894Y-76930996D01*
X154238831Y-77014794D01*
X154239947Y-77070768D01*
X154244052Y-77312822D01*
X154173932Y-77312822D01*
X154131393Y-77311038D01*
X154109476Y-77304942D01*
X154103812Y-77294706D01*
X154100821Y-77283637D01*
X154087451Y-77285754D01*
X154069233Y-77294629D01*
X154023624Y-77308233D01*
X153965007Y-77311899D01*
X153903354Y-77305903D01*
X153848638Y-77290521D01*
X153843730Y-77288386D01*
X153793723Y-77253255D01*
X153760756Y-77204419D01*
X153745587Y-77147333D01*
X153746746Y-77126824D01*
X153870508Y-77126824D01*
X153881413Y-77154425D01*
X153913745Y-77174204D01*
X153965910Y-77184819D01*
X153993787Y-77186228D01*
X154040247Y-77182620D01*
X154071129Y-77168597D01*
X154078664Y-77161931D01*
X154099076Y-77125666D01*
X154103812Y-77092773D01*
X154103812Y-77048763D01*
X154042513Y-77048763D01*
X153971256Y-77052395D01*
X153921276Y-77063818D01*
X153889696Y-77083824D01*
X153882626Y-77092743D01*
X153870508Y-77126824D01*
X153746746Y-77126824D01*
X153748971Y-77087456D01*
X153771663Y-77030244D01*
X153802624Y-76991580D01*
X153821376Y-76974864D01*
X153839733Y-76963878D01*
X153863619Y-76957180D01*
X153898957Y-76953326D01*
X153951669Y-76950873D01*
X153972577Y-76950168D01*
X154103812Y-76945879D01*
X154103620Y-76906158D01*
X154098537Y-76864405D01*
X154080162Y-76839158D01*
X154043039Y-76823030D01*
X154042043Y-76822742D01*
X153989410Y-76816400D01*
X153937906Y-76824684D01*
X153899630Y-76844827D01*
X153884272Y-76854773D01*
X153867730Y-76853397D01*
X153842275Y-76838987D01*
X153827328Y-76828817D01*
X153798091Y-76807088D01*
X153779980Y-76790800D01*
X153777074Y-76786137D01*
X153789040Y-76762005D01*
X153824396Y-76733185D01*
X153839753Y-76723461D01*
X153883901Y-76706714D01*
X153943398Y-76697227D01*
X154009487Y-76695095D01*
X154073411Y-76700417D01*
X154073411Y-76700417D01*
G37*
X154073411Y-76700417D02*
X154126411Y-76713290D01*
X154141731Y-76720110D01*
X154171428Y-76737974D01*
X154194220Y-76758093D01*
X154211083Y-76783962D01*
X154222998Y-76819073D01*
X154230942Y-76866920D01*
X154235894Y-76930996D01*
X154238831Y-77014794D01*
X154239947Y-77070768D01*
X154244052Y-77312822D01*
X154173932Y-77312822D01*
X154131393Y-77311038D01*
X154109476Y-77304942D01*
X154103812Y-77294706D01*
X154100821Y-77283637D01*
X154087451Y-77285754D01*
X154069233Y-77294629D01*
X154023624Y-77308233D01*
X153965007Y-77311899D01*
X153903354Y-77305903D01*
X153848638Y-77290521D01*
X153843730Y-77288386D01*
X153793723Y-77253255D01*
X153760756Y-77204419D01*
X153745587Y-77147333D01*
X153746746Y-77126824D01*
X153870508Y-77126824D01*
X153881413Y-77154425D01*
X153913745Y-77174204D01*
X153965910Y-77184819D01*
X153993787Y-77186228D01*
X154040247Y-77182620D01*
X154071129Y-77168597D01*
X154078664Y-77161931D01*
X154099076Y-77125666D01*
X154103812Y-77092773D01*
X154103812Y-77048763D01*
X154042513Y-77048763D01*
X153971256Y-77052395D01*
X153921276Y-77063818D01*
X153889696Y-77083824D01*
X153882626Y-77092743D01*
X153870508Y-77126824D01*
X153746746Y-77126824D01*
X153748971Y-77087456D01*
X153771663Y-77030244D01*
X153802624Y-76991580D01*
X153821376Y-76974864D01*
X153839733Y-76963878D01*
X153863619Y-76957180D01*
X153898957Y-76953326D01*
X153951669Y-76950873D01*
X153972577Y-76950168D01*
X154103812Y-76945879D01*
X154103620Y-76906158D01*
X154098537Y-76864405D01*
X154080162Y-76839158D01*
X154043039Y-76823030D01*
X154042043Y-76822742D01*
X153989410Y-76816400D01*
X153937906Y-76824684D01*
X153899630Y-76844827D01*
X153884272Y-76854773D01*
X153867730Y-76853397D01*
X153842275Y-76838987D01*
X153827328Y-76828817D01*
X153798091Y-76807088D01*
X153779980Y-76790800D01*
X153777074Y-76786137D01*
X153789040Y-76762005D01*
X153824396Y-76733185D01*
X153839753Y-76723461D01*
X153883901Y-76706714D01*
X153943398Y-76697227D01*
X154009487Y-76695095D01*
X154073411Y-76700417D01*
G36*
X153316524Y-76699237D02*
X153366255Y-76702971D01*
X153496291Y-77092773D01*
X153516678Y-77023614D01*
X153528946Y-76980874D01*
X153545085Y-76923115D01*
X153562512Y-76859625D01*
X153571726Y-76825570D01*
X153606388Y-76696683D01*
X153749391Y-76696683D01*
X153706646Y-76831857D01*
X153685596Y-76898342D01*
X153660167Y-76978539D01*
X153633610Y-77062193D01*
X153609902Y-77136782D01*
X153555902Y-77306535D01*
X153497598Y-77310328D01*
X153439295Y-77314122D01*
X153407679Y-77209734D01*
X153388182Y-77144889D01*
X153366904Y-77073400D01*
X153348308Y-77010263D01*
X153347574Y-77007750D01*
X153333684Y-76964969D01*
X153321429Y-76935779D01*
X153312846Y-76924741D01*
X153311082Y-76926018D01*
X153304891Y-76943130D01*
X153293128Y-76979787D01*
X153277225Y-77031378D01*
X153258614Y-77093294D01*
X153248543Y-77127352D01*
X153194007Y-77312822D01*
X153078264Y-77312822D01*
X152985737Y-77020471D01*
X152959744Y-76938462D01*
X152936066Y-76863987D01*
X152915820Y-76800544D01*
X152900126Y-76751632D01*
X152890102Y-76720749D01*
X152887055Y-76711726D01*
X152889467Y-76702487D01*
X152908408Y-76698441D01*
X152947823Y-76698846D01*
X152953993Y-76699152D01*
X153027086Y-76702971D01*
X153074957Y-76879010D01*
X153092553Y-76943211D01*
X153108277Y-76999649D01*
X153120746Y-77043422D01*
X153128574Y-77069630D01*
X153130020Y-77073903D01*
X153136014Y-77068990D01*
X153148101Y-77043532D01*
X153164893Y-77000997D01*
X153185003Y-76944850D01*
X153202003Y-76894130D01*
X153266794Y-76695504D01*
X153316524Y-76699237D01*
X153316524Y-76699237D01*
G37*
X153316524Y-76699237D02*
X153366255Y-76702971D01*
X153496291Y-77092773D01*
X153516678Y-77023614D01*
X153528946Y-76980874D01*
X153545085Y-76923115D01*
X153562512Y-76859625D01*
X153571726Y-76825570D01*
X153606388Y-76696683D01*
X153749391Y-76696683D01*
X153706646Y-76831857D01*
X153685596Y-76898342D01*
X153660167Y-76978539D01*
X153633610Y-77062193D01*
X153609902Y-77136782D01*
X153555902Y-77306535D01*
X153497598Y-77310328D01*
X153439295Y-77314122D01*
X153407679Y-77209734D01*
X153388182Y-77144889D01*
X153366904Y-77073400D01*
X153348308Y-77010263D01*
X153347574Y-77007750D01*
X153333684Y-76964969D01*
X153321429Y-76935779D01*
X153312846Y-76924741D01*
X153311082Y-76926018D01*
X153304891Y-76943130D01*
X153293128Y-76979787D01*
X153277225Y-77031378D01*
X153258614Y-77093294D01*
X153248543Y-77127352D01*
X153194007Y-77312822D01*
X153078264Y-77312822D01*
X152985737Y-77020471D01*
X152959744Y-76938462D01*
X152936066Y-76863987D01*
X152915820Y-76800544D01*
X152900126Y-76751632D01*
X152890102Y-76720749D01*
X152887055Y-76711726D01*
X152889467Y-76702487D01*
X152908408Y-76698441D01*
X152947823Y-76698846D01*
X152953993Y-76699152D01*
X153027086Y-76702971D01*
X153074957Y-76879010D01*
X153092553Y-76943211D01*
X153108277Y-76999649D01*
X153120746Y-77043422D01*
X153128574Y-77069630D01*
X153130020Y-77073903D01*
X153136014Y-77068990D01*
X153148101Y-77043532D01*
X153164893Y-77000997D01*
X153185003Y-76944850D01*
X153202003Y-76894130D01*
X153266794Y-76695504D01*
X153316524Y-76699237D01*
G36*
X152833812Y-77312822D02*
X152764654Y-77312822D01*
X152724512Y-77311645D01*
X152703606Y-77306772D01*
X152696078Y-77296186D01*
X152695495Y-77289029D01*
X152694226Y-77274676D01*
X152686221Y-77271923D01*
X152665185Y-77280771D01*
X152648827Y-77289029D01*
X152586023Y-77308597D01*
X152517752Y-77309729D01*
X152462248Y-77295135D01*
X152410562Y-77259877D01*
X152371162Y-77207835D01*
X152349587Y-77146450D01*
X152349038Y-77143018D01*
X152345833Y-77105571D01*
X152344239Y-77051813D01*
X152344367Y-77011155D01*
X152481721Y-77011155D01*
X152484903Y-77065194D01*
X152492141Y-77109735D01*
X152501940Y-77134888D01*
X152539011Y-77169260D01*
X152583026Y-77181582D01*
X152628416Y-77171618D01*
X152667203Y-77141895D01*
X152681892Y-77121905D01*
X152690481Y-77098050D01*
X152694504Y-77063230D01*
X152695495Y-77010930D01*
X152693722Y-76959139D01*
X152689037Y-76913634D01*
X152682397Y-76883181D01*
X152681290Y-76880452D01*
X152654509Y-76848000D01*
X152615421Y-76830183D01*
X152571685Y-76827306D01*
X152530962Y-76839674D01*
X152500913Y-76867593D01*
X152497796Y-76873148D01*
X152488039Y-76907022D01*
X152482723Y-76955728D01*
X152481721Y-77011155D01*
X152344367Y-77011155D01*
X152344432Y-76990540D01*
X152345336Y-76957563D01*
X152351486Y-76875981D01*
X152364267Y-76814730D01*
X152385529Y-76769449D01*
X152417122Y-76735779D01*
X152447793Y-76716014D01*
X152490646Y-76702120D01*
X152543944Y-76697354D01*
X152598520Y-76701236D01*
X152645208Y-76713282D01*
X152669876Y-76727693D01*
X152695495Y-76750878D01*
X152695495Y-76457773D01*
X152833812Y-76457773D01*
X152833812Y-77312822D01*
X152833812Y-77312822D01*
G37*
X152833812Y-77312822D02*
X152764654Y-77312822D01*
X152724512Y-77311645D01*
X152703606Y-77306772D01*
X152696078Y-77296186D01*
X152695495Y-77289029D01*
X152694226Y-77274676D01*
X152686221Y-77271923D01*
X152665185Y-77280771D01*
X152648827Y-77289029D01*
X152586023Y-77308597D01*
X152517752Y-77309729D01*
X152462248Y-77295135D01*
X152410562Y-77259877D01*
X152371162Y-77207835D01*
X152349587Y-77146450D01*
X152349038Y-77143018D01*
X152345833Y-77105571D01*
X152344239Y-77051813D01*
X152344367Y-77011155D01*
X152481721Y-77011155D01*
X152484903Y-77065194D01*
X152492141Y-77109735D01*
X152501940Y-77134888D01*
X152539011Y-77169260D01*
X152583026Y-77181582D01*
X152628416Y-77171618D01*
X152667203Y-77141895D01*
X152681892Y-77121905D01*
X152690481Y-77098050D01*
X152694504Y-77063230D01*
X152695495Y-77010930D01*
X152693722Y-76959139D01*
X152689037Y-76913634D01*
X152682397Y-76883181D01*
X152681290Y-76880452D01*
X152654509Y-76848000D01*
X152615421Y-76830183D01*
X152571685Y-76827306D01*
X152530962Y-76839674D01*
X152500913Y-76867593D01*
X152497796Y-76873148D01*
X152488039Y-76907022D01*
X152482723Y-76955728D01*
X152481721Y-77011155D01*
X152344367Y-77011155D01*
X152344432Y-76990540D01*
X152345336Y-76957563D01*
X152351486Y-76875981D01*
X152364267Y-76814730D01*
X152385529Y-76769449D01*
X152417122Y-76735779D01*
X152447793Y-76716014D01*
X152490646Y-76702120D01*
X152543944Y-76697354D01*
X152598520Y-76701236D01*
X152645208Y-76713282D01*
X152669876Y-76727693D01*
X152695495Y-76750878D01*
X152695495Y-76457773D01*
X152833812Y-76457773D01*
X152833812Y-77312822D01*
G36*
X152041644Y-76698020D02*
X152060461Y-76703660D01*
X152066527Y-76716053D01*
X152066782Y-76721647D01*
X152067871Y-76737230D01*
X152075368Y-76739676D01*
X152095619Y-76728993D01*
X152107649Y-76721694D01*
X152145600Y-76706063D01*
X152190928Y-76698334D01*
X152238456Y-76697740D01*
X152283005Y-76703513D01*
X152319398Y-76714884D01*
X152342457Y-76731088D01*
X152347004Y-76751355D01*
X152344709Y-76756843D01*
X152327980Y-76779626D01*
X152302037Y-76807647D01*
X152297345Y-76812177D01*
X152272617Y-76833005D01*
X152251282Y-76839735D01*
X152221445Y-76835038D01*
X152209492Y-76831917D01*
X152172295Y-76824421D01*
X152146141Y-76827792D01*
X152124054Y-76839681D01*
X152103822Y-76855635D01*
X152088921Y-76875700D01*
X152078566Y-76903702D01*
X152071971Y-76943467D01*
X152068351Y-76998823D01*
X152066922Y-77073594D01*
X152066782Y-77118740D01*
X152066782Y-77312822D01*
X151941040Y-77312822D01*
X151941040Y-76696683D01*
X152003911Y-76696683D01*
X152041644Y-76698020D01*
X152041644Y-76698020D01*
G37*
X152041644Y-76698020D02*
X152060461Y-76703660D01*
X152066527Y-76716053D01*
X152066782Y-76721647D01*
X152067871Y-76737230D01*
X152075368Y-76739676D01*
X152095619Y-76728993D01*
X152107649Y-76721694D01*
X152145600Y-76706063D01*
X152190928Y-76698334D01*
X152238456Y-76697740D01*
X152283005Y-76703513D01*
X152319398Y-76714884D01*
X152342457Y-76731088D01*
X152347004Y-76751355D01*
X152344709Y-76756843D01*
X152327980Y-76779626D01*
X152302037Y-76807647D01*
X152297345Y-76812177D01*
X152272617Y-76833005D01*
X152251282Y-76839735D01*
X152221445Y-76835038D01*
X152209492Y-76831917D01*
X152172295Y-76824421D01*
X152146141Y-76827792D01*
X152124054Y-76839681D01*
X152103822Y-76855635D01*
X152088921Y-76875700D01*
X152078566Y-76903702D01*
X152071971Y-76943467D01*
X152068351Y-76998823D01*
X152066922Y-77073594D01*
X152066782Y-77118740D01*
X152066782Y-77312822D01*
X151941040Y-77312822D01*
X151941040Y-76696683D01*
X152003911Y-76696683D01*
X152041644Y-76698020D01*
G36*
X151650790Y-76701555D02*
X151709945Y-76717339D01*
X151754977Y-76745948D01*
X151786754Y-76783419D01*
X151796634Y-76799411D01*
X151803927Y-76816163D01*
X151809026Y-76837592D01*
X151812321Y-76867616D01*
X151814203Y-76910154D01*
X151815063Y-76969122D01*
X151815293Y-77048440D01*
X151815297Y-77069484D01*
X151815297Y-77312822D01*
X151754941Y-77312822D01*
X151716443Y-77310126D01*
X151687977Y-77303295D01*
X151680845Y-77299083D01*
X151661348Y-77291813D01*
X151641434Y-77299083D01*
X151608647Y-77308160D01*
X151561022Y-77311813D01*
X151508236Y-77310228D01*
X151459964Y-77303589D01*
X151431782Y-77295072D01*
X151377247Y-77260063D01*
X151343165Y-77211479D01*
X151327843Y-77146882D01*
X151327701Y-77145223D01*
X151329045Y-77116566D01*
X151450644Y-77116566D01*
X151461274Y-77149161D01*
X151478590Y-77167505D01*
X151513348Y-77181379D01*
X151559227Y-77186917D01*
X151606012Y-77184191D01*
X151643486Y-77173274D01*
X151653985Y-77166269D01*
X151672332Y-77133904D01*
X151676980Y-77097111D01*
X151676980Y-77048763D01*
X151607418Y-77048763D01*
X151541333Y-77053850D01*
X151491236Y-77068263D01*
X151460071Y-77090729D01*
X151450644Y-77116566D01*
X151329045Y-77116566D01*
X151331013Y-77074647D01*
X151354290Y-77018845D01*
X151398052Y-76976647D01*
X151404101Y-76972808D01*
X151430093Y-76960309D01*
X151462265Y-76952740D01*
X151507240Y-76949061D01*
X151560669Y-76948216D01*
X151676980Y-76948169D01*
X151676980Y-76899411D01*
X151672047Y-76861581D01*
X151659457Y-76836236D01*
X151657983Y-76834887D01*
X151629966Y-76823800D01*
X151587674Y-76819503D01*
X151540936Y-76821615D01*
X151499582Y-76829756D01*
X151475043Y-76841965D01*
X151461747Y-76851746D01*
X151447706Y-76853613D01*
X151428329Y-76845600D01*
X151399024Y-76825739D01*
X151355197Y-76792063D01*
X151351175Y-76788909D01*
X151353236Y-76777236D01*
X151370432Y-76757822D01*
X151396567Y-76736248D01*
X151425448Y-76718096D01*
X151434522Y-76713809D01*
X151467620Y-76705256D01*
X151516120Y-76699155D01*
X151570305Y-76696708D01*
X151572839Y-76696703D01*
X151650790Y-76701555D01*
X151650790Y-76701555D01*
G37*
X151650790Y-76701555D02*
X151709945Y-76717339D01*
X151754977Y-76745948D01*
X151786754Y-76783419D01*
X151796634Y-76799411D01*
X151803927Y-76816163D01*
X151809026Y-76837592D01*
X151812321Y-76867616D01*
X151814203Y-76910154D01*
X151815063Y-76969122D01*
X151815293Y-77048440D01*
X151815297Y-77069484D01*
X151815297Y-77312822D01*
X151754941Y-77312822D01*
X151716443Y-77310126D01*
X151687977Y-77303295D01*
X151680845Y-77299083D01*
X151661348Y-77291813D01*
X151641434Y-77299083D01*
X151608647Y-77308160D01*
X151561022Y-77311813D01*
X151508236Y-77310228D01*
X151459964Y-77303589D01*
X151431782Y-77295072D01*
X151377247Y-77260063D01*
X151343165Y-77211479D01*
X151327843Y-77146882D01*
X151327701Y-77145223D01*
X151329045Y-77116566D01*
X151450644Y-77116566D01*
X151461274Y-77149161D01*
X151478590Y-77167505D01*
X151513348Y-77181379D01*
X151559227Y-77186917D01*
X151606012Y-77184191D01*
X151643486Y-77173274D01*
X151653985Y-77166269D01*
X151672332Y-77133904D01*
X151676980Y-77097111D01*
X151676980Y-77048763D01*
X151607418Y-77048763D01*
X151541333Y-77053850D01*
X151491236Y-77068263D01*
X151460071Y-77090729D01*
X151450644Y-77116566D01*
X151329045Y-77116566D01*
X151331013Y-77074647D01*
X151354290Y-77018845D01*
X151398052Y-76976647D01*
X151404101Y-76972808D01*
X151430093Y-76960309D01*
X151462265Y-76952740D01*
X151507240Y-76949061D01*
X151560669Y-76948216D01*
X151676980Y-76948169D01*
X151676980Y-76899411D01*
X151672047Y-76861581D01*
X151659457Y-76836236D01*
X151657983Y-76834887D01*
X151629966Y-76823800D01*
X151587674Y-76819503D01*
X151540936Y-76821615D01*
X151499582Y-76829756D01*
X151475043Y-76841965D01*
X151461747Y-76851746D01*
X151447706Y-76853613D01*
X151428329Y-76845600D01*
X151399024Y-76825739D01*
X151355197Y-76792063D01*
X151351175Y-76788909D01*
X151353236Y-76777236D01*
X151370432Y-76757822D01*
X151396567Y-76736248D01*
X151425448Y-76718096D01*
X151434522Y-76713809D01*
X151467620Y-76705256D01*
X151516120Y-76699155D01*
X151570305Y-76696708D01*
X151572839Y-76696703D01*
X151650790Y-76701555D01*
G36*
X151126241Y-75764184D02*
X151152753Y-75777282D01*
X151185447Y-75800106D01*
X151209275Y-75824996D01*
X151225594Y-75856249D01*
X151235760Y-75898166D01*
X151241128Y-75955044D01*
X151243056Y-76031184D01*
X151243169Y-76063917D01*
X151242839Y-76135656D01*
X151241473Y-76186927D01*
X151238500Y-76222404D01*
X151233351Y-76246763D01*
X151225457Y-76264680D01*
X151217243Y-76276902D01*
X151164813Y-76328905D01*
X151103070Y-76360184D01*
X151036464Y-76369592D01*
X150969442Y-76355980D01*
X150948208Y-76346354D01*
X150897376Y-76319859D01*
X150897376Y-76735052D01*
X150934475Y-76715868D01*
X150983357Y-76701025D01*
X151043439Y-76697222D01*
X151103436Y-76704243D01*
X151148744Y-76720013D01*
X151186325Y-76750047D01*
X151218436Y-76793024D01*
X151220850Y-76797436D01*
X151231033Y-76818221D01*
X151238470Y-76839170D01*
X151243589Y-76864548D01*
X151246819Y-76898618D01*
X151248587Y-76945641D01*
X151249323Y-77009882D01*
X151249456Y-77082176D01*
X151249456Y-77312822D01*
X151111139Y-77312822D01*
X151111139Y-76887533D01*
X151072451Y-76854979D01*
X151032262Y-76828940D01*
X150994203Y-76824205D01*
X150955934Y-76836389D01*
X150935538Y-76848320D01*
X150920358Y-76865313D01*
X150909562Y-76890995D01*
X150902317Y-76928991D01*
X150897792Y-76982926D01*
X150895156Y-77056425D01*
X150894228Y-77105347D01*
X150891089Y-77306535D01*
X150825074Y-77310336D01*
X150759060Y-77314136D01*
X150759060Y-76065650D01*
X150897376Y-76065650D01*
X150900903Y-76135254D01*
X150912785Y-76183569D01*
X150934980Y-76213631D01*
X150969441Y-76228471D01*
X151004258Y-76231436D01*
X151043671Y-76228028D01*
X151069829Y-76214617D01*
X151086186Y-76196896D01*
X151099063Y-76177835D01*
X151106728Y-76156601D01*
X151110139Y-76126849D01*
X151110251Y-76082236D01*
X151109103Y-76044880D01*
X151106468Y-75988604D01*
X151102544Y-75951658D01*
X151095937Y-75928223D01*
X151085251Y-75912480D01*
X151075167Y-75903380D01*
X151033030Y-75883537D01*
X150983160Y-75880332D01*
X150954524Y-75887168D01*
X150926172Y-75911464D01*
X150907391Y-75958728D01*
X150898288Y-76028624D01*
X150897376Y-76065650D01*
X150759060Y-76065650D01*
X150759060Y-75753614D01*
X150828218Y-75753614D01*
X150869740Y-75755256D01*
X150891162Y-75761087D01*
X150897374Y-75772461D01*
X150897376Y-75772798D01*
X150900258Y-75783938D01*
X150912970Y-75782673D01*
X150938243Y-75770433D01*
X150997131Y-75751707D01*
X151063385Y-75749739D01*
X151126241Y-75764184D01*
X151126241Y-75764184D01*
G37*
X151126241Y-75764184D02*
X151152753Y-75777282D01*
X151185447Y-75800106D01*
X151209275Y-75824996D01*
X151225594Y-75856249D01*
X151235760Y-75898166D01*
X151241128Y-75955044D01*
X151243056Y-76031184D01*
X151243169Y-76063917D01*
X151242839Y-76135656D01*
X151241473Y-76186927D01*
X151238500Y-76222404D01*
X151233351Y-76246763D01*
X151225457Y-76264680D01*
X151217243Y-76276902D01*
X151164813Y-76328905D01*
X151103070Y-76360184D01*
X151036464Y-76369592D01*
X150969442Y-76355980D01*
X150948208Y-76346354D01*
X150897376Y-76319859D01*
X150897376Y-76735052D01*
X150934475Y-76715868D01*
X150983357Y-76701025D01*
X151043439Y-76697222D01*
X151103436Y-76704243D01*
X151148744Y-76720013D01*
X151186325Y-76750047D01*
X151218436Y-76793024D01*
X151220850Y-76797436D01*
X151231033Y-76818221D01*
X151238470Y-76839170D01*
X151243589Y-76864548D01*
X151246819Y-76898618D01*
X151248587Y-76945641D01*
X151249323Y-77009882D01*
X151249456Y-77082176D01*
X151249456Y-77312822D01*
X151111139Y-77312822D01*
X151111139Y-76887533D01*
X151072451Y-76854979D01*
X151032262Y-76828940D01*
X150994203Y-76824205D01*
X150955934Y-76836389D01*
X150935538Y-76848320D01*
X150920358Y-76865313D01*
X150909562Y-76890995D01*
X150902317Y-76928991D01*
X150897792Y-76982926D01*
X150895156Y-77056425D01*
X150894228Y-77105347D01*
X150891089Y-77306535D01*
X150825074Y-77310336D01*
X150759060Y-77314136D01*
X150759060Y-76065650D01*
X150897376Y-76065650D01*
X150900903Y-76135254D01*
X150912785Y-76183569D01*
X150934980Y-76213631D01*
X150969441Y-76228471D01*
X151004258Y-76231436D01*
X151043671Y-76228028D01*
X151069829Y-76214617D01*
X151086186Y-76196896D01*
X151099063Y-76177835D01*
X151106728Y-76156601D01*
X151110139Y-76126849D01*
X151110251Y-76082236D01*
X151109103Y-76044880D01*
X151106468Y-75988604D01*
X151102544Y-75951658D01*
X151095937Y-75928223D01*
X151085251Y-75912480D01*
X151075167Y-75903380D01*
X151033030Y-75883537D01*
X150983160Y-75880332D01*
X150954524Y-75887168D01*
X150926172Y-75911464D01*
X150907391Y-75958728D01*
X150898288Y-76028624D01*
X150897376Y-76065650D01*
X150759060Y-76065650D01*
X150759060Y-75753614D01*
X150828218Y-75753614D01*
X150869740Y-75755256D01*
X150891162Y-75761087D01*
X150897374Y-75772461D01*
X150897376Y-75772798D01*
X150900258Y-75783938D01*
X150912970Y-75782673D01*
X150938243Y-75770433D01*
X150997131Y-75751707D01*
X151063385Y-75749739D01*
X151126241Y-75764184D01*
D15*
%TO.C,U1*%
X169902000Y-91289000D02*
X169902000Y-91514000D01*
X173252000Y-91289000D02*
X173252000Y-91589000D01*
X173252000Y-94639000D02*
X173252000Y-94339000D01*
X169902000Y-94639000D02*
X169902000Y-94339000D01*
X169902000Y-91289000D02*
X173252000Y-91289000D01*
X169902000Y-94639000D02*
X173252000Y-94639000D01*
X169902000Y-91514000D02*
X168677000Y-91514000D01*
D16*
%TO.C,U10*%
X178554380Y-79308960D02*
X168155620Y-79308960D01*
X168155620Y-79308960D02*
X168155620Y-71511160D01*
X168155620Y-71511160D02*
X170555920Y-70210680D01*
X170555920Y-70210680D02*
X176154080Y-70210680D01*
X176154080Y-70210680D02*
X178554380Y-71511160D01*
X178554380Y-71511160D02*
X178554380Y-79308960D01*
D17*
%TO.C,C1*%
X177257000Y-94519000D02*
X177257000Y-95219000D01*
X176057000Y-95219000D02*
X176057000Y-94519000D01*
%TO.C,R2*%
X161462000Y-93099000D02*
X161462000Y-94099000D01*
X160102000Y-94099000D02*
X160102000Y-93099000D01*
%TO.C,R7*%
X148582000Y-93644000D02*
X147582000Y-93644000D01*
X147582000Y-92284000D02*
X148582000Y-92284000D01*
%TO.C,R8*%
X157181000Y-92702000D02*
X157181000Y-91702000D01*
X158541000Y-91702000D02*
X158541000Y-92702000D01*
%TO.C,Ro1*%
X176194000Y-90432000D02*
X176194000Y-91432000D01*
X174834000Y-91432000D02*
X174834000Y-90432000D01*
%TO.C,Rsns1*%
X168357000Y-89654000D02*
X168357000Y-88654000D01*
X169717000Y-88654000D02*
X169717000Y-89654000D01*
%TO.C,C2*%
X165647000Y-89924000D02*
X165647000Y-90924000D01*
X167347000Y-90924000D02*
X167347000Y-89924000D01*
%TO.C,C3*%
X146724000Y-88908000D02*
X146724000Y-89908000D01*
X148424000Y-89908000D02*
X148424000Y-88908000D01*
%TO.C,R1*%
X161852000Y-88789000D02*
X161852000Y-90789000D01*
X159712000Y-90789000D02*
X159712000Y-88789000D01*
%TO.C,R3*%
X155337000Y-88211000D02*
X157337000Y-88211000D01*
X157337000Y-90351000D02*
X155337000Y-90351000D01*
%TO.C,R9*%
X180959000Y-96574000D02*
X178959000Y-96574000D01*
X178959000Y-94434000D02*
X180959000Y-94434000D01*
%TO.C,R10*%
X172101000Y-95704000D02*
X174101000Y-95704000D01*
X174101000Y-97844000D02*
X172101000Y-97844000D01*
%TO.C,R11*%
X178959000Y-91640000D02*
X180959000Y-91640000D01*
X180959000Y-93780000D02*
X178959000Y-93780000D01*
%TO.C,R12*%
X152130000Y-89462000D02*
X150130000Y-89462000D01*
X150130000Y-87322000D02*
X152130000Y-87322000D01*
%TO.C,Rin1*%
X165027000Y-88789000D02*
X165027000Y-90789000D01*
X162887000Y-90789000D02*
X162887000Y-88789000D01*
D15*
%TO.C,P1VBAT1*%
X144905000Y-86620000D02*
X138305000Y-86620000D01*
X138305000Y-86620000D02*
X138305000Y-81020000D01*
X138305000Y-81020000D02*
X144905000Y-81020000D01*
X144905000Y-81020000D02*
X144905000Y-86620000D01*
%TO.C,P2VBAT1*%
X190498000Y-86862000D02*
X190498000Y-92462000D01*
X183898000Y-86862000D02*
X190498000Y-86862000D01*
X183898000Y-92462000D02*
X183898000Y-86862000D01*
X190498000Y-92462000D02*
X183898000Y-92462000D01*
%TO.C,RV1*%
X167040000Y-80540000D02*
X145540000Y-80540000D01*
X167040000Y-86840000D02*
X145540000Y-86840000D01*
X145540000Y-86840000D02*
X145540000Y-80540000D01*
X167040000Y-86840000D02*
X167040000Y-80540000D01*
D16*
%TO.C,U11*%
X189984380Y-71511160D02*
X189984380Y-79308960D01*
X187584080Y-70210680D02*
X189984380Y-71511160D01*
X181985920Y-70210680D02*
X187584080Y-70210680D01*
X179585620Y-71511160D02*
X181985920Y-70210680D01*
X179585620Y-79308960D02*
X179585620Y-71511160D01*
X189984380Y-79308960D02*
X179585620Y-79308960D01*
D17*
%TO.C,D2*%
X185196000Y-96004000D02*
X185196000Y-95004000D01*
X185196000Y-95004000D02*
X183096000Y-95004000D01*
X185196000Y-96004000D02*
X183096000Y-96004000D01*
%TO.C,D3*%
X185196000Y-97528000D02*
X183096000Y-97528000D01*
X185196000Y-96528000D02*
X183096000Y-96528000D01*
X185196000Y-97528000D02*
X185196000Y-96528000D01*
%TO.C,D4*%
X185196000Y-94480000D02*
X185196000Y-93480000D01*
X185196000Y-93480000D02*
X183096000Y-93480000D01*
X185196000Y-94480000D02*
X183096000Y-94480000D01*
D15*
%TO.C,P1GND1*%
X184152000Y-99054000D02*
X190752000Y-99054000D01*
X190752000Y-99054000D02*
X190752000Y-104654000D01*
X190752000Y-104654000D02*
X184152000Y-104654000D01*
X184152000Y-104654000D02*
X184152000Y-99054000D01*
%TO.C,P2GND1*%
X138305000Y-99054000D02*
X144905000Y-99054000D01*
X144905000Y-99054000D02*
X144905000Y-104654000D01*
X144905000Y-104654000D02*
X138305000Y-104654000D01*
X138305000Y-104654000D02*
X138305000Y-99054000D01*
D17*
%TO.C,RV2*%
X138952000Y-87390000D02*
X141757000Y-87390000D01*
X142978000Y-87390000D02*
X145782000Y-87390000D01*
X138952000Y-94220000D02*
X141757000Y-94220000D01*
X142978000Y-94220000D02*
X145782000Y-94220000D01*
X138952000Y-87390000D02*
X138952000Y-90340000D01*
X138952000Y-91270000D02*
X138952000Y-94220000D01*
X145782000Y-87390000D02*
X145782000Y-94220000D01*
X137432000Y-87770000D02*
X138951000Y-87770000D01*
X137432000Y-89670000D02*
X138951000Y-89670000D01*
X137432000Y-87770000D02*
X137432000Y-89670000D01*
X138951000Y-87770000D02*
X138951000Y-89670000D01*
X137432000Y-88720000D02*
X138192000Y-88720000D01*
%TO.C,U1*%
D15*
X171119857Y-90035428D02*
X171119857Y-90521142D01*
X171148428Y-90578285D01*
X171177000Y-90606857D01*
X171234142Y-90635428D01*
X171348428Y-90635428D01*
X171405571Y-90606857D01*
X171434142Y-90578285D01*
X171462714Y-90521142D01*
X171462714Y-90035428D01*
X172062714Y-90635428D02*
X171719857Y-90635428D01*
X171891285Y-90635428D02*
X171891285Y-90035428D01*
X171834142Y-90121142D01*
X171777000Y-90178285D01*
X171719857Y-90206857D01*
%TO.C,C1*%
X176557000Y-97115285D02*
X176528428Y-97143857D01*
X176442714Y-97172428D01*
X176385571Y-97172428D01*
X176299857Y-97143857D01*
X176242714Y-97086714D01*
X176214142Y-97029571D01*
X176185571Y-96915285D01*
X176185571Y-96829571D01*
X176214142Y-96715285D01*
X176242714Y-96658142D01*
X176299857Y-96601000D01*
X176385571Y-96572428D01*
X176442714Y-96572428D01*
X176528428Y-96601000D01*
X176557000Y-96629571D01*
X177128428Y-97172428D02*
X176785571Y-97172428D01*
X176957000Y-97172428D02*
X176957000Y-96572428D01*
X176899857Y-96658142D01*
X176842714Y-96715285D01*
X176785571Y-96743857D01*
%TO.C,R2*%
X162460000Y-93870428D02*
X162260000Y-93584714D01*
X162117142Y-93870428D02*
X162117142Y-93270428D01*
X162345714Y-93270428D01*
X162402857Y-93299000D01*
X162431428Y-93327571D01*
X162460000Y-93384714D01*
X162460000Y-93470428D01*
X162431428Y-93527571D01*
X162402857Y-93556142D01*
X162345714Y-93584714D01*
X162117142Y-93584714D01*
X162688571Y-93327571D02*
X162717142Y-93299000D01*
X162774285Y-93270428D01*
X162917142Y-93270428D01*
X162974285Y-93299000D01*
X163002857Y-93327571D01*
X163031428Y-93384714D01*
X163031428Y-93441857D01*
X163002857Y-93527571D01*
X162660000Y-93870428D01*
X163031428Y-93870428D01*
%TO.C,R7*%
X150014000Y-93235428D02*
X149814000Y-92949714D01*
X149671142Y-93235428D02*
X149671142Y-92635428D01*
X149899714Y-92635428D01*
X149956857Y-92664000D01*
X149985428Y-92692571D01*
X150014000Y-92749714D01*
X150014000Y-92835428D01*
X149985428Y-92892571D01*
X149956857Y-92921142D01*
X149899714Y-92949714D01*
X149671142Y-92949714D01*
X150214000Y-92635428D02*
X150614000Y-92635428D01*
X150356857Y-93235428D01*
%TO.C,R8*%
X157824500Y-94441928D02*
X157624500Y-94156214D01*
X157481642Y-94441928D02*
X157481642Y-93841928D01*
X157710214Y-93841928D01*
X157767357Y-93870500D01*
X157795928Y-93899071D01*
X157824500Y-93956214D01*
X157824500Y-94041928D01*
X157795928Y-94099071D01*
X157767357Y-94127642D01*
X157710214Y-94156214D01*
X157481642Y-94156214D01*
X158167357Y-94099071D02*
X158110214Y-94070500D01*
X158081642Y-94041928D01*
X158053071Y-93984785D01*
X158053071Y-93956214D01*
X158081642Y-93899071D01*
X158110214Y-93870500D01*
X158167357Y-93841928D01*
X158281642Y-93841928D01*
X158338785Y-93870500D01*
X158367357Y-93899071D01*
X158395928Y-93956214D01*
X158395928Y-93984785D01*
X158367357Y-94041928D01*
X158338785Y-94070500D01*
X158281642Y-94099071D01*
X158167357Y-94099071D01*
X158110214Y-94127642D01*
X158081642Y-94156214D01*
X158053071Y-94213357D01*
X158053071Y-94327642D01*
X158081642Y-94384785D01*
X158110214Y-94413357D01*
X158167357Y-94441928D01*
X158281642Y-94441928D01*
X158338785Y-94413357D01*
X158367357Y-94384785D01*
X158395928Y-94327642D01*
X158395928Y-94213357D01*
X158367357Y-94156214D01*
X158338785Y-94127642D01*
X158281642Y-94099071D01*
%TO.C,Ro1*%
X175142571Y-89298428D02*
X174942571Y-89012714D01*
X174799714Y-89298428D02*
X174799714Y-88698428D01*
X175028285Y-88698428D01*
X175085428Y-88727000D01*
X175114000Y-88755571D01*
X175142571Y-88812714D01*
X175142571Y-88898428D01*
X175114000Y-88955571D01*
X175085428Y-88984142D01*
X175028285Y-89012714D01*
X174799714Y-89012714D01*
X175485428Y-89298428D02*
X175428285Y-89269857D01*
X175399714Y-89241285D01*
X175371142Y-89184142D01*
X175371142Y-89012714D01*
X175399714Y-88955571D01*
X175428285Y-88927000D01*
X175485428Y-88898428D01*
X175571142Y-88898428D01*
X175628285Y-88927000D01*
X175656857Y-88955571D01*
X175685428Y-89012714D01*
X175685428Y-89184142D01*
X175656857Y-89241285D01*
X175628285Y-89269857D01*
X175571142Y-89298428D01*
X175485428Y-89298428D01*
X176256857Y-89298428D02*
X175914000Y-89298428D01*
X176085428Y-89298428D02*
X176085428Y-88698428D01*
X176028285Y-88784142D01*
X175971142Y-88841285D01*
X175914000Y-88869857D01*
%TO.C,Rsns1*%
X168179857Y-87393428D02*
X167979857Y-87107714D01*
X167837000Y-87393428D02*
X167837000Y-86793428D01*
X168065571Y-86793428D01*
X168122714Y-86822000D01*
X168151285Y-86850571D01*
X168179857Y-86907714D01*
X168179857Y-86993428D01*
X168151285Y-87050571D01*
X168122714Y-87079142D01*
X168065571Y-87107714D01*
X167837000Y-87107714D01*
X168408428Y-87364857D02*
X168465571Y-87393428D01*
X168579857Y-87393428D01*
X168637000Y-87364857D01*
X168665571Y-87307714D01*
X168665571Y-87279142D01*
X168637000Y-87222000D01*
X168579857Y-87193428D01*
X168494142Y-87193428D01*
X168437000Y-87164857D01*
X168408428Y-87107714D01*
X168408428Y-87079142D01*
X168437000Y-87022000D01*
X168494142Y-86993428D01*
X168579857Y-86993428D01*
X168637000Y-87022000D01*
X168922714Y-86993428D02*
X168922714Y-87393428D01*
X168922714Y-87050571D02*
X168951285Y-87022000D01*
X169008428Y-86993428D01*
X169094142Y-86993428D01*
X169151285Y-87022000D01*
X169179857Y-87079142D01*
X169179857Y-87393428D01*
X169437000Y-87364857D02*
X169494142Y-87393428D01*
X169608428Y-87393428D01*
X169665571Y-87364857D01*
X169694142Y-87307714D01*
X169694142Y-87279142D01*
X169665571Y-87222000D01*
X169608428Y-87193428D01*
X169522714Y-87193428D01*
X169465571Y-87164857D01*
X169437000Y-87107714D01*
X169437000Y-87079142D01*
X169465571Y-87022000D01*
X169522714Y-86993428D01*
X169608428Y-86993428D01*
X169665571Y-87022000D01*
X170265571Y-87393428D02*
X169922714Y-87393428D01*
X170094142Y-87393428D02*
X170094142Y-86793428D01*
X170037000Y-86879142D01*
X169979857Y-86936285D01*
X169922714Y-86964857D01*
%TO.C,C2*%
X166397000Y-88352285D02*
X166368428Y-88380857D01*
X166282714Y-88409428D01*
X166225571Y-88409428D01*
X166139857Y-88380857D01*
X166082714Y-88323714D01*
X166054142Y-88266571D01*
X166025571Y-88152285D01*
X166025571Y-88066571D01*
X166054142Y-87952285D01*
X166082714Y-87895142D01*
X166139857Y-87838000D01*
X166225571Y-87809428D01*
X166282714Y-87809428D01*
X166368428Y-87838000D01*
X166397000Y-87866571D01*
X166625571Y-87866571D02*
X166654142Y-87838000D01*
X166711285Y-87809428D01*
X166854142Y-87809428D01*
X166911285Y-87838000D01*
X166939857Y-87866571D01*
X166968428Y-87923714D01*
X166968428Y-87980857D01*
X166939857Y-88066571D01*
X166597000Y-88409428D01*
X166968428Y-88409428D01*
%TO.C,C3*%
X148998000Y-90638285D02*
X148969428Y-90666857D01*
X148883714Y-90695428D01*
X148826571Y-90695428D01*
X148740857Y-90666857D01*
X148683714Y-90609714D01*
X148655142Y-90552571D01*
X148626571Y-90438285D01*
X148626571Y-90352571D01*
X148655142Y-90238285D01*
X148683714Y-90181142D01*
X148740857Y-90124000D01*
X148826571Y-90095428D01*
X148883714Y-90095428D01*
X148969428Y-90124000D01*
X148998000Y-90152571D01*
X149198000Y-90095428D02*
X149569428Y-90095428D01*
X149369428Y-90324000D01*
X149455142Y-90324000D01*
X149512285Y-90352571D01*
X149540857Y-90381142D01*
X149569428Y-90438285D01*
X149569428Y-90581142D01*
X149540857Y-90638285D01*
X149512285Y-90666857D01*
X149455142Y-90695428D01*
X149283714Y-90695428D01*
X149226571Y-90666857D01*
X149198000Y-90638285D01*
%TO.C,R1*%
X158650000Y-87774428D02*
X158450000Y-87488714D01*
X158307142Y-87774428D02*
X158307142Y-87174428D01*
X158535714Y-87174428D01*
X158592857Y-87203000D01*
X158621428Y-87231571D01*
X158650000Y-87288714D01*
X158650000Y-87374428D01*
X158621428Y-87431571D01*
X158592857Y-87460142D01*
X158535714Y-87488714D01*
X158307142Y-87488714D01*
X159221428Y-87774428D02*
X158878571Y-87774428D01*
X159050000Y-87774428D02*
X159050000Y-87174428D01*
X158992857Y-87260142D01*
X158935714Y-87317285D01*
X158878571Y-87345857D01*
%TO.C,R3*%
X155856000Y-91393928D02*
X155656000Y-91108214D01*
X155513142Y-91393928D02*
X155513142Y-90793928D01*
X155741714Y-90793928D01*
X155798857Y-90822500D01*
X155827428Y-90851071D01*
X155856000Y-90908214D01*
X155856000Y-90993928D01*
X155827428Y-91051071D01*
X155798857Y-91079642D01*
X155741714Y-91108214D01*
X155513142Y-91108214D01*
X156056000Y-90793928D02*
X156427428Y-90793928D01*
X156227428Y-91022500D01*
X156313142Y-91022500D01*
X156370285Y-91051071D01*
X156398857Y-91079642D01*
X156427428Y-91136785D01*
X156427428Y-91279642D01*
X156398857Y-91336785D01*
X156370285Y-91365357D01*
X156313142Y-91393928D01*
X156141714Y-91393928D01*
X156084571Y-91365357D01*
X156056000Y-91336785D01*
%TO.C,R9*%
X179986000Y-97426428D02*
X179786000Y-97140714D01*
X179643142Y-97426428D02*
X179643142Y-96826428D01*
X179871714Y-96826428D01*
X179928857Y-96855000D01*
X179957428Y-96883571D01*
X179986000Y-96940714D01*
X179986000Y-97026428D01*
X179957428Y-97083571D01*
X179928857Y-97112142D01*
X179871714Y-97140714D01*
X179643142Y-97140714D01*
X180271714Y-97426428D02*
X180386000Y-97426428D01*
X180443142Y-97397857D01*
X180471714Y-97369285D01*
X180528857Y-97283571D01*
X180557428Y-97169285D01*
X180557428Y-96940714D01*
X180528857Y-96883571D01*
X180500285Y-96855000D01*
X180443142Y-96826428D01*
X180328857Y-96826428D01*
X180271714Y-96855000D01*
X180243142Y-96883571D01*
X180214571Y-96940714D01*
X180214571Y-97083571D01*
X180243142Y-97140714D01*
X180271714Y-97169285D01*
X180328857Y-97197857D01*
X180443142Y-97197857D01*
X180500285Y-97169285D01*
X180528857Y-97140714D01*
X180557428Y-97083571D01*
%TO.C,R10*%
X169540285Y-97045428D02*
X169340285Y-96759714D01*
X169197428Y-97045428D02*
X169197428Y-96445428D01*
X169426000Y-96445428D01*
X169483142Y-96474000D01*
X169511714Y-96502571D01*
X169540285Y-96559714D01*
X169540285Y-96645428D01*
X169511714Y-96702571D01*
X169483142Y-96731142D01*
X169426000Y-96759714D01*
X169197428Y-96759714D01*
X170111714Y-97045428D02*
X169768857Y-97045428D01*
X169940285Y-97045428D02*
X169940285Y-96445428D01*
X169883142Y-96531142D01*
X169826000Y-96588285D01*
X169768857Y-96616857D01*
X170483142Y-96445428D02*
X170540285Y-96445428D01*
X170597428Y-96474000D01*
X170626000Y-96502571D01*
X170654571Y-96559714D01*
X170683142Y-96674000D01*
X170683142Y-96816857D01*
X170654571Y-96931142D01*
X170626000Y-96988285D01*
X170597428Y-97016857D01*
X170540285Y-97045428D01*
X170483142Y-97045428D01*
X170426000Y-97016857D01*
X170397428Y-96988285D01*
X170368857Y-96931142D01*
X170340285Y-96816857D01*
X170340285Y-96674000D01*
X170368857Y-96559714D01*
X170397428Y-96502571D01*
X170426000Y-96474000D01*
X170483142Y-96445428D01*
%TO.C,R11*%
X179573285Y-91330428D02*
X179373285Y-91044714D01*
X179230428Y-91330428D02*
X179230428Y-90730428D01*
X179459000Y-90730428D01*
X179516142Y-90759000D01*
X179544714Y-90787571D01*
X179573285Y-90844714D01*
X179573285Y-90930428D01*
X179544714Y-90987571D01*
X179516142Y-91016142D01*
X179459000Y-91044714D01*
X179230428Y-91044714D01*
X180144714Y-91330428D02*
X179801857Y-91330428D01*
X179973285Y-91330428D02*
X179973285Y-90730428D01*
X179916142Y-90816142D01*
X179859000Y-90873285D01*
X179801857Y-90901857D01*
X180716142Y-91330428D02*
X180373285Y-91330428D01*
X180544714Y-91330428D02*
X180544714Y-90730428D01*
X180487571Y-90816142D01*
X180430428Y-90873285D01*
X180373285Y-90901857D01*
%TO.C,R12*%
X150744285Y-90314428D02*
X150544285Y-90028714D01*
X150401428Y-90314428D02*
X150401428Y-89714428D01*
X150630000Y-89714428D01*
X150687142Y-89743000D01*
X150715714Y-89771571D01*
X150744285Y-89828714D01*
X150744285Y-89914428D01*
X150715714Y-89971571D01*
X150687142Y-90000142D01*
X150630000Y-90028714D01*
X150401428Y-90028714D01*
X151315714Y-90314428D02*
X150972857Y-90314428D01*
X151144285Y-90314428D02*
X151144285Y-89714428D01*
X151087142Y-89800142D01*
X151030000Y-89857285D01*
X150972857Y-89885857D01*
X151544285Y-89771571D02*
X151572857Y-89743000D01*
X151630000Y-89714428D01*
X151772857Y-89714428D01*
X151830000Y-89743000D01*
X151858571Y-89771571D01*
X151887142Y-89828714D01*
X151887142Y-89885857D01*
X151858571Y-89971571D01*
X151515714Y-90314428D01*
X151887142Y-90314428D01*
%TO.C,Rin1*%
X163442714Y-92854428D02*
X163242714Y-92568714D01*
X163099857Y-92854428D02*
X163099857Y-92254428D01*
X163328428Y-92254428D01*
X163385571Y-92283000D01*
X163414142Y-92311571D01*
X163442714Y-92368714D01*
X163442714Y-92454428D01*
X163414142Y-92511571D01*
X163385571Y-92540142D01*
X163328428Y-92568714D01*
X163099857Y-92568714D01*
X163699857Y-92854428D02*
X163699857Y-92454428D01*
X163699857Y-92254428D02*
X163671285Y-92283000D01*
X163699857Y-92311571D01*
X163728428Y-92283000D01*
X163699857Y-92254428D01*
X163699857Y-92311571D01*
X163985571Y-92454428D02*
X163985571Y-92854428D01*
X163985571Y-92511571D02*
X164014142Y-92483000D01*
X164071285Y-92454428D01*
X164157000Y-92454428D01*
X164214142Y-92483000D01*
X164242714Y-92540142D01*
X164242714Y-92854428D01*
X164842714Y-92854428D02*
X164499857Y-92854428D01*
X164671285Y-92854428D02*
X164671285Y-92254428D01*
X164614142Y-92340142D01*
X164557000Y-92397285D01*
X164499857Y-92425857D01*
%TD*%
M02*
