M48
;DRILL file {KiCad (2017-08-30 revision 50164e996)-master} date Sat Nov 18 10:44:16 2017
;FORMAT={-:-/ absolute / metric / decimal}
FMAT,2
METRIC,TZ
T1C0.400
T2C0.800
T3C0.800
T4C1.000
%
G90
G05
M71
T1
X139.065Y-69.215
X139.065Y-70.485
X139.065Y-71.755
X139.065Y-73.025
X139.065Y-74.295
X139.065Y-75.565
X139.065Y-76.835
X139.065Y-78.105
X139.065Y-79.375
X139.065Y-81.915
X139.065Y-83.185
X139.065Y-84.455
X139.065Y-85.725
X139.319Y-87.884
X139.319Y-93.853
X139.319Y-96.52
X139.319Y-99.949
X139.319Y-101.219
X139.319Y-102.489
X139.319Y-103.759
X140.335Y-69.215
X140.335Y-70.485
X140.335Y-71.755
X140.335Y-73.025
X140.335Y-74.295
X140.335Y-75.565
X140.335Y-76.835
X140.335Y-78.105
X140.335Y-79.375
X140.335Y-81.915
X140.335Y-83.185
X140.335Y-84.455
X140.335Y-85.725
X140.589Y-99.949
X140.589Y-101.219
X140.589Y-102.489
X140.589Y-103.759
X141.605Y-69.215
X141.605Y-70.485
X141.605Y-71.755
X141.605Y-73.025
X141.605Y-74.295
X141.605Y-75.565
X141.605Y-76.835
X141.605Y-78.105
X141.605Y-79.375
X141.605Y-81.915
X141.605Y-83.185
X141.605Y-84.455
X141.605Y-85.725
X141.859Y-99.949
X141.859Y-101.219
X141.859Y-102.489
X141.859Y-103.759
X142.875Y-69.215
X142.875Y-70.485
X142.875Y-71.755
X142.875Y-73.025
X142.875Y-74.295
X142.875Y-75.565
X142.875Y-76.835
X142.875Y-78.105
X142.875Y-79.375
X142.875Y-81.915
X142.875Y-83.185
X142.875Y-84.455
X142.875Y-85.725
X143.129Y-99.949
X143.129Y-101.219
X143.129Y-102.489
X143.129Y-103.759
X144.145Y-69.215
X144.145Y-70.485
X144.145Y-71.755
X144.145Y-73.025
X144.145Y-74.295
X144.145Y-75.565
X144.145Y-76.835
X144.145Y-78.105
X144.145Y-79.375
X144.145Y-81.915
X144.145Y-83.185
X144.145Y-84.455
X144.145Y-85.725
X144.399Y-99.949
X144.399Y-101.219
X144.399Y-102.489
X144.399Y-103.759
X145.288Y-88.392
X145.415Y-69.215
X145.415Y-70.485
X145.415Y-71.755
X145.415Y-73.025
X145.415Y-74.295
X145.415Y-75.565
X145.415Y-76.835
X145.415Y-78.105
X145.415Y-79.375
X145.415Y-96.52
X145.669Y-99.949
X145.669Y-101.219
X145.669Y-102.489
X145.669Y-103.759
X146.05Y-82.55
X146.05Y-93.98
X146.939Y-99.949
X146.939Y-101.219
X146.939Y-102.489
X146.939Y-103.759
X148.082Y-69.342
X148.082Y-80.264
X148.209Y-99.949
X148.209Y-101.219
X148.209Y-102.489
X148.209Y-103.759
X149.479Y-99.949
X149.479Y-101.219
X149.479Y-102.489
X149.479Y-103.759
X149.86Y-91.44
X150.241Y-94.107
X150.749Y-99.949
X150.749Y-101.219
X150.749Y-102.489
X150.749Y-103.759
X151.13Y-86.741
X151.384Y-96.52
X152.019Y-99.949
X152.019Y-101.219
X152.019Y-102.489
X152.019Y-103.759
X153.289Y-99.949
X153.289Y-101.219
X153.289Y-102.489
X153.289Y-103.759
X154.559Y-99.949
X154.559Y-101.219
X154.559Y-102.489
X154.559Y-103.759
X154.813Y-91.313
X155.448Y-93.98
X155.829Y-99.949
X155.829Y-101.219
X155.829Y-102.489
X155.829Y-103.759
X157.099Y-99.949
X157.099Y-101.219
X157.099Y-102.489
X157.099Y-103.759
X157.48Y-96.52
X157.988Y-69.342
X157.988Y-79.756
X158.369Y-99.949
X158.369Y-101.219
X158.369Y-102.489
X158.369Y-103.759
X158.496Y-85.598
X159.131Y-93.599
X159.258Y-81.28
X159.639Y-99.949
X159.639Y-101.219
X159.639Y-102.489
X159.639Y-103.759
X160.02Y-69.215
X160.02Y-70.485
X160.02Y-71.755
X160.02Y-73.025
X160.02Y-74.295
X160.02Y-75.565
X160.02Y-76.835
X160.02Y-78.105
X160.02Y-79.375
X160.782Y-90.043
X160.909Y-99.949
X160.909Y-101.219
X160.909Y-102.489
X160.909Y-103.759
X161.29Y-69.215
X161.29Y-70.485
X161.29Y-71.755
X161.29Y-73.025
X161.29Y-74.295
X161.29Y-75.565
X161.29Y-76.835
X161.29Y-78.105
X161.29Y-79.375
X162.179Y-99.949
X162.179Y-101.219
X162.179Y-102.489
X162.179Y-103.759
X162.56Y-69.215
X162.56Y-70.485
X162.56Y-71.755
X162.56Y-73.025
X162.56Y-74.295
X162.56Y-75.565
X162.56Y-76.835
X162.56Y-78.105
X162.56Y-79.375
X163.068Y-94.488
X163.322Y-81.28
X163.449Y-99.949
X163.449Y-101.219
X163.449Y-102.489
X163.449Y-103.759
X163.576Y-86.106
X163.83Y-69.215
X163.83Y-70.485
X163.83Y-71.755
X163.83Y-73.025
X163.83Y-74.295
X163.83Y-75.565
X163.83Y-76.835
X163.83Y-78.105
X163.83Y-79.375
X163.957Y-90.043
X164.719Y-99.949
X164.719Y-101.219
X164.719Y-102.489
X164.719Y-103.759
X165.1Y-69.215
X165.1Y-70.485
X165.1Y-71.755
X165.1Y-73.025
X165.1Y-74.295
X165.1Y-75.565
X165.1Y-76.835
X165.1Y-78.105
X165.1Y-79.375
X165.608Y-94.869
X165.989Y-99.949
X165.989Y-101.219
X165.989Y-102.489
X165.989Y-103.759
X166.37Y-69.215
X166.37Y-70.485
X166.37Y-71.755
X166.37Y-73.025
X166.37Y-74.295
X166.37Y-75.565
X166.37Y-76.835
X166.37Y-78.105
X166.37Y-79.375
X167.259Y-99.949
X167.259Y-101.219
X167.259Y-102.489
X167.259Y-103.759
X167.64Y-86.36
X168.275Y-69.215
X168.275Y-70.485
X168.275Y-76.835
X168.275Y-78.105
X168.275Y-79.375
X168.529Y-99.949
X168.529Y-101.219
X168.529Y-102.489
X168.529Y-103.759
X169.418Y-81.28
X169.545Y-69.215
X169.545Y-70.485
X169.545Y-76.835
X169.545Y-78.105
X169.545Y-79.375
X169.799Y-99.949
X169.799Y-101.219
X169.799Y-102.489
X169.799Y-103.759
X170.815Y-69.215
X170.815Y-70.485
X170.815Y-76.835
X170.815Y-78.105
X170.815Y-79.375
X171.069Y-92.075
X171.069Y-99.949
X171.069Y-101.219
X171.069Y-102.489
X171.069Y-103.759
X171.196Y-86.868
X171.45Y-82.55
X172.085Y-69.215
X172.085Y-70.485
X172.085Y-76.835
X172.085Y-78.105
X172.085Y-79.375
X172.212Y-86.868
X172.212Y-87.884
X172.339Y-99.949
X172.339Y-101.219
X172.339Y-102.489
X172.339Y-103.759
X172.72Y-82.55
X172.974Y-96.901
X173.355Y-69.215
X173.355Y-70.485
X173.355Y-76.835
X173.355Y-78.105
X173.355Y-79.375
X173.355Y-81.28
X173.355Y-83.82
X173.355Y-85.09
X173.355Y-86.36
X173.355Y-87.376
X173.609Y-99.949
X173.609Y-101.219
X173.609Y-102.489
X173.609Y-103.759
X173.99Y-82.55
X174.498Y-86.868
X174.498Y-87.884
X174.625Y-69.215
X174.625Y-70.485
X174.625Y-76.835
X174.625Y-78.105
X174.625Y-79.375
X174.625Y-81.28
X174.625Y-94.615
X174.879Y-99.949
X174.879Y-101.219
X174.879Y-102.489
X174.879Y-103.759
X175.26Y-82.55
X175.514Y-86.868
X175.514Y-87.884
X175.895Y-69.215
X175.895Y-70.485
X175.895Y-76.835
X175.895Y-78.105
X175.895Y-79.375
X175.895Y-81.28
X176.149Y-99.949
X176.149Y-101.219
X176.149Y-102.489
X176.149Y-103.759
X176.53Y-82.55
X176.53Y-86.868
X176.53Y-87.884
X176.657Y-95.504
X176.911Y-92.964
X177.165Y-69.215
X177.165Y-70.485
X177.165Y-76.835
X177.165Y-78.105
X177.165Y-79.375
X177.165Y-81.28
X177.419Y-99.949
X177.419Y-101.219
X177.419Y-102.489
X177.419Y-103.759
X177.546Y-86.868
X177.546Y-87.884
X177.8Y-82.55
X177.8Y-90.032
X178.308Y-87.376
X178.435Y-69.215
X178.435Y-70.485
X178.435Y-76.835
X178.435Y-78.105
X178.435Y-79.375
X178.435Y-81.28
X178.435Y-83.82
X178.435Y-85.09
X178.435Y-86.36
X178.509Y-92.71
X178.689Y-99.949
X178.689Y-101.219
X178.689Y-102.489
X178.689Y-103.759
X179.07Y-82.55
X179.324Y-83.82
X179.324Y-85.09
X179.324Y-86.36
X179.324Y-87.376
X179.705Y-69.215
X179.705Y-70.485
X179.705Y-76.835
X179.705Y-79.375
X179.705Y-81.28
X179.959Y-99.949
X179.959Y-101.219
X179.959Y-102.489
X179.959Y-103.759
X180.086Y-82.296
X180.086Y-94.107
X180.086Y-97.028
X180.34Y-91.186
X180.975Y-69.215
X180.975Y-70.485
X180.975Y-76.835
X180.975Y-78.105
X180.975Y-79.375
X180.975Y-81.28
X181.229Y-99.949
X181.229Y-101.219
X181.229Y-102.489
X181.229Y-103.759
X181.864Y-82.296
X181.864Y-89.789
X182.245Y-69.215
X182.245Y-70.485
X182.245Y-76.835
X182.245Y-78.105
X182.245Y-79.375
X182.245Y-81.28
X182.499Y-99.949
X182.499Y-101.219
X182.499Y-102.489
X182.499Y-103.759
X182.753Y-86.868
X182.753Y-88.011
X182.753Y-89.154
X182.753Y-90.297
X182.88Y-82.55
X183.515Y-69.215
X183.515Y-70.485
X183.515Y-76.835
X183.515Y-78.105
X183.515Y-79.375
X183.515Y-81.28
X183.769Y-86.868
X183.769Y-88.011
X183.769Y-89.154
X183.769Y-90.297
X183.769Y-99.949
X183.769Y-101.219
X183.769Y-102.489
X183.769Y-103.759
X184.15Y-82.55
X184.785Y-69.215
X184.785Y-70.485
X184.785Y-76.835
X184.785Y-78.105
X184.785Y-79.375
X184.785Y-81.28
X184.785Y-83.82
X184.785Y-85.09
X184.785Y-86.36
X184.785Y-87.884
X184.785Y-89.154
X184.785Y-90.424
X184.785Y-91.694
X185.039Y-99.949
X185.039Y-101.219
X185.039Y-102.489
X185.039Y-103.759
X185.42Y-82.55
X185.801Y-95.504
X186.055Y-69.215
X186.055Y-70.485
X186.055Y-76.835
X186.055Y-78.105
X186.055Y-79.375
X186.055Y-81.28
X186.055Y-86.868
X186.055Y-87.884
X186.055Y-89.154
X186.055Y-90.424
X186.055Y-91.694
X186.309Y-99.949
X186.309Y-101.219
X186.309Y-102.489
X186.309Y-103.759
X186.69Y-82.55
X187.325Y-69.215
X187.325Y-70.485
X187.325Y-76.835
X187.325Y-78.105
X187.325Y-79.375
X187.325Y-81.28
X187.325Y-86.868
X187.325Y-87.884
X187.325Y-89.154
X187.325Y-90.424
X187.325Y-91.694
X187.579Y-99.949
X187.579Y-101.219
X187.579Y-102.489
X187.579Y-103.759
X187.96Y-82.55
X188.468Y-86.868
X188.468Y-87.884
X188.468Y-89.154
X188.468Y-90.424
X188.468Y-91.694
X188.595Y-69.215
X188.595Y-70.485
X188.595Y-76.835
X188.595Y-78.105
X188.595Y-79.375
X188.595Y-81.28
X188.849Y-99.949
X188.849Y-101.219
X188.849Y-102.489
X188.849Y-103.759
X189.23Y-82.55
X189.611Y-83.439
X189.611Y-84.582
X189.611Y-85.725
X189.738Y-86.868
X189.738Y-87.884
X189.738Y-89.154
X189.738Y-90.424
X189.738Y-91.694
X189.865Y-69.215
X189.865Y-70.485
X189.865Y-76.835
X189.865Y-78.105
X189.865Y-79.375
X189.992Y-93.472
X190.119Y-99.949
X190.119Y-101.219
X190.119Y-102.489
X190.119Y-103.759
T2
X139.827Y-90.805
X142.367Y-88.265
X142.367Y-93.345
T3
X151.892Y-91.44
T4
X151.29Y-82.29
X161.29Y-85.09
T0
M30
