%TF.GenerationSoftware,KiCad,Pcbnew,(2017-08-30 revision 50164e996)-master*%
%TF.CreationDate,2017-09-20T12:12:51+02:00*%
%TF.ProjectId,antispark,616E7469737061726B2E6B696361645F,rev?*%
%TF.SameCoordinates,Original*%
%TF.FileFunction,Copper,L1,Top,Mixed*%
%TF.FilePolarity,Positive*%
%FSLAX46Y46*%
G04 Gerber Fmt 4.6, Leading zero omitted, Abs format (unit mm)*
G04 Created by KiCad (PCBNEW (2017-08-30 revision 50164e996)-master) date Wed Sep 20 12:12:51 2017*
%MOMM*%
%LPD*%
G01*
G04 APERTURE LIST*
%TA.AperFunction,Conductor*%
%ADD10C,0.100000*%
%TD*%
%TA.AperFunction,ComponentPad*%
%ADD11C,1.998980*%
%TD*%
%TA.AperFunction,SMDPad,CuDef*%
%ADD12R,1.400000X0.300000*%
%TD*%
%TA.AperFunction,SMDPad,CuDef*%
%ADD13R,10.800080X8.150860*%
%TD*%
%TA.AperFunction,SMDPad,CuDef*%
%ADD14R,0.899160X3.200400*%
%TD*%
%TA.AperFunction,SMDPad,CuDef*%
%ADD15R,0.750000X0.800000*%
%TD*%
%TA.AperFunction,SMDPad,CuDef*%
%ADD16R,0.900000X0.500000*%
%TD*%
%TA.AperFunction,SMDPad,CuDef*%
%ADD17R,0.500000X0.900000*%
%TD*%
%TA.AperFunction,SMDPad,CuDef*%
%ADD18R,1.250000X1.000000*%
%TD*%
%TA.AperFunction,SMDPad,CuDef*%
%ADD19R,1.700000X0.900000*%
%TD*%
%TA.AperFunction,SMDPad,CuDef*%
%ADD20R,0.900000X1.700000*%
%TD*%
%TA.AperFunction,SMDPad,CuDef*%
%ADD21R,8.300000X11.000000*%
%TD*%
%TA.AperFunction,SMDPad,CuDef*%
%ADD22R,6.000000X5.000000*%
%TD*%
%TA.AperFunction,ComponentPad*%
%ADD23C,2.000000*%
%TD*%
%TA.AperFunction,SMDPad,CuDef*%
%ADD24R,0.800000X0.800000*%
%TD*%
%TA.AperFunction,SMDPad,CuDef*%
%ADD25R,2.500000X0.640000*%
%TD*%
%TA.AperFunction,ComponentPad*%
%ADD26C,1.440000*%
%TD*%
%TA.AperFunction,ViaPad*%
%ADD27C,0.800000*%
%TD*%
%TA.AperFunction,Conductor*%
%ADD28C,0.500000*%
%TD*%
%TA.AperFunction,Conductor*%
%ADD29C,0.300000*%
%TD*%
%TA.AperFunction,Conductor*%
%ADD30C,0.400000*%
%TD*%
%TA.AperFunction,Conductor*%
%ADD31C,1.500000*%
%TD*%
%TA.AperFunction,Conductor*%
%ADD32C,0.250000*%
%TD*%
%TA.AperFunction,Conductor*%
%ADD33C,0.254000*%
%TD*%
G04 APERTURE END LIST*
D10*
%TO.N,UVLO*%
%TO.C,REF\002A\002A*%
G36*
X152440729Y-90442916D02*
X152489240Y-90450112D01*
X152536813Y-90462029D01*
X152582989Y-90478551D01*
X152627323Y-90499519D01*
X152669388Y-90524732D01*
X152708780Y-90553947D01*
X152745118Y-90586882D01*
X152778053Y-90623220D01*
X152807268Y-90662612D01*
X152832481Y-90704677D01*
X152853449Y-90749011D01*
X152869971Y-90795187D01*
X152881888Y-90842760D01*
X152889084Y-90891271D01*
X152891490Y-90940255D01*
X152891490Y-91939745D01*
X152889084Y-91988729D01*
X152881888Y-92037240D01*
X152869971Y-92084813D01*
X152853449Y-92130989D01*
X152832481Y-92175323D01*
X152807268Y-92217388D01*
X152778053Y-92256780D01*
X152745118Y-92293118D01*
X152708780Y-92326053D01*
X152669388Y-92355268D01*
X152627323Y-92380481D01*
X152582989Y-92401449D01*
X152536813Y-92417971D01*
X152489240Y-92429888D01*
X152440729Y-92437084D01*
X152391745Y-92439490D01*
X151392255Y-92439490D01*
X151343271Y-92437084D01*
X151294760Y-92429888D01*
X151247187Y-92417971D01*
X151201011Y-92401449D01*
X151156677Y-92380481D01*
X151114612Y-92355268D01*
X151075220Y-92326053D01*
X151038882Y-92293118D01*
X151005947Y-92256780D01*
X150976732Y-92217388D01*
X150951519Y-92175323D01*
X150930551Y-92130989D01*
X150914029Y-92084813D01*
X150902112Y-92037240D01*
X150894916Y-91988729D01*
X150892510Y-91939745D01*
X150892510Y-90940255D01*
X150894916Y-90891271D01*
X150902112Y-90842760D01*
X150914029Y-90795187D01*
X150930551Y-90749011D01*
X150951519Y-90704677D01*
X150976732Y-90662612D01*
X151005947Y-90623220D01*
X151038882Y-90586882D01*
X151075220Y-90553947D01*
X151114612Y-90524732D01*
X151156677Y-90499519D01*
X151201011Y-90478551D01*
X151247187Y-90462029D01*
X151294760Y-90450112D01*
X151343271Y-90442916D01*
X151392255Y-90440510D01*
X152391745Y-90440510D01*
X152440729Y-90442916D01*
X152440729Y-90442916D01*
G37*
D11*
%TD*%
%TO.P,REF\002A\002A,1*%
%TO.N,UVLO*%
X151892000Y-91440000D03*
D12*
%TO.P,U1,1*%
%TO.N,Net-(Rsns1-Pad2)*%
X169377000Y-91964000D03*
%TO.P,U1,2*%
%TO.N,Net-(C2-Pad1)*%
X169377000Y-92464000D03*
%TO.P,U1,3*%
%TO.N,Net-(R1-Pad2)*%
X169377000Y-92964000D03*
%TO.P,U1,4*%
%TO.N,UVLO*%
X169377000Y-93464000D03*
%TO.P,U1,5*%
%TO.N,Net-(JP1-Pad1)*%
X169377000Y-93964000D03*
%TO.P,U1,6*%
%TO.N,GND*%
X173777000Y-93964000D03*
%TO.P,U1,7*%
%TO.N,Net-(C1-Pad1)*%
X173777000Y-93464000D03*
%TO.P,U1,8*%
%TO.N,Net-(D2-Pad1)*%
X173777000Y-92964000D03*
%TO.P,U1,9*%
%TO.N,Net-(Ro1-Pad2)*%
X173777000Y-92464000D03*
%TO.P,U1,10*%
%TO.N,G*%
X173777000Y-91964000D03*
%TD*%
D13*
%TO.P,U10,4*%
%TO.N,VIN*%
X173355000Y-74109580D03*
D14*
%TO.P,U10,1*%
%TO.N,G*%
X169545000Y-84711540D03*
%TO.P,U10,2*%
%TO.N,VOUT*%
X170815000Y-84711540D03*
%TO.P,U10,3*%
X172085000Y-84711540D03*
%TO.P,U10,5*%
X174625000Y-84711540D03*
%TO.P,U10,6*%
X175895000Y-84711540D03*
%TO.P,U10,7*%
X177165000Y-84711540D03*
%TD*%
D15*
%TO.P,C1,1*%
%TO.N,Net-(C1-Pad1)*%
X176657000Y-94119000D03*
%TO.P,C1,2*%
%TO.N,GND*%
X176657000Y-95619000D03*
%TD*%
D16*
%TO.P,R2,2*%
%TO.N,GND*%
X160782000Y-94349000D03*
%TO.P,R2,1*%
%TO.N,Net-(R1-Pad2)*%
X160782000Y-92849000D03*
%TD*%
D17*
%TO.P,R7,2*%
%TO.N,Net-(R7-Pad2)*%
X147332000Y-92964000D03*
%TO.P,R7,1*%
%TO.N,UVLO*%
X148832000Y-92964000D03*
%TD*%
D16*
%TO.P,R8,1*%
%TO.N,VIN*%
X157861000Y-91452000D03*
%TO.P,R8,2*%
%TO.N,Net-(JP1-Pad2)*%
X157861000Y-92952000D03*
%TD*%
%TO.P,Ro1,2*%
%TO.N,Net-(Ro1-Pad2)*%
X175514000Y-91682000D03*
%TO.P,Ro1,1*%
%TO.N,VOUT*%
X175514000Y-90182000D03*
%TD*%
%TO.P,Rsns1,1*%
%TO.N,VIN*%
X169037000Y-88404000D03*
%TO.P,Rsns1,2*%
%TO.N,Net-(Rsns1-Pad2)*%
X169037000Y-89904000D03*
%TD*%
D18*
%TO.P,C2,1*%
%TO.N,Net-(C2-Pad1)*%
X166497000Y-91424000D03*
%TO.P,C2,2*%
%TO.N,GND*%
X166497000Y-89424000D03*
%TD*%
%TO.P,C3,2*%
%TO.N,GND*%
X147574000Y-90408000D03*
%TO.P,C3,1*%
%TO.N,Net-(C3-Pad1)*%
X147574000Y-88408000D03*
%TD*%
D19*
%TO.P,R1,2*%
%TO.N,Net-(R1-Pad2)*%
X160782000Y-91239000D03*
%TO.P,R1,1*%
%TO.N,VIN*%
X160782000Y-88339000D03*
%TD*%
D20*
%TO.P,R3,1*%
%TO.N,VIN*%
X157787000Y-89281000D03*
%TO.P,R3,2*%
%TO.N,UVLO*%
X154887000Y-89281000D03*
%TD*%
%TO.P,R9,1*%
%TO.N,VIN*%
X178509000Y-95504000D03*
%TO.P,R9,2*%
%TO.N,Net-(D2-Pad2)*%
X181409000Y-95504000D03*
%TD*%
%TO.P,R10,1*%
%TO.N,VIN*%
X174551000Y-96774000D03*
%TO.P,R10,2*%
%TO.N,Net-(D3-Pad2)*%
X171651000Y-96774000D03*
%TD*%
%TO.P,R11,2*%
%TO.N,Net-(D4-Pad2)*%
X181409000Y-92710000D03*
%TO.P,R11,1*%
%TO.N,VOUT*%
X178509000Y-92710000D03*
%TD*%
%TO.P,R12,2*%
%TO.N,Net-(C3-Pad1)*%
X149680000Y-88392000D03*
%TO.P,R12,1*%
%TO.N,VIN*%
X152580000Y-88392000D03*
%TD*%
D19*
%TO.P,Rin1,1*%
%TO.N,Net-(C2-Pad1)*%
X163957000Y-91239000D03*
%TO.P,Rin1,2*%
%TO.N,VIN*%
X163957000Y-88339000D03*
%TD*%
D21*
%TO.P,F1,2*%
%TO.N,VIN*%
X163449000Y-74295000D03*
%TO.P,F1,1*%
%TO.N,Bat*%
X142621000Y-74295000D03*
%TD*%
D22*
%TO.P,P1VBAT1,1*%
%TO.N,Bat*%
X141605000Y-83820000D03*
%TD*%
%TO.P,P2VBAT1,1*%
%TO.N,VOUT*%
X187198000Y-89662000D03*
%TD*%
D23*
%TO.P,RV1,1*%
%TO.N,VIN*%
X161290000Y-85090000D03*
%TO.P,RV1,2*%
%TO.N,GND*%
X151290000Y-82290000D03*
%TD*%
D14*
%TO.P,U11,7*%
%TO.N,VOUT*%
X188595000Y-84711540D03*
%TO.P,U11,6*%
X187325000Y-84711540D03*
%TO.P,U11,5*%
X186055000Y-84711540D03*
%TO.P,U11,3*%
X183515000Y-84711540D03*
%TO.P,U11,2*%
X182245000Y-84711540D03*
%TO.P,U11,1*%
%TO.N,G*%
X180975000Y-84711540D03*
D13*
%TO.P,U11,4*%
%TO.N,VIN*%
X184785000Y-74109580D03*
%TD*%
D24*
%TO.P,D2,2*%
%TO.N,Net-(D2-Pad2)*%
X183096000Y-95504000D03*
%TO.P,D2,1*%
%TO.N,Net-(D2-Pad1)*%
X184696000Y-95504000D03*
%TD*%
%TO.P,D3,1*%
%TO.N,GND*%
X184696000Y-97028000D03*
%TO.P,D3,2*%
%TO.N,Net-(D3-Pad2)*%
X183096000Y-97028000D03*
%TD*%
%TO.P,D4,2*%
%TO.N,Net-(D4-Pad2)*%
X183096000Y-93980000D03*
%TO.P,D4,1*%
%TO.N,GND*%
X184696000Y-93980000D03*
%TD*%
D25*
%TO.P,JP1,2*%
%TO.N,Net-(JP1-Pad2)*%
X140081000Y-95250000D03*
%TO.P,JP1,1*%
%TO.N,Net-(JP1-Pad1)*%
X140081000Y-97790000D03*
%TD*%
D22*
%TO.P,P1GND1,1*%
%TO.N,GND*%
X187452000Y-101854000D03*
%TD*%
%TO.P,P2GND1,1*%
%TO.N,GND*%
X141605000Y-101854000D03*
%TD*%
D26*
%TO.P,RV2,1*%
%TO.N,Net-(R7-Pad2)*%
X142367000Y-88265000D03*
%TO.P,RV2,2*%
%TO.N,GND*%
X139827000Y-90805000D03*
%TO.P,RV2,3*%
X142367000Y-93345000D03*
%TD*%
D27*
%TO.N,GND*%
X174625000Y-94615000D03*
%TO.N,VIN*%
X168275000Y-79375000D03*
X169545000Y-79375000D03*
X170815000Y-79375000D03*
X168275000Y-78105000D03*
X169545000Y-78105000D03*
X170815000Y-78105000D03*
X172085000Y-79375000D03*
X172085000Y-78105000D03*
X160020000Y-79375000D03*
X161290000Y-79375000D03*
X162560000Y-79375000D03*
X163830000Y-79375000D03*
X160020000Y-78105000D03*
X161290000Y-78105000D03*
X162560000Y-78105000D03*
X163830000Y-78105000D03*
%TO.N,GND*%
X180340000Y-91186000D03*
X180086000Y-97028000D03*
X180086000Y-94107000D03*
X139319000Y-93853000D03*
X139319000Y-87884000D03*
X167640000Y-86360000D03*
X163576000Y-86106000D03*
X151130000Y-86741000D03*
X158496000Y-85598000D03*
X145288000Y-88392000D03*
X149860000Y-91440000D03*
X146050000Y-93980000D03*
X150241000Y-94107000D03*
X155448000Y-93980000D03*
X154813000Y-91313000D03*
X157480000Y-96520000D03*
X151384000Y-96520000D03*
X145415000Y-96520000D03*
X139319000Y-96520000D03*
X163068000Y-94488000D03*
X159131000Y-93599000D03*
X172974000Y-96901000D03*
X171069000Y-92075000D03*
X165608000Y-94869000D03*
X183769000Y-101219000D03*
X160782000Y-90043000D03*
X163957000Y-90043000D03*
X176657000Y-95504000D03*
X140589000Y-103759000D03*
X143129000Y-103759000D03*
X139319000Y-103759000D03*
X144399000Y-103759000D03*
X141859000Y-103759000D03*
X143129000Y-102489000D03*
X141859000Y-102489000D03*
X139319000Y-102489000D03*
X140589000Y-102489000D03*
X144399000Y-102489000D03*
X139319000Y-101219000D03*
X143129000Y-101219000D03*
X141859000Y-99949000D03*
X139319000Y-99949000D03*
X144399000Y-101219000D03*
X144399000Y-99949000D03*
X141859000Y-101219000D03*
X143129000Y-99949000D03*
X140589000Y-101219000D03*
X140589000Y-99949000D03*
X189992000Y-93472000D03*
X157988000Y-79756000D03*
X159258000Y-81280000D03*
X148082000Y-80264000D03*
X146050000Y-82550000D03*
X148082000Y-69342000D03*
X157988000Y-69342000D03*
X169418000Y-81280000D03*
X163322000Y-81280000D03*
X188849000Y-102489000D03*
X188849000Y-99949000D03*
X190119000Y-102489000D03*
X190119000Y-99949000D03*
X188849000Y-101219000D03*
X187579000Y-99949000D03*
X187579000Y-103759000D03*
X187579000Y-101219000D03*
X190119000Y-101219000D03*
X190119000Y-103759000D03*
X187579000Y-102489000D03*
X188849000Y-103759000D03*
X179959000Y-99949000D03*
X185039000Y-102489000D03*
X182499000Y-101219000D03*
X181229000Y-102489000D03*
X178689000Y-103759000D03*
X178689000Y-101219000D03*
X185039000Y-103759000D03*
X186309000Y-101219000D03*
X183769000Y-102489000D03*
X178689000Y-102489000D03*
X181229000Y-101219000D03*
X181229000Y-103759000D03*
X179959000Y-102489000D03*
X182499000Y-102489000D03*
X182499000Y-103759000D03*
X179959000Y-101219000D03*
X178689000Y-99949000D03*
X186309000Y-103759000D03*
X181229000Y-99949000D03*
X183769000Y-103759000D03*
X186309000Y-99949000D03*
X179959000Y-103759000D03*
X185039000Y-99949000D03*
X186309000Y-102489000D03*
X182499000Y-99949000D03*
X183769000Y-99949000D03*
X185039000Y-101219000D03*
X177419000Y-101219000D03*
X176149000Y-99949000D03*
X176149000Y-103759000D03*
X171069000Y-101219000D03*
X177419000Y-103759000D03*
X176149000Y-101219000D03*
X174879000Y-101219000D03*
X173609000Y-102489000D03*
X173609000Y-101219000D03*
X174879000Y-102489000D03*
X169799000Y-102489000D03*
X177419000Y-99949000D03*
X169799000Y-99949000D03*
X174879000Y-103759000D03*
X171069000Y-103759000D03*
X176149000Y-102489000D03*
X173609000Y-103759000D03*
X169799000Y-103759000D03*
X172339000Y-99949000D03*
X172339000Y-101219000D03*
X173609000Y-99949000D03*
X172339000Y-103759000D03*
X169799000Y-101219000D03*
X171069000Y-99949000D03*
X172339000Y-102489000D03*
X174879000Y-99949000D03*
X177419000Y-102489000D03*
X171069000Y-102489000D03*
X164719000Y-99949000D03*
X165989000Y-101219000D03*
X160909000Y-99949000D03*
X160909000Y-101219000D03*
X163449000Y-99949000D03*
X163449000Y-103759000D03*
X167259000Y-103759000D03*
X165989000Y-99949000D03*
X162179000Y-101219000D03*
X162179000Y-102489000D03*
X164719000Y-102489000D03*
X167259000Y-102489000D03*
X164719000Y-103759000D03*
X168529000Y-99949000D03*
X162179000Y-103759000D03*
X168529000Y-102489000D03*
X162179000Y-99949000D03*
X167259000Y-99949000D03*
X165989000Y-103759000D03*
X163449000Y-101219000D03*
X160909000Y-102489000D03*
X164719000Y-101219000D03*
X168529000Y-101219000D03*
X165989000Y-102489000D03*
X168529000Y-103759000D03*
X167259000Y-101219000D03*
X163449000Y-102489000D03*
X160909000Y-103759000D03*
X157099000Y-99949000D03*
X157099000Y-101219000D03*
X159639000Y-99949000D03*
X159639000Y-103759000D03*
X158369000Y-101219000D03*
X158369000Y-102489000D03*
X155829000Y-102489000D03*
X155829000Y-99949000D03*
X158369000Y-103759000D03*
X158369000Y-99949000D03*
X155829000Y-103759000D03*
X159639000Y-101219000D03*
X157099000Y-102489000D03*
X155829000Y-101219000D03*
X159639000Y-102489000D03*
X157099000Y-103759000D03*
X153289000Y-99949000D03*
X153289000Y-101219000D03*
X152019000Y-102489000D03*
X153289000Y-103759000D03*
X154559000Y-103759000D03*
X150749000Y-103759000D03*
X152019000Y-101219000D03*
X152019000Y-103759000D03*
X150749000Y-99949000D03*
X150749000Y-101219000D03*
X153289000Y-102489000D03*
X154559000Y-102489000D03*
X150749000Y-102489000D03*
X152019000Y-99949000D03*
X154559000Y-99949000D03*
X154559000Y-101219000D03*
X148209000Y-102489000D03*
X148209000Y-103759000D03*
X149479000Y-102489000D03*
X149479000Y-103759000D03*
X149479000Y-101219000D03*
X148209000Y-99949000D03*
X148209000Y-101219000D03*
X149479000Y-99949000D03*
X146939000Y-99949000D03*
X145669000Y-101219000D03*
X146939000Y-101219000D03*
X145669000Y-99949000D03*
X145669000Y-102489000D03*
X146939000Y-102489000D03*
X145669000Y-103759000D03*
X146939000Y-103759000D03*
%TO.N,VOUT*%
X177800000Y-90032001D03*
X178509000Y-92710000D03*
X181864000Y-89789000D03*
X183769000Y-90297000D03*
X182753000Y-90297000D03*
X183769000Y-89154000D03*
X182753000Y-89154000D03*
X183769000Y-88011000D03*
X182753000Y-88011000D03*
X182753000Y-86868000D03*
X183769000Y-86868000D03*
X189611000Y-85725000D03*
X189611000Y-84582000D03*
X189611000Y-83439000D03*
X189738000Y-86868000D03*
X188468000Y-86868000D03*
X187325000Y-86868000D03*
X186055000Y-86868000D03*
X184785000Y-86360000D03*
X173355000Y-87376000D03*
X179324000Y-87376000D03*
X178308000Y-87376000D03*
X177546000Y-87884000D03*
X176530000Y-87884000D03*
X175514000Y-87884000D03*
X174498000Y-87884000D03*
X172212000Y-87884000D03*
X177546000Y-86868000D03*
X176530000Y-86868000D03*
X175514000Y-86868000D03*
X174498000Y-86868000D03*
X172212000Y-86868000D03*
X171196000Y-86868000D03*
X189738000Y-91694000D03*
X189738000Y-90424000D03*
X189738000Y-89154000D03*
X188468000Y-91694000D03*
X188468000Y-90424000D03*
X188468000Y-89154000D03*
%TO.N,Net-(D2-Pad1)*%
X176911000Y-92964000D03*
X185801000Y-95504000D03*
%TO.N,Bat*%
X145415000Y-69215000D03*
X144145000Y-69215000D03*
X142875000Y-69215000D03*
X141605000Y-69215000D03*
X140335000Y-69215000D03*
X139065000Y-69215000D03*
X139065000Y-70485000D03*
X140335000Y-70485000D03*
X141605000Y-70485000D03*
X142875000Y-70485000D03*
X144145000Y-70485000D03*
X145415000Y-70485000D03*
X145415000Y-71755000D03*
X144145000Y-71755000D03*
X142875000Y-71755000D03*
X141605000Y-71755000D03*
X140335000Y-71755000D03*
X139065000Y-71755000D03*
X139065000Y-73025000D03*
X140335000Y-73025000D03*
X141605000Y-73025000D03*
X142875000Y-73025000D03*
X144145000Y-73025000D03*
X145415000Y-73025000D03*
X145415000Y-74295000D03*
X144145000Y-74295000D03*
X142875000Y-74295000D03*
X141605000Y-74295000D03*
X140335000Y-74295000D03*
X139065000Y-74295000D03*
X139065000Y-75565000D03*
X140335000Y-75565000D03*
X141605000Y-75565000D03*
X142875000Y-75565000D03*
X144145000Y-75565000D03*
X145415000Y-75565000D03*
X145415000Y-76835000D03*
X144145000Y-76835000D03*
X142875000Y-76835000D03*
X141605000Y-76835000D03*
X140335000Y-76835000D03*
X139065000Y-76835000D03*
X139065000Y-78105000D03*
X140335000Y-78105000D03*
X141605000Y-78105000D03*
X142875000Y-78105000D03*
X144145000Y-78105000D03*
X145415000Y-78105000D03*
X145415000Y-79375000D03*
X144145000Y-79375000D03*
X142875000Y-79375000D03*
X141605000Y-79375000D03*
X140335000Y-79375000D03*
X139065000Y-79375000D03*
X139065000Y-81915000D03*
X140335000Y-81915000D03*
X141605000Y-81915000D03*
X142875000Y-81915000D03*
X144145000Y-81915000D03*
X144145000Y-84455000D03*
X142875000Y-84455000D03*
X141605000Y-84455000D03*
X140335000Y-84455000D03*
X139065000Y-84455000D03*
X144145000Y-83185000D03*
X142875000Y-83185000D03*
X141605000Y-83185000D03*
X140335000Y-83185000D03*
X139065000Y-83185000D03*
X144145000Y-85725000D03*
X142875000Y-85725000D03*
X141605000Y-85725000D03*
X140335000Y-85725000D03*
X139065000Y-85725000D03*
%TO.N,VIN*%
X179705000Y-76835000D03*
X180975000Y-76835000D03*
X182245000Y-76835000D03*
X183515000Y-76835000D03*
X184785000Y-76835000D03*
X186055000Y-76835000D03*
X187325000Y-76835000D03*
X188595000Y-76835000D03*
X189865000Y-76835000D03*
X189865000Y-78105000D03*
X188595000Y-78105000D03*
X187325000Y-78105000D03*
X186055000Y-78105000D03*
X184785000Y-78105000D03*
X183515000Y-78105000D03*
X182245000Y-78105000D03*
X180975000Y-78105000D03*
X189865000Y-79375000D03*
X188595000Y-79375000D03*
X187325000Y-79375000D03*
X186055000Y-79375000D03*
X184785000Y-79375000D03*
X183515000Y-79375000D03*
X182245000Y-79375000D03*
X180975000Y-79375000D03*
X179705000Y-79375000D03*
X179705000Y-69215000D03*
X180975000Y-69215000D03*
X182245000Y-69215000D03*
X183515000Y-69215000D03*
X184785000Y-69215000D03*
X186055000Y-69215000D03*
X187325000Y-69215000D03*
X188595000Y-69215000D03*
X189865000Y-69215000D03*
X189865000Y-70485000D03*
X188595000Y-70485000D03*
X187325000Y-70485000D03*
X186055000Y-70485000D03*
X184785000Y-70485000D03*
X183515000Y-70485000D03*
X182245000Y-70485000D03*
X180975000Y-70485000D03*
X179705000Y-70485000D03*
X178435000Y-70485000D03*
X177165000Y-70485000D03*
X175895000Y-70485000D03*
X174625000Y-70485000D03*
X173355000Y-70485000D03*
X172085000Y-70485000D03*
X170815000Y-70485000D03*
X169545000Y-70485000D03*
X168275000Y-70485000D03*
X168275000Y-69215000D03*
X169545000Y-69215000D03*
X170815000Y-69215000D03*
X172085000Y-69215000D03*
X173355000Y-69215000D03*
X174625000Y-69215000D03*
X175895000Y-69215000D03*
X177165000Y-69215000D03*
X178435000Y-69215000D03*
X178435000Y-79375000D03*
X177165000Y-79375000D03*
X175895000Y-79375000D03*
X174625000Y-79375000D03*
X173355000Y-79375000D03*
X178435000Y-76835000D03*
X177165000Y-76835000D03*
X175895000Y-76835000D03*
X174625000Y-76835000D03*
X173355000Y-76835000D03*
X172085000Y-76835000D03*
X170815000Y-76835000D03*
X169545000Y-76835000D03*
X168275000Y-76835000D03*
X173355000Y-78105000D03*
X174625000Y-78105000D03*
X175895000Y-78105000D03*
X177165000Y-78105000D03*
X178435000Y-78105000D03*
X166370000Y-79375000D03*
X165100000Y-79375000D03*
X165100000Y-78105000D03*
X166370000Y-78105000D03*
X166370000Y-76835000D03*
X165100000Y-76835000D03*
X163830000Y-76835000D03*
X162560000Y-76835000D03*
X161290000Y-76835000D03*
X160020000Y-76835000D03*
X160020000Y-75565000D03*
X161290000Y-75565000D03*
X162560000Y-75565000D03*
X163830000Y-75565000D03*
X165100000Y-75565000D03*
X166370000Y-75565000D03*
X166370000Y-74295000D03*
X165100000Y-74295000D03*
X163830000Y-74295000D03*
X162560000Y-74295000D03*
X161290000Y-74295000D03*
X160020000Y-74295000D03*
X160020000Y-73025000D03*
X161290000Y-73025000D03*
X162560000Y-73025000D03*
X163830000Y-73025000D03*
X165100000Y-73025000D03*
X166370000Y-73025000D03*
X166370000Y-71755000D03*
X165100000Y-71755000D03*
X163830000Y-71755000D03*
X162560000Y-71755000D03*
X161290000Y-71755000D03*
X160020000Y-71755000D03*
X160020000Y-70485000D03*
X161290000Y-70485000D03*
X162560000Y-70485000D03*
X163830000Y-70485000D03*
X165100000Y-70485000D03*
X166370000Y-70485000D03*
X166370000Y-69215000D03*
X165100000Y-69215000D03*
X163830000Y-69215000D03*
X162560000Y-69215000D03*
X161290000Y-69215000D03*
X160020000Y-69215000D03*
%TO.N,VOUT*%
X187325000Y-91694000D03*
X186055000Y-91694000D03*
X184785000Y-91694000D03*
X187325000Y-90424000D03*
X186055000Y-90424000D03*
X184785000Y-90424000D03*
X187325000Y-89154000D03*
X186055000Y-89154000D03*
X184785000Y-89154000D03*
X187325000Y-87884000D03*
X189738000Y-87884000D03*
X186055000Y-87884000D03*
X188468000Y-87884000D03*
X184785000Y-85090000D03*
X184785000Y-83820000D03*
X179324000Y-83820000D03*
X179324000Y-85090000D03*
X179324000Y-86360000D03*
X178435000Y-86360000D03*
X178435000Y-85090000D03*
X178435000Y-83820000D03*
X179070000Y-82550000D03*
X180086000Y-82296000D03*
X181864000Y-82296000D03*
X182880000Y-82550000D03*
X184150000Y-82550000D03*
X185420000Y-82550000D03*
X186690000Y-82550000D03*
X187960000Y-82550000D03*
X189230000Y-82550000D03*
X184785000Y-87884000D03*
X188595000Y-81280000D03*
X187325000Y-81280000D03*
X186055000Y-81280000D03*
X184785000Y-81280000D03*
X183515000Y-81280000D03*
X182245000Y-81280000D03*
X180975000Y-81280000D03*
X179705000Y-81280000D03*
X178435000Y-81280000D03*
X177800000Y-82550000D03*
X177165000Y-81280000D03*
X175895000Y-81280000D03*
X176530000Y-82550000D03*
X174625000Y-81280000D03*
X173355000Y-81280000D03*
X173355000Y-86360000D03*
X173355000Y-85090000D03*
X173355000Y-83820000D03*
X173990000Y-82550000D03*
X172720000Y-82550000D03*
X171450000Y-82550000D03*
X175260000Y-82550000D03*
%TD*%
D28*
%TO.N,VIN*%
X163957000Y-88339000D02*
X165307000Y-88339000D01*
X167567000Y-87884000D02*
X168087000Y-88404000D01*
X165307000Y-88339000D02*
X165762000Y-87884000D01*
X165762000Y-87884000D02*
X167567000Y-87884000D01*
X168087000Y-88404000D02*
X169037000Y-88404000D01*
D29*
X174551000Y-96774000D02*
X177639000Y-96774000D01*
X177639000Y-96774000D02*
X178509000Y-95904000D01*
X178509000Y-95904000D02*
X178509000Y-95504000D01*
X169037000Y-88404000D02*
X169237000Y-88404000D01*
X172426999Y-94649999D02*
X173401000Y-95624000D01*
X169237000Y-88404000D02*
X172426999Y-91593999D01*
X172426999Y-91593999D02*
X172426999Y-94649999D01*
X173401000Y-95624000D02*
X173801000Y-95624000D01*
X173801000Y-95624000D02*
X174551000Y-96374000D01*
X174551000Y-96374000D02*
X174551000Y-96774000D01*
D30*
X157861000Y-91452000D02*
X157861000Y-89355000D01*
X157861000Y-89355000D02*
X157787000Y-89281000D01*
D28*
X152580000Y-88392000D02*
X152580000Y-87992000D01*
X152580000Y-87992000D02*
X152891001Y-87680999D01*
X152891001Y-87680999D02*
X158773999Y-87680999D01*
X158773999Y-87680999D02*
X159432000Y-88339000D01*
X159432000Y-88339000D02*
X160782000Y-88339000D01*
X157787000Y-89281000D02*
X159840000Y-89281000D01*
X159840000Y-89281000D02*
X160782000Y-88339000D01*
X161290000Y-85090000D02*
X161290000Y-87831000D01*
X161290000Y-87831000D02*
X160782000Y-88339000D01*
X163957000Y-88339000D02*
X160782000Y-88339000D01*
D30*
X169049000Y-88392000D02*
X169037000Y-88404000D01*
D29*
%TO.N,VOUT*%
X177033990Y-90032001D02*
X176883991Y-90182000D01*
X176883991Y-90182000D02*
X175514000Y-90182000D01*
X177800000Y-90032001D02*
X177033990Y-90032001D01*
X175514000Y-90182000D02*
X175514000Y-87884000D01*
%TO.N,Net-(C1-Pad1)*%
X173777000Y-93464000D02*
X176002000Y-93464000D01*
X176002000Y-93464000D02*
X176657000Y-94119000D01*
D28*
%TO.N,VIN*%
X164022000Y-88404000D02*
X163957000Y-88339000D01*
D31*
X161290000Y-85090000D02*
X161290000Y-76454000D01*
X161290000Y-76454000D02*
X163449000Y-74295000D01*
D32*
%TO.N,Net-(R1-Pad2)*%
X162687000Y-92964000D02*
X162572000Y-92849000D01*
X162572000Y-92849000D02*
X160782000Y-92849000D01*
X169377000Y-92964000D02*
X162687000Y-92964000D01*
D30*
X160782000Y-91239000D02*
X160782000Y-92849000D01*
D29*
%TO.N,UVLO*%
X151892000Y-91440000D02*
X154051000Y-89281000D01*
X154051000Y-89281000D02*
X154887000Y-89281000D01*
X148832000Y-92964000D02*
X150368000Y-92964000D01*
X150368000Y-92964000D02*
X151892000Y-91440000D01*
X169377000Y-93464000D02*
X160426998Y-93464000D01*
X160426998Y-93464000D02*
X159314999Y-92352001D01*
X159314999Y-92352001D02*
X156808001Y-92352001D01*
X156210000Y-89854000D02*
X155637000Y-89281000D01*
X156808001Y-92352001D02*
X156210000Y-91754000D01*
X156210000Y-91754000D02*
X156210000Y-89854000D01*
X155637000Y-89281000D02*
X154887000Y-89281000D01*
%TO.N,Net-(R7-Pad2)*%
X142367000Y-88265000D02*
X147066000Y-92964000D01*
X147066000Y-92964000D02*
X147332000Y-92964000D01*
%TO.N,Net-(Ro1-Pad2)*%
X173777000Y-92464000D02*
X175282000Y-92464000D01*
X175282000Y-92464000D02*
X175514000Y-92232000D01*
X175514000Y-92232000D02*
X175514000Y-91682000D01*
%TO.N,Net-(Rsns1-Pad2)*%
X169037000Y-89904000D02*
X169037000Y-91624000D01*
X169037000Y-91624000D02*
X169377000Y-91964000D01*
%TO.N,G*%
X169545000Y-84711540D02*
X169545000Y-87282000D01*
X169545000Y-87282000D02*
X173777000Y-91514000D01*
X180975000Y-84711540D02*
X180975000Y-89027000D01*
X180975000Y-89027000D02*
X178919999Y-91082001D01*
X178919999Y-91082001D02*
X174208999Y-91082001D01*
X174208999Y-91082001D02*
X173777000Y-91514000D01*
X173777000Y-91514000D02*
X173777000Y-91964000D01*
%TO.N,Net-(C3-Pad1)*%
X147685000Y-88392000D02*
X149680000Y-88392000D01*
%TO.N,Net-(D2-Pad2)*%
X181409000Y-95504000D02*
X183096000Y-95504000D01*
%TO.N,Net-(D3-Pad2)*%
X171651000Y-96774000D02*
X171651000Y-97174000D01*
X171651000Y-97174000D02*
X172751001Y-98274001D01*
X172751001Y-98274001D02*
X181149999Y-98274001D01*
X181149999Y-98274001D02*
X182396000Y-97028000D01*
X182396000Y-97028000D02*
X183096000Y-97028000D01*
%TO.N,Net-(D4-Pad2)*%
X181409000Y-92710000D02*
X181826000Y-92710000D01*
X181826000Y-92710000D02*
X183096000Y-93980000D01*
%TO.N,Net-(D2-Pad1)*%
X176911000Y-92964000D02*
X176345315Y-92964000D01*
X176345315Y-92964000D02*
X173777000Y-92964000D01*
X184696000Y-95504000D02*
X185801000Y-95504000D01*
%TO.N,Net-(C2-Pad1)*%
X165308000Y-91440000D02*
X165324000Y-91424000D01*
X165324000Y-91424000D02*
X166497000Y-91424000D01*
X163957000Y-91239000D02*
X165107000Y-91239000D01*
X165107000Y-91239000D02*
X165308000Y-91440000D01*
D32*
X169377000Y-92464000D02*
X166787000Y-92464000D01*
X166787000Y-92464000D02*
X166497000Y-92174000D01*
X166497000Y-92174000D02*
X166497000Y-91424000D01*
D29*
%TO.N,Net-(JP1-Pad2)*%
X140081000Y-95250000D02*
X156113000Y-95250000D01*
X156113000Y-95250000D02*
X157861000Y-93502000D01*
X157861000Y-93502000D02*
X157861000Y-92952000D01*
%TO.N,Net-(JP1-Pad1)*%
X161290000Y-97790000D02*
X165116000Y-93964000D01*
X165116000Y-93964000D02*
X169377000Y-93964000D01*
X140081000Y-97790000D02*
X161290000Y-97790000D01*
%TD*%
D33*
%TO.N,Bat*%
G36*
X146685000Y-79957394D02*
X144690197Y-81952197D01*
X144662667Y-81993399D01*
X144653000Y-82042000D01*
X144653000Y-86233000D01*
X138657000Y-86233000D01*
X138657000Y-69315000D01*
X146685000Y-69315000D01*
X146685000Y-79957394D01*
X146685000Y-79957394D01*
G37*
X146685000Y-79957394D02*
X144690197Y-81952197D01*
X144662667Y-81993399D01*
X144653000Y-82042000D01*
X144653000Y-86233000D01*
X138657000Y-86233000D01*
X138657000Y-69315000D01*
X146685000Y-69315000D01*
X146685000Y-79957394D01*
%TO.N,VIN*%
G36*
X190273000Y-79883000D02*
X159385000Y-79883000D01*
X159385000Y-69315000D01*
X190273000Y-69315000D01*
X190273000Y-79883000D01*
X190273000Y-79883000D01*
G37*
X190273000Y-79883000D02*
X159385000Y-79883000D01*
X159385000Y-69315000D01*
X190273000Y-69315000D01*
X190273000Y-79883000D01*
%TO.N,VOUT*%
G36*
X190119000Y-82348606D02*
X190119000Y-92329000D01*
X183694606Y-92329000D01*
X181238882Y-89873276D01*
X181530079Y-89582079D01*
X181700245Y-89327407D01*
X181760000Y-89027000D01*
X181760000Y-86851327D01*
X181882389Y-86769549D01*
X182022737Y-86559505D01*
X182072020Y-86311740D01*
X182072020Y-83111340D01*
X182022737Y-82863575D01*
X181882389Y-82653531D01*
X181672345Y-82513183D01*
X181424580Y-82463900D01*
X180525420Y-82463900D01*
X180277655Y-82513183D01*
X180067611Y-82653531D01*
X179927263Y-82863575D01*
X179877980Y-83111340D01*
X179877980Y-86311740D01*
X179927263Y-86559505D01*
X180067611Y-86769549D01*
X180190000Y-86851327D01*
X180190000Y-88701842D01*
X180128724Y-88763118D01*
X179667803Y-88302197D01*
X179626601Y-88274667D01*
X179578000Y-88265000D01*
X171756606Y-88265000D01*
X170337753Y-86846147D01*
X170452389Y-86769549D01*
X170592737Y-86559505D01*
X170642020Y-86311740D01*
X170642020Y-83111340D01*
X170592737Y-82863575D01*
X170452389Y-82653531D01*
X170380364Y-82605405D01*
X171517968Y-80899000D01*
X188669394Y-80899000D01*
X190119000Y-82348606D01*
X190119000Y-82348606D01*
G37*
X190119000Y-82348606D02*
X190119000Y-92329000D01*
X183694606Y-92329000D01*
X181238882Y-89873276D01*
X181530079Y-89582079D01*
X181700245Y-89327407D01*
X181760000Y-89027000D01*
X181760000Y-86851327D01*
X181882389Y-86769549D01*
X182022737Y-86559505D01*
X182072020Y-86311740D01*
X182072020Y-83111340D01*
X182022737Y-82863575D01*
X181882389Y-82653531D01*
X181672345Y-82513183D01*
X181424580Y-82463900D01*
X180525420Y-82463900D01*
X180277655Y-82513183D01*
X180067611Y-82653531D01*
X179927263Y-82863575D01*
X179877980Y-83111340D01*
X179877980Y-86311740D01*
X179927263Y-86559505D01*
X180067611Y-86769549D01*
X180190000Y-86851327D01*
X180190000Y-88701842D01*
X180128724Y-88763118D01*
X179667803Y-88302197D01*
X179626601Y-88274667D01*
X179578000Y-88265000D01*
X171756606Y-88265000D01*
X170337753Y-86846147D01*
X170452389Y-86769549D01*
X170592737Y-86559505D01*
X170642020Y-86311740D01*
X170642020Y-83111340D01*
X170592737Y-82863575D01*
X170452389Y-82653531D01*
X170380364Y-82605405D01*
X171517968Y-80899000D01*
X188669394Y-80899000D01*
X190119000Y-82348606D01*
%TO.N,GND*%
G36*
X158623000Y-80010000D02*
X158671336Y-80253004D01*
X158808987Y-80459013D01*
X159014996Y-80596664D01*
X159258000Y-80645000D01*
X159913000Y-80645000D01*
X159913000Y-84165679D01*
X159911501Y-84167175D01*
X159663283Y-84764950D01*
X159662718Y-85412211D01*
X159909892Y-86010418D01*
X160367175Y-86468499D01*
X160413000Y-86487527D01*
X160413000Y-87249717D01*
X159932000Y-87249717D01*
X159687357Y-87298380D01*
X159653961Y-87320695D01*
X159394132Y-87060866D01*
X159109612Y-86870757D01*
X158773999Y-86803999D01*
X152891006Y-86803999D01*
X152891001Y-86803998D01*
X152555388Y-86870757D01*
X152507556Y-86902717D01*
X152130000Y-86902717D01*
X151885357Y-86951380D01*
X151677959Y-87089959D01*
X151539380Y-87297357D01*
X151490717Y-87542000D01*
X151490717Y-89242000D01*
X151539380Y-89486643D01*
X151677959Y-89694041D01*
X151885357Y-89832620D01*
X152130000Y-89881283D01*
X152776137Y-89881283D01*
X152524007Y-90133413D01*
X152391745Y-90107104D01*
X151392255Y-90107104D01*
X151073422Y-90170524D01*
X150803128Y-90351128D01*
X150622524Y-90621422D01*
X150559104Y-90940255D01*
X150559104Y-91939745D01*
X150585413Y-92072007D01*
X150170420Y-92487000D01*
X149410035Y-92487000D01*
X149390027Y-92386411D01*
X149317754Y-92278246D01*
X149209589Y-92205973D01*
X149082000Y-92180594D01*
X148582000Y-92180594D01*
X148454411Y-92205973D01*
X148346246Y-92278246D01*
X148273973Y-92386411D01*
X148248594Y-92514000D01*
X148248594Y-93414000D01*
X148273973Y-93541589D01*
X148346246Y-93649754D01*
X148454411Y-93722027D01*
X148582000Y-93747406D01*
X149082000Y-93747406D01*
X149209589Y-93722027D01*
X149317754Y-93649754D01*
X149390027Y-93541589D01*
X149410035Y-93441000D01*
X150368000Y-93441000D01*
X150550540Y-93404691D01*
X150705290Y-93301290D01*
X151259993Y-92746587D01*
X151392255Y-92772896D01*
X152391745Y-92772896D01*
X152710578Y-92709476D01*
X152980872Y-92528872D01*
X153161476Y-92258578D01*
X153224896Y-91939745D01*
X153224896Y-90940255D01*
X153198587Y-90807993D01*
X154103594Y-89902986D01*
X154103594Y-90131000D01*
X154128973Y-90258589D01*
X154201246Y-90366754D01*
X154309411Y-90439027D01*
X154437000Y-90464406D01*
X155337000Y-90464406D01*
X155464589Y-90439027D01*
X155572754Y-90366754D01*
X155645027Y-90258589D01*
X155670406Y-90131000D01*
X155670406Y-89988986D01*
X155733000Y-90051580D01*
X155733000Y-91754000D01*
X155769309Y-91936540D01*
X155872710Y-92091290D01*
X156470711Y-92689291D01*
X156625461Y-92792692D01*
X156808001Y-92829001D01*
X157077594Y-92829001D01*
X157077594Y-93202000D01*
X157102973Y-93329589D01*
X157175246Y-93437754D01*
X157220457Y-93467963D01*
X155915420Y-94773000D01*
X141619375Y-94773000D01*
X141566754Y-94694246D01*
X141458589Y-94621973D01*
X141331000Y-94596594D01*
X138831000Y-94596594D01*
X138703411Y-94621973D01*
X138595246Y-94694246D01*
X138522973Y-94802411D01*
X138497594Y-94930000D01*
X138497594Y-95570000D01*
X138522973Y-95697589D01*
X138595246Y-95805754D01*
X138703411Y-95878027D01*
X138831000Y-95903406D01*
X141331000Y-95903406D01*
X141458589Y-95878027D01*
X141566754Y-95805754D01*
X141619375Y-95727000D01*
X156113000Y-95727000D01*
X156295540Y-95690691D01*
X156450290Y-95587290D01*
X158198290Y-93839290D01*
X158301691Y-93684541D01*
X158332194Y-93531190D01*
X158438589Y-93510027D01*
X158546754Y-93437754D01*
X158619027Y-93329589D01*
X158644406Y-93202000D01*
X158644406Y-92829001D01*
X159117419Y-92829001D01*
X160089708Y-93801290D01*
X160244458Y-93904691D01*
X160426998Y-93941000D01*
X164464420Y-93941000D01*
X161092420Y-97313000D01*
X141619375Y-97313000D01*
X141566754Y-97234246D01*
X141458589Y-97161973D01*
X141331000Y-97136594D01*
X138831000Y-97136594D01*
X138703411Y-97161973D01*
X138595246Y-97234246D01*
X138522973Y-97342411D01*
X138497594Y-97470000D01*
X138497594Y-98110000D01*
X138522973Y-98237589D01*
X138595246Y-98345754D01*
X138703411Y-98418027D01*
X138831000Y-98443406D01*
X141331000Y-98443406D01*
X141458589Y-98418027D01*
X141566754Y-98345754D01*
X141619375Y-98267000D01*
X161290000Y-98267000D01*
X161472540Y-98230691D01*
X161627290Y-98127290D01*
X165313580Y-94441000D01*
X168644795Y-94441000D01*
X168677000Y-94447406D01*
X170077000Y-94447406D01*
X170204589Y-94422027D01*
X170312754Y-94349754D01*
X170385027Y-94241589D01*
X170410406Y-94114000D01*
X170410406Y-93814000D01*
X170390515Y-93714000D01*
X170410406Y-93614000D01*
X170410406Y-93314000D01*
X170390515Y-93214000D01*
X170410406Y-93114000D01*
X170410406Y-92814000D01*
X170390515Y-92714000D01*
X170410406Y-92614000D01*
X170410406Y-92314000D01*
X170390515Y-92214000D01*
X170410406Y-92114000D01*
X170410406Y-91814000D01*
X170385027Y-91686411D01*
X170312754Y-91578246D01*
X170204589Y-91505973D01*
X170077000Y-91480594D01*
X169568174Y-91480594D01*
X169514000Y-91426420D01*
X169514000Y-90482035D01*
X169614589Y-90462027D01*
X169722754Y-90389754D01*
X169795027Y-90281589D01*
X169820406Y-90154000D01*
X169820406Y-90086250D01*
X171649999Y-91915843D01*
X171649999Y-94649999D01*
X171709145Y-94947344D01*
X171877577Y-95199421D01*
X172851578Y-96173422D01*
X173103655Y-96341854D01*
X173401000Y-96401000D01*
X173461717Y-96401000D01*
X173461717Y-97624000D01*
X173496129Y-97797001D01*
X172948581Y-97797001D01*
X172434406Y-97282826D01*
X172434406Y-95924000D01*
X172409027Y-95796411D01*
X172336754Y-95688246D01*
X172228589Y-95615973D01*
X172101000Y-95590594D01*
X171201000Y-95590594D01*
X171073411Y-95615973D01*
X170965246Y-95688246D01*
X170892973Y-95796411D01*
X170867594Y-95924000D01*
X170867594Y-97624000D01*
X170892973Y-97751589D01*
X170965246Y-97859754D01*
X171073411Y-97932027D01*
X171201000Y-97957406D01*
X171759826Y-97957406D01*
X172413711Y-98611291D01*
X172568460Y-98714692D01*
X172751001Y-98751001D01*
X181149999Y-98751001D01*
X181332539Y-98714692D01*
X181487289Y-98611291D01*
X182450064Y-97648516D01*
X182460246Y-97663754D01*
X182568411Y-97736027D01*
X182696000Y-97761406D01*
X183496000Y-97761406D01*
X183623589Y-97736027D01*
X183731754Y-97663754D01*
X183804027Y-97555589D01*
X183829406Y-97428000D01*
X183829406Y-96628000D01*
X183804027Y-96500411D01*
X183731754Y-96392246D01*
X183623589Y-96319973D01*
X183496000Y-96294594D01*
X182696000Y-96294594D01*
X182568411Y-96319973D01*
X182460246Y-96392246D01*
X182387973Y-96500411D01*
X182377165Y-96554746D01*
X182213460Y-96587309D01*
X182058710Y-96690710D01*
X180952419Y-97797001D01*
X175605871Y-97797001D01*
X175640283Y-97624000D01*
X175640283Y-97551000D01*
X177639000Y-97551000D01*
X177936345Y-97491854D01*
X178188422Y-97323422D01*
X178518561Y-96993283D01*
X178959000Y-96993283D01*
X179203643Y-96944620D01*
X179411041Y-96806041D01*
X179549620Y-96598643D01*
X179598283Y-96354000D01*
X179598283Y-94654000D01*
X180625594Y-94654000D01*
X180625594Y-96354000D01*
X180650973Y-96481589D01*
X180723246Y-96589754D01*
X180831411Y-96662027D01*
X180959000Y-96687406D01*
X181859000Y-96687406D01*
X181986589Y-96662027D01*
X182094754Y-96589754D01*
X182167027Y-96481589D01*
X182192406Y-96354000D01*
X182192406Y-95981000D01*
X182377910Y-95981000D01*
X182387973Y-96031589D01*
X182460246Y-96139754D01*
X182568411Y-96212027D01*
X182696000Y-96237406D01*
X183496000Y-96237406D01*
X183623589Y-96212027D01*
X183731754Y-96139754D01*
X183804027Y-96031589D01*
X183829406Y-95904000D01*
X183829406Y-95104000D01*
X183962594Y-95104000D01*
X183962594Y-95904000D01*
X183987973Y-96031589D01*
X184060246Y-96139754D01*
X184168411Y-96212027D01*
X184296000Y-96237406D01*
X185096000Y-96237406D01*
X185223589Y-96212027D01*
X185331754Y-96139754D01*
X185362489Y-96093755D01*
X185388650Y-96119961D01*
X185655756Y-96230874D01*
X185944975Y-96231126D01*
X186212275Y-96120680D01*
X186416961Y-95916350D01*
X186527874Y-95649244D01*
X186528126Y-95360025D01*
X186417680Y-95092725D01*
X186213350Y-94888039D01*
X185946244Y-94777126D01*
X185657025Y-94776874D01*
X185389725Y-94887320D01*
X185362595Y-94914403D01*
X185331754Y-94868246D01*
X185223589Y-94795973D01*
X185096000Y-94770594D01*
X184296000Y-94770594D01*
X184168411Y-94795973D01*
X184060246Y-94868246D01*
X183987973Y-94976411D01*
X183962594Y-95104000D01*
X183829406Y-95104000D01*
X183804027Y-94976411D01*
X183731754Y-94868246D01*
X183623589Y-94795973D01*
X183496000Y-94770594D01*
X182696000Y-94770594D01*
X182568411Y-94795973D01*
X182460246Y-94868246D01*
X182387973Y-94976411D01*
X182377910Y-95027000D01*
X182192406Y-95027000D01*
X182192406Y-94654000D01*
X182167027Y-94526411D01*
X182094754Y-94418246D01*
X181986589Y-94345973D01*
X181859000Y-94320594D01*
X180959000Y-94320594D01*
X180831411Y-94345973D01*
X180723246Y-94418246D01*
X180650973Y-94526411D01*
X180625594Y-94654000D01*
X179598283Y-94654000D01*
X179549620Y-94409357D01*
X179411041Y-94201959D01*
X179268925Y-94107000D01*
X179411041Y-94012041D01*
X179549620Y-93804643D01*
X179598283Y-93560000D01*
X179598283Y-91860000D01*
X179549620Y-91615357D01*
X179411041Y-91407959D01*
X179325666Y-91350914D01*
X180482277Y-90194303D01*
X181814568Y-91526594D01*
X180959000Y-91526594D01*
X180831411Y-91551973D01*
X180723246Y-91624246D01*
X180650973Y-91732411D01*
X180625594Y-91860000D01*
X180625594Y-93560000D01*
X180650973Y-93687589D01*
X180723246Y-93795754D01*
X180831411Y-93868027D01*
X180959000Y-93893406D01*
X181859000Y-93893406D01*
X181986589Y-93868027D01*
X182094754Y-93795754D01*
X182151799Y-93710379D01*
X182362594Y-93921174D01*
X182362594Y-94380000D01*
X182387973Y-94507589D01*
X182460246Y-94615754D01*
X182568411Y-94688027D01*
X182696000Y-94713406D01*
X183496000Y-94713406D01*
X183623589Y-94688027D01*
X183731754Y-94615754D01*
X183804027Y-94507589D01*
X183829406Y-94380000D01*
X183829406Y-93580000D01*
X183804027Y-93452411D01*
X183731754Y-93344246D01*
X183623589Y-93271973D01*
X183496000Y-93246594D01*
X183037174Y-93246594D01*
X182192406Y-92401826D01*
X182192406Y-91904432D01*
X183192987Y-92905013D01*
X183398996Y-93042664D01*
X183642000Y-93091000D01*
X190246000Y-93091000D01*
X190489004Y-93042664D01*
X190581000Y-92981194D01*
X190581000Y-104475000D01*
X138349000Y-104475000D01*
X138349000Y-88472348D01*
X141319819Y-88472348D01*
X141478879Y-88857303D01*
X141773148Y-89152086D01*
X142157825Y-89311818D01*
X142574348Y-89312181D01*
X142691284Y-89263864D01*
X146728710Y-93301290D01*
X146748594Y-93314576D01*
X146748594Y-93414000D01*
X146773973Y-93541589D01*
X146846246Y-93649754D01*
X146954411Y-93722027D01*
X147082000Y-93747406D01*
X147582000Y-93747406D01*
X147709589Y-93722027D01*
X147817754Y-93649754D01*
X147890027Y-93541589D01*
X147915406Y-93414000D01*
X147915406Y-92514000D01*
X147890027Y-92386411D01*
X147817754Y-92278246D01*
X147709589Y-92205973D01*
X147582000Y-92180594D01*
X147082000Y-92180594D01*
X146977884Y-92201304D01*
X143365975Y-88589395D01*
X143413818Y-88474175D01*
X143414181Y-88057652D01*
X143352347Y-87908000D01*
X146615594Y-87908000D01*
X146615594Y-88908000D01*
X146640973Y-89035589D01*
X146713246Y-89143754D01*
X146821411Y-89216027D01*
X146949000Y-89241406D01*
X148199000Y-89241406D01*
X148326589Y-89216027D01*
X148434754Y-89143754D01*
X148507027Y-89035589D01*
X148532406Y-88908000D01*
X148532406Y-88869000D01*
X148896594Y-88869000D01*
X148896594Y-89242000D01*
X148921973Y-89369589D01*
X148994246Y-89477754D01*
X149102411Y-89550027D01*
X149230000Y-89575406D01*
X150130000Y-89575406D01*
X150257589Y-89550027D01*
X150365754Y-89477754D01*
X150438027Y-89369589D01*
X150463406Y-89242000D01*
X150463406Y-87542000D01*
X150438027Y-87414411D01*
X150365754Y-87306246D01*
X150257589Y-87233973D01*
X150130000Y-87208594D01*
X149230000Y-87208594D01*
X149102411Y-87233973D01*
X148994246Y-87306246D01*
X148921973Y-87414411D01*
X148896594Y-87542000D01*
X148896594Y-87915000D01*
X148532406Y-87915000D01*
X148532406Y-87908000D01*
X148507027Y-87780411D01*
X148434754Y-87672246D01*
X148326589Y-87599973D01*
X148199000Y-87574594D01*
X146949000Y-87574594D01*
X146821411Y-87599973D01*
X146713246Y-87672246D01*
X146640973Y-87780411D01*
X146615594Y-87908000D01*
X143352347Y-87908000D01*
X143255121Y-87672697D01*
X142960852Y-87377914D01*
X142576175Y-87218182D01*
X142159652Y-87217819D01*
X141774697Y-87376879D01*
X141479914Y-87671148D01*
X141320182Y-88055825D01*
X141319819Y-88472348D01*
X138349000Y-88472348D01*
X138349000Y-86978888D01*
X138430000Y-86995000D01*
X144780000Y-86995000D01*
X145023004Y-86946664D01*
X145229013Y-86809013D01*
X145366664Y-86603004D01*
X145415000Y-86360000D01*
X145415000Y-82305026D01*
X147261013Y-80459013D01*
X147398664Y-80253004D01*
X147447000Y-80010000D01*
X147447000Y-69007000D01*
X158623000Y-69007000D01*
X158623000Y-80010000D01*
X158623000Y-80010000D01*
G37*
X158623000Y-80010000D02*
X158671336Y-80253004D01*
X158808987Y-80459013D01*
X159014996Y-80596664D01*
X159258000Y-80645000D01*
X159913000Y-80645000D01*
X159913000Y-84165679D01*
X159911501Y-84167175D01*
X159663283Y-84764950D01*
X159662718Y-85412211D01*
X159909892Y-86010418D01*
X160367175Y-86468499D01*
X160413000Y-86487527D01*
X160413000Y-87249717D01*
X159932000Y-87249717D01*
X159687357Y-87298380D01*
X159653961Y-87320695D01*
X159394132Y-87060866D01*
X159109612Y-86870757D01*
X158773999Y-86803999D01*
X152891006Y-86803999D01*
X152891001Y-86803998D01*
X152555388Y-86870757D01*
X152507556Y-86902717D01*
X152130000Y-86902717D01*
X151885357Y-86951380D01*
X151677959Y-87089959D01*
X151539380Y-87297357D01*
X151490717Y-87542000D01*
X151490717Y-89242000D01*
X151539380Y-89486643D01*
X151677959Y-89694041D01*
X151885357Y-89832620D01*
X152130000Y-89881283D01*
X152776137Y-89881283D01*
X152524007Y-90133413D01*
X152391745Y-90107104D01*
X151392255Y-90107104D01*
X151073422Y-90170524D01*
X150803128Y-90351128D01*
X150622524Y-90621422D01*
X150559104Y-90940255D01*
X150559104Y-91939745D01*
X150585413Y-92072007D01*
X150170420Y-92487000D01*
X149410035Y-92487000D01*
X149390027Y-92386411D01*
X149317754Y-92278246D01*
X149209589Y-92205973D01*
X149082000Y-92180594D01*
X148582000Y-92180594D01*
X148454411Y-92205973D01*
X148346246Y-92278246D01*
X148273973Y-92386411D01*
X148248594Y-92514000D01*
X148248594Y-93414000D01*
X148273973Y-93541589D01*
X148346246Y-93649754D01*
X148454411Y-93722027D01*
X148582000Y-93747406D01*
X149082000Y-93747406D01*
X149209589Y-93722027D01*
X149317754Y-93649754D01*
X149390027Y-93541589D01*
X149410035Y-93441000D01*
X150368000Y-93441000D01*
X150550540Y-93404691D01*
X150705290Y-93301290D01*
X151259993Y-92746587D01*
X151392255Y-92772896D01*
X152391745Y-92772896D01*
X152710578Y-92709476D01*
X152980872Y-92528872D01*
X153161476Y-92258578D01*
X153224896Y-91939745D01*
X153224896Y-90940255D01*
X153198587Y-90807993D01*
X154103594Y-89902986D01*
X154103594Y-90131000D01*
X154128973Y-90258589D01*
X154201246Y-90366754D01*
X154309411Y-90439027D01*
X154437000Y-90464406D01*
X155337000Y-90464406D01*
X155464589Y-90439027D01*
X155572754Y-90366754D01*
X155645027Y-90258589D01*
X155670406Y-90131000D01*
X155670406Y-89988986D01*
X155733000Y-90051580D01*
X155733000Y-91754000D01*
X155769309Y-91936540D01*
X155872710Y-92091290D01*
X156470711Y-92689291D01*
X156625461Y-92792692D01*
X156808001Y-92829001D01*
X157077594Y-92829001D01*
X157077594Y-93202000D01*
X157102973Y-93329589D01*
X157175246Y-93437754D01*
X157220457Y-93467963D01*
X155915420Y-94773000D01*
X141619375Y-94773000D01*
X141566754Y-94694246D01*
X141458589Y-94621973D01*
X141331000Y-94596594D01*
X138831000Y-94596594D01*
X138703411Y-94621973D01*
X138595246Y-94694246D01*
X138522973Y-94802411D01*
X138497594Y-94930000D01*
X138497594Y-95570000D01*
X138522973Y-95697589D01*
X138595246Y-95805754D01*
X138703411Y-95878027D01*
X138831000Y-95903406D01*
X141331000Y-95903406D01*
X141458589Y-95878027D01*
X141566754Y-95805754D01*
X141619375Y-95727000D01*
X156113000Y-95727000D01*
X156295540Y-95690691D01*
X156450290Y-95587290D01*
X158198290Y-93839290D01*
X158301691Y-93684541D01*
X158332194Y-93531190D01*
X158438589Y-93510027D01*
X158546754Y-93437754D01*
X158619027Y-93329589D01*
X158644406Y-93202000D01*
X158644406Y-92829001D01*
X159117419Y-92829001D01*
X160089708Y-93801290D01*
X160244458Y-93904691D01*
X160426998Y-93941000D01*
X164464420Y-93941000D01*
X161092420Y-97313000D01*
X141619375Y-97313000D01*
X141566754Y-97234246D01*
X141458589Y-97161973D01*
X141331000Y-97136594D01*
X138831000Y-97136594D01*
X138703411Y-97161973D01*
X138595246Y-97234246D01*
X138522973Y-97342411D01*
X138497594Y-97470000D01*
X138497594Y-98110000D01*
X138522973Y-98237589D01*
X138595246Y-98345754D01*
X138703411Y-98418027D01*
X138831000Y-98443406D01*
X141331000Y-98443406D01*
X141458589Y-98418027D01*
X141566754Y-98345754D01*
X141619375Y-98267000D01*
X161290000Y-98267000D01*
X161472540Y-98230691D01*
X161627290Y-98127290D01*
X165313580Y-94441000D01*
X168644795Y-94441000D01*
X168677000Y-94447406D01*
X170077000Y-94447406D01*
X170204589Y-94422027D01*
X170312754Y-94349754D01*
X170385027Y-94241589D01*
X170410406Y-94114000D01*
X170410406Y-93814000D01*
X170390515Y-93714000D01*
X170410406Y-93614000D01*
X170410406Y-93314000D01*
X170390515Y-93214000D01*
X170410406Y-93114000D01*
X170410406Y-92814000D01*
X170390515Y-92714000D01*
X170410406Y-92614000D01*
X170410406Y-92314000D01*
X170390515Y-92214000D01*
X170410406Y-92114000D01*
X170410406Y-91814000D01*
X170385027Y-91686411D01*
X170312754Y-91578246D01*
X170204589Y-91505973D01*
X170077000Y-91480594D01*
X169568174Y-91480594D01*
X169514000Y-91426420D01*
X169514000Y-90482035D01*
X169614589Y-90462027D01*
X169722754Y-90389754D01*
X169795027Y-90281589D01*
X169820406Y-90154000D01*
X169820406Y-90086250D01*
X171649999Y-91915843D01*
X171649999Y-94649999D01*
X171709145Y-94947344D01*
X171877577Y-95199421D01*
X172851578Y-96173422D01*
X173103655Y-96341854D01*
X173401000Y-96401000D01*
X173461717Y-96401000D01*
X173461717Y-97624000D01*
X173496129Y-97797001D01*
X172948581Y-97797001D01*
X172434406Y-97282826D01*
X172434406Y-95924000D01*
X172409027Y-95796411D01*
X172336754Y-95688246D01*
X172228589Y-95615973D01*
X172101000Y-95590594D01*
X171201000Y-95590594D01*
X171073411Y-95615973D01*
X170965246Y-95688246D01*
X170892973Y-95796411D01*
X170867594Y-95924000D01*
X170867594Y-97624000D01*
X170892973Y-97751589D01*
X170965246Y-97859754D01*
X171073411Y-97932027D01*
X171201000Y-97957406D01*
X171759826Y-97957406D01*
X172413711Y-98611291D01*
X172568460Y-98714692D01*
X172751001Y-98751001D01*
X181149999Y-98751001D01*
X181332539Y-98714692D01*
X181487289Y-98611291D01*
X182450064Y-97648516D01*
X182460246Y-97663754D01*
X182568411Y-97736027D01*
X182696000Y-97761406D01*
X183496000Y-97761406D01*
X183623589Y-97736027D01*
X183731754Y-97663754D01*
X183804027Y-97555589D01*
X183829406Y-97428000D01*
X183829406Y-96628000D01*
X183804027Y-96500411D01*
X183731754Y-96392246D01*
X183623589Y-96319973D01*
X183496000Y-96294594D01*
X182696000Y-96294594D01*
X182568411Y-96319973D01*
X182460246Y-96392246D01*
X182387973Y-96500411D01*
X182377165Y-96554746D01*
X182213460Y-96587309D01*
X182058710Y-96690710D01*
X180952419Y-97797001D01*
X175605871Y-97797001D01*
X175640283Y-97624000D01*
X175640283Y-97551000D01*
X177639000Y-97551000D01*
X177936345Y-97491854D01*
X178188422Y-97323422D01*
X178518561Y-96993283D01*
X178959000Y-96993283D01*
X179203643Y-96944620D01*
X179411041Y-96806041D01*
X179549620Y-96598643D01*
X179598283Y-96354000D01*
X179598283Y-94654000D01*
X180625594Y-94654000D01*
X180625594Y-96354000D01*
X180650973Y-96481589D01*
X180723246Y-96589754D01*
X180831411Y-96662027D01*
X180959000Y-96687406D01*
X181859000Y-96687406D01*
X181986589Y-96662027D01*
X182094754Y-96589754D01*
X182167027Y-96481589D01*
X182192406Y-96354000D01*
X182192406Y-95981000D01*
X182377910Y-95981000D01*
X182387973Y-96031589D01*
X182460246Y-96139754D01*
X182568411Y-96212027D01*
X182696000Y-96237406D01*
X183496000Y-96237406D01*
X183623589Y-96212027D01*
X183731754Y-96139754D01*
X183804027Y-96031589D01*
X183829406Y-95904000D01*
X183829406Y-95104000D01*
X183962594Y-95104000D01*
X183962594Y-95904000D01*
X183987973Y-96031589D01*
X184060246Y-96139754D01*
X184168411Y-96212027D01*
X184296000Y-96237406D01*
X185096000Y-96237406D01*
X185223589Y-96212027D01*
X185331754Y-96139754D01*
X185362489Y-96093755D01*
X185388650Y-96119961D01*
X185655756Y-96230874D01*
X185944975Y-96231126D01*
X186212275Y-96120680D01*
X186416961Y-95916350D01*
X186527874Y-95649244D01*
X186528126Y-95360025D01*
X186417680Y-95092725D01*
X186213350Y-94888039D01*
X185946244Y-94777126D01*
X185657025Y-94776874D01*
X185389725Y-94887320D01*
X185362595Y-94914403D01*
X185331754Y-94868246D01*
X185223589Y-94795973D01*
X185096000Y-94770594D01*
X184296000Y-94770594D01*
X184168411Y-94795973D01*
X184060246Y-94868246D01*
X183987973Y-94976411D01*
X183962594Y-95104000D01*
X183829406Y-95104000D01*
X183804027Y-94976411D01*
X183731754Y-94868246D01*
X183623589Y-94795973D01*
X183496000Y-94770594D01*
X182696000Y-94770594D01*
X182568411Y-94795973D01*
X182460246Y-94868246D01*
X182387973Y-94976411D01*
X182377910Y-95027000D01*
X182192406Y-95027000D01*
X182192406Y-94654000D01*
X182167027Y-94526411D01*
X182094754Y-94418246D01*
X181986589Y-94345973D01*
X181859000Y-94320594D01*
X180959000Y-94320594D01*
X180831411Y-94345973D01*
X180723246Y-94418246D01*
X180650973Y-94526411D01*
X180625594Y-94654000D01*
X179598283Y-94654000D01*
X179549620Y-94409357D01*
X179411041Y-94201959D01*
X179268925Y-94107000D01*
X179411041Y-94012041D01*
X179549620Y-93804643D01*
X179598283Y-93560000D01*
X179598283Y-91860000D01*
X179549620Y-91615357D01*
X179411041Y-91407959D01*
X179325666Y-91350914D01*
X180482277Y-90194303D01*
X181814568Y-91526594D01*
X180959000Y-91526594D01*
X180831411Y-91551973D01*
X180723246Y-91624246D01*
X180650973Y-91732411D01*
X180625594Y-91860000D01*
X180625594Y-93560000D01*
X180650973Y-93687589D01*
X180723246Y-93795754D01*
X180831411Y-93868027D01*
X180959000Y-93893406D01*
X181859000Y-93893406D01*
X181986589Y-93868027D01*
X182094754Y-93795754D01*
X182151799Y-93710379D01*
X182362594Y-93921174D01*
X182362594Y-94380000D01*
X182387973Y-94507589D01*
X182460246Y-94615754D01*
X182568411Y-94688027D01*
X182696000Y-94713406D01*
X183496000Y-94713406D01*
X183623589Y-94688027D01*
X183731754Y-94615754D01*
X183804027Y-94507589D01*
X183829406Y-94380000D01*
X183829406Y-93580000D01*
X183804027Y-93452411D01*
X183731754Y-93344246D01*
X183623589Y-93271973D01*
X183496000Y-93246594D01*
X183037174Y-93246594D01*
X182192406Y-92401826D01*
X182192406Y-91904432D01*
X183192987Y-92905013D01*
X183398996Y-93042664D01*
X183642000Y-93091000D01*
X190246000Y-93091000D01*
X190489004Y-93042664D01*
X190581000Y-92981194D01*
X190581000Y-104475000D01*
X138349000Y-104475000D01*
X138349000Y-88472348D01*
X141319819Y-88472348D01*
X141478879Y-88857303D01*
X141773148Y-89152086D01*
X142157825Y-89311818D01*
X142574348Y-89312181D01*
X142691284Y-89263864D01*
X146728710Y-93301290D01*
X146748594Y-93314576D01*
X146748594Y-93414000D01*
X146773973Y-93541589D01*
X146846246Y-93649754D01*
X146954411Y-93722027D01*
X147082000Y-93747406D01*
X147582000Y-93747406D01*
X147709589Y-93722027D01*
X147817754Y-93649754D01*
X147890027Y-93541589D01*
X147915406Y-93414000D01*
X147915406Y-92514000D01*
X147890027Y-92386411D01*
X147817754Y-92278246D01*
X147709589Y-92205973D01*
X147582000Y-92180594D01*
X147082000Y-92180594D01*
X146977884Y-92201304D01*
X143365975Y-88589395D01*
X143413818Y-88474175D01*
X143414181Y-88057652D01*
X143352347Y-87908000D01*
X146615594Y-87908000D01*
X146615594Y-88908000D01*
X146640973Y-89035589D01*
X146713246Y-89143754D01*
X146821411Y-89216027D01*
X146949000Y-89241406D01*
X148199000Y-89241406D01*
X148326589Y-89216027D01*
X148434754Y-89143754D01*
X148507027Y-89035589D01*
X148532406Y-88908000D01*
X148532406Y-88869000D01*
X148896594Y-88869000D01*
X148896594Y-89242000D01*
X148921973Y-89369589D01*
X148994246Y-89477754D01*
X149102411Y-89550027D01*
X149230000Y-89575406D01*
X150130000Y-89575406D01*
X150257589Y-89550027D01*
X150365754Y-89477754D01*
X150438027Y-89369589D01*
X150463406Y-89242000D01*
X150463406Y-87542000D01*
X150438027Y-87414411D01*
X150365754Y-87306246D01*
X150257589Y-87233973D01*
X150130000Y-87208594D01*
X149230000Y-87208594D01*
X149102411Y-87233973D01*
X148994246Y-87306246D01*
X148921973Y-87414411D01*
X148896594Y-87542000D01*
X148896594Y-87915000D01*
X148532406Y-87915000D01*
X148532406Y-87908000D01*
X148507027Y-87780411D01*
X148434754Y-87672246D01*
X148326589Y-87599973D01*
X148199000Y-87574594D01*
X146949000Y-87574594D01*
X146821411Y-87599973D01*
X146713246Y-87672246D01*
X146640973Y-87780411D01*
X146615594Y-87908000D01*
X143352347Y-87908000D01*
X143255121Y-87672697D01*
X142960852Y-87377914D01*
X142576175Y-87218182D01*
X142159652Y-87217819D01*
X141774697Y-87376879D01*
X141479914Y-87671148D01*
X141320182Y-88055825D01*
X141319819Y-88472348D01*
X138349000Y-88472348D01*
X138349000Y-86978888D01*
X138430000Y-86995000D01*
X144780000Y-86995000D01*
X145023004Y-86946664D01*
X145229013Y-86809013D01*
X145366664Y-86603004D01*
X145415000Y-86360000D01*
X145415000Y-82305026D01*
X147261013Y-80459013D01*
X147398664Y-80253004D01*
X147447000Y-80010000D01*
X147447000Y-69007000D01*
X158623000Y-69007000D01*
X158623000Y-80010000D01*
G36*
X177419717Y-93560000D02*
X177468380Y-93804643D01*
X177606959Y-94012041D01*
X177749075Y-94107000D01*
X177606959Y-94201959D01*
X177468380Y-94409357D01*
X177419717Y-94654000D01*
X177419717Y-95894439D01*
X177317156Y-95997000D01*
X175640283Y-95997000D01*
X175640283Y-95924000D01*
X175591620Y-95679357D01*
X175453041Y-95471959D01*
X175245643Y-95333380D01*
X175001000Y-95284717D01*
X174560561Y-95284717D01*
X174350422Y-95074578D01*
X174098345Y-94906146D01*
X173801000Y-94847000D01*
X173722844Y-94847000D01*
X173203999Y-94328155D01*
X173203999Y-93947406D01*
X174477000Y-93947406D01*
X174509205Y-93941000D01*
X175804420Y-93941000D01*
X175948594Y-94085174D01*
X175948594Y-94519000D01*
X175973973Y-94646589D01*
X176046246Y-94754754D01*
X176154411Y-94827027D01*
X176282000Y-94852406D01*
X177032000Y-94852406D01*
X177159589Y-94827027D01*
X177267754Y-94754754D01*
X177340027Y-94646589D01*
X177365406Y-94519000D01*
X177365406Y-93719000D01*
X177340027Y-93591411D01*
X177328623Y-93574343D01*
X177419717Y-93483407D01*
X177419717Y-93560000D01*
X177419717Y-93560000D01*
G37*
X177419717Y-93560000D02*
X177468380Y-93804643D01*
X177606959Y-94012041D01*
X177749075Y-94107000D01*
X177606959Y-94201959D01*
X177468380Y-94409357D01*
X177419717Y-94654000D01*
X177419717Y-95894439D01*
X177317156Y-95997000D01*
X175640283Y-95997000D01*
X175640283Y-95924000D01*
X175591620Y-95679357D01*
X175453041Y-95471959D01*
X175245643Y-95333380D01*
X175001000Y-95284717D01*
X174560561Y-95284717D01*
X174350422Y-95074578D01*
X174098345Y-94906146D01*
X173801000Y-94847000D01*
X173722844Y-94847000D01*
X173203999Y-94328155D01*
X173203999Y-93947406D01*
X174477000Y-93947406D01*
X174509205Y-93941000D01*
X175804420Y-93941000D01*
X175948594Y-94085174D01*
X175948594Y-94519000D01*
X175973973Y-94646589D01*
X176046246Y-94754754D01*
X176154411Y-94827027D01*
X176282000Y-94852406D01*
X177032000Y-94852406D01*
X177159589Y-94827027D01*
X177267754Y-94754754D01*
X177340027Y-94646589D01*
X177365406Y-94519000D01*
X177365406Y-93719000D01*
X177340027Y-93591411D01*
X177328623Y-93574343D01*
X177419717Y-93483407D01*
X177419717Y-93560000D01*
G36*
X167466867Y-89024133D02*
X167751387Y-89214242D01*
X168087000Y-89281000D01*
X168525250Y-89281000D01*
X168587000Y-89293283D01*
X169027439Y-89293283D01*
X169054750Y-89320594D01*
X168587000Y-89320594D01*
X168459411Y-89345973D01*
X168351246Y-89418246D01*
X168278973Y-89526411D01*
X168253594Y-89654000D01*
X168253594Y-90154000D01*
X168278973Y-90281589D01*
X168351246Y-90389754D01*
X168459411Y-90462027D01*
X168560000Y-90482035D01*
X168560000Y-91503867D01*
X168549411Y-91505973D01*
X168441246Y-91578246D01*
X168368973Y-91686411D01*
X168343594Y-91814000D01*
X168343594Y-92012000D01*
X167437902Y-92012000D01*
X167455406Y-91924000D01*
X167455406Y-90924000D01*
X167430027Y-90796411D01*
X167357754Y-90688246D01*
X167249589Y-90615973D01*
X167122000Y-90590594D01*
X165872000Y-90590594D01*
X165744411Y-90615973D01*
X165636246Y-90688246D01*
X165563973Y-90796411D01*
X165538594Y-90924000D01*
X165538594Y-90947000D01*
X165489580Y-90947000D01*
X165444290Y-90901710D01*
X165289540Y-90798309D01*
X165136190Y-90767806D01*
X165115027Y-90661411D01*
X165042754Y-90553246D01*
X164934589Y-90480973D01*
X164807000Y-90455594D01*
X163107000Y-90455594D01*
X162979411Y-90480973D01*
X162871246Y-90553246D01*
X162798973Y-90661411D01*
X162773594Y-90789000D01*
X162773594Y-91689000D01*
X162798973Y-91816589D01*
X162871246Y-91924754D01*
X162979411Y-91997027D01*
X163107000Y-92022406D01*
X164807000Y-92022406D01*
X164934589Y-91997027D01*
X165042754Y-91924754D01*
X165088636Y-91856086D01*
X165125460Y-91880691D01*
X165308000Y-91917000D01*
X165388438Y-91901000D01*
X165538594Y-91901000D01*
X165538594Y-91924000D01*
X165563973Y-92051589D01*
X165636246Y-92159754D01*
X165744411Y-92232027D01*
X165872000Y-92257406D01*
X166061590Y-92257406D01*
X166079406Y-92346973D01*
X166177388Y-92493612D01*
X166195776Y-92512000D01*
X162865589Y-92512000D01*
X162744973Y-92431406D01*
X162572000Y-92397000D01*
X161490308Y-92397000D01*
X161467754Y-92363246D01*
X161359589Y-92290973D01*
X161309000Y-92280910D01*
X161309000Y-92022406D01*
X161632000Y-92022406D01*
X161759589Y-91997027D01*
X161867754Y-91924754D01*
X161940027Y-91816589D01*
X161965406Y-91689000D01*
X161965406Y-90789000D01*
X161940027Y-90661411D01*
X161867754Y-90553246D01*
X161759589Y-90480973D01*
X161632000Y-90455594D01*
X159932000Y-90455594D01*
X159804411Y-90480973D01*
X159696246Y-90553246D01*
X159623973Y-90661411D01*
X159598594Y-90789000D01*
X159598594Y-91689000D01*
X159623973Y-91816589D01*
X159696246Y-91924754D01*
X159804411Y-91997027D01*
X159932000Y-92022406D01*
X160255000Y-92022406D01*
X160255000Y-92280910D01*
X160204411Y-92290973D01*
X160096246Y-92363246D01*
X160058025Y-92420447D01*
X159652289Y-92014711D01*
X159497539Y-91911310D01*
X159314999Y-91875001D01*
X158915871Y-91875001D01*
X158950283Y-91702000D01*
X158950283Y-91202000D01*
X158901620Y-90957357D01*
X158763041Y-90749959D01*
X158688000Y-90699818D01*
X158688000Y-90583737D01*
X158689041Y-90583041D01*
X158827620Y-90375643D01*
X158870912Y-90158000D01*
X159840000Y-90158000D01*
X160175613Y-90091242D01*
X160460133Y-89901133D01*
X160932983Y-89428283D01*
X161632000Y-89428283D01*
X161876643Y-89379620D01*
X162084041Y-89241041D01*
X162100773Y-89216000D01*
X162638227Y-89216000D01*
X162654959Y-89241041D01*
X162862357Y-89379620D01*
X163107000Y-89428283D01*
X164807000Y-89428283D01*
X165051643Y-89379620D01*
X165259041Y-89241041D01*
X165275773Y-89216000D01*
X165307000Y-89216000D01*
X165642613Y-89149242D01*
X165927133Y-88959133D01*
X166125266Y-88761000D01*
X167203734Y-88761000D01*
X167466867Y-89024133D01*
X167466867Y-89024133D01*
G37*
X167466867Y-89024133D02*
X167751387Y-89214242D01*
X168087000Y-89281000D01*
X168525250Y-89281000D01*
X168587000Y-89293283D01*
X169027439Y-89293283D01*
X169054750Y-89320594D01*
X168587000Y-89320594D01*
X168459411Y-89345973D01*
X168351246Y-89418246D01*
X168278973Y-89526411D01*
X168253594Y-89654000D01*
X168253594Y-90154000D01*
X168278973Y-90281589D01*
X168351246Y-90389754D01*
X168459411Y-90462027D01*
X168560000Y-90482035D01*
X168560000Y-91503867D01*
X168549411Y-91505973D01*
X168441246Y-91578246D01*
X168368973Y-91686411D01*
X168343594Y-91814000D01*
X168343594Y-92012000D01*
X167437902Y-92012000D01*
X167455406Y-91924000D01*
X167455406Y-90924000D01*
X167430027Y-90796411D01*
X167357754Y-90688246D01*
X167249589Y-90615973D01*
X167122000Y-90590594D01*
X165872000Y-90590594D01*
X165744411Y-90615973D01*
X165636246Y-90688246D01*
X165563973Y-90796411D01*
X165538594Y-90924000D01*
X165538594Y-90947000D01*
X165489580Y-90947000D01*
X165444290Y-90901710D01*
X165289540Y-90798309D01*
X165136190Y-90767806D01*
X165115027Y-90661411D01*
X165042754Y-90553246D01*
X164934589Y-90480973D01*
X164807000Y-90455594D01*
X163107000Y-90455594D01*
X162979411Y-90480973D01*
X162871246Y-90553246D01*
X162798973Y-90661411D01*
X162773594Y-90789000D01*
X162773594Y-91689000D01*
X162798973Y-91816589D01*
X162871246Y-91924754D01*
X162979411Y-91997027D01*
X163107000Y-92022406D01*
X164807000Y-92022406D01*
X164934589Y-91997027D01*
X165042754Y-91924754D01*
X165088636Y-91856086D01*
X165125460Y-91880691D01*
X165308000Y-91917000D01*
X165388438Y-91901000D01*
X165538594Y-91901000D01*
X165538594Y-91924000D01*
X165563973Y-92051589D01*
X165636246Y-92159754D01*
X165744411Y-92232027D01*
X165872000Y-92257406D01*
X166061590Y-92257406D01*
X166079406Y-92346973D01*
X166177388Y-92493612D01*
X166195776Y-92512000D01*
X162865589Y-92512000D01*
X162744973Y-92431406D01*
X162572000Y-92397000D01*
X161490308Y-92397000D01*
X161467754Y-92363246D01*
X161359589Y-92290973D01*
X161309000Y-92280910D01*
X161309000Y-92022406D01*
X161632000Y-92022406D01*
X161759589Y-91997027D01*
X161867754Y-91924754D01*
X161940027Y-91816589D01*
X161965406Y-91689000D01*
X161965406Y-90789000D01*
X161940027Y-90661411D01*
X161867754Y-90553246D01*
X161759589Y-90480973D01*
X161632000Y-90455594D01*
X159932000Y-90455594D01*
X159804411Y-90480973D01*
X159696246Y-90553246D01*
X159623973Y-90661411D01*
X159598594Y-90789000D01*
X159598594Y-91689000D01*
X159623973Y-91816589D01*
X159696246Y-91924754D01*
X159804411Y-91997027D01*
X159932000Y-92022406D01*
X160255000Y-92022406D01*
X160255000Y-92280910D01*
X160204411Y-92290973D01*
X160096246Y-92363246D01*
X160058025Y-92420447D01*
X159652289Y-92014711D01*
X159497539Y-91911310D01*
X159314999Y-91875001D01*
X158915871Y-91875001D01*
X158950283Y-91702000D01*
X158950283Y-91202000D01*
X158901620Y-90957357D01*
X158763041Y-90749959D01*
X158688000Y-90699818D01*
X158688000Y-90583737D01*
X158689041Y-90583041D01*
X158827620Y-90375643D01*
X158870912Y-90158000D01*
X159840000Y-90158000D01*
X160175613Y-90091242D01*
X160460133Y-89901133D01*
X160932983Y-89428283D01*
X161632000Y-89428283D01*
X161876643Y-89379620D01*
X162084041Y-89241041D01*
X162100773Y-89216000D01*
X162638227Y-89216000D01*
X162654959Y-89241041D01*
X162862357Y-89379620D01*
X163107000Y-89428283D01*
X164807000Y-89428283D01*
X165051643Y-89379620D01*
X165259041Y-89241041D01*
X165275773Y-89216000D01*
X165307000Y-89216000D01*
X165642613Y-89149242D01*
X165927133Y-88959133D01*
X166125266Y-88761000D01*
X167203734Y-88761000D01*
X167466867Y-89024133D01*
G36*
X169397648Y-82705765D02*
X169375797Y-82777934D01*
X169095420Y-82777934D01*
X168967831Y-82803313D01*
X168859666Y-82875586D01*
X168787393Y-82983751D01*
X168762014Y-83111340D01*
X168762014Y-86311740D01*
X168787393Y-86439329D01*
X168859666Y-86547494D01*
X168967831Y-86619767D01*
X169068000Y-86639692D01*
X169068000Y-87282000D01*
X169104309Y-87464540D01*
X169137836Y-87514717D01*
X168587000Y-87514717D01*
X168525250Y-87527000D01*
X168450266Y-87527000D01*
X168187133Y-87263867D01*
X167902613Y-87073758D01*
X167567000Y-87007000D01*
X165762000Y-87007000D01*
X165426386Y-87073758D01*
X165141867Y-87263867D01*
X165085039Y-87320695D01*
X165051643Y-87298380D01*
X164807000Y-87249717D01*
X163107000Y-87249717D01*
X162862357Y-87298380D01*
X162654959Y-87436959D01*
X162638227Y-87462000D01*
X162167000Y-87462000D01*
X162167000Y-86488048D01*
X162210418Y-86470108D01*
X162668499Y-86012825D01*
X162916717Y-85415050D01*
X162917282Y-84767789D01*
X162670108Y-84169582D01*
X162667000Y-84166469D01*
X162667000Y-80645000D01*
X170771491Y-80645000D01*
X169397648Y-82705765D01*
X169397648Y-82705765D01*
G37*
X169397648Y-82705765D02*
X169375797Y-82777934D01*
X169095420Y-82777934D01*
X168967831Y-82803313D01*
X168859666Y-82875586D01*
X168787393Y-82983751D01*
X168762014Y-83111340D01*
X168762014Y-86311740D01*
X168787393Y-86439329D01*
X168859666Y-86547494D01*
X168967831Y-86619767D01*
X169068000Y-86639692D01*
X169068000Y-87282000D01*
X169104309Y-87464540D01*
X169137836Y-87514717D01*
X168587000Y-87514717D01*
X168525250Y-87527000D01*
X168450266Y-87527000D01*
X168187133Y-87263867D01*
X167902613Y-87073758D01*
X167567000Y-87007000D01*
X165762000Y-87007000D01*
X165426386Y-87073758D01*
X165141867Y-87263867D01*
X165085039Y-87320695D01*
X165051643Y-87298380D01*
X164807000Y-87249717D01*
X163107000Y-87249717D01*
X162862357Y-87298380D01*
X162654959Y-87436959D01*
X162638227Y-87462000D01*
X162167000Y-87462000D01*
X162167000Y-86488048D01*
X162210418Y-86470108D01*
X162668499Y-86012825D01*
X162916717Y-85415050D01*
X162917282Y-84767789D01*
X162670108Y-84169582D01*
X162667000Y-84166469D01*
X162667000Y-80645000D01*
X170771491Y-80645000D01*
X169397648Y-82705765D01*
%TD*%
M02*
